%TF.GenerationSoftware,KiCad,Pcbnew,(6.0.0-rc1-57-gf03efa1cba)*%
%TF.CreationDate,2021-11-19T01:11:21-08:00*%
%TF.ProjectId,OpenCharger,4f70656e-4368-4617-9267-65722e6b6963,rev?*%
%TF.SameCoordinates,Original*%
%TF.FileFunction,Legend,Bot*%
%TF.FilePolarity,Positive*%
%FSLAX46Y46*%
G04 Gerber Fmt 4.6, Leading zero omitted, Abs format (unit mm)*
G04 Created by KiCad (PCBNEW (6.0.0-rc1-57-gf03efa1cba)) date 2021-11-19 01:11:21*
%MOMM*%
%LPD*%
G01*
G04 APERTURE LIST*
%ADD10C,0.150000*%
%ADD11C,0.120000*%
G04 APERTURE END LIST*
D10*
%TO.C,Q26*%
X234886428Y-152027619D02*
X234981666Y-151980000D01*
X235076904Y-151884761D01*
X235219761Y-151741904D01*
X235315000Y-151694285D01*
X235410238Y-151694285D01*
X235362619Y-151932380D02*
X235457857Y-151884761D01*
X235553095Y-151789523D01*
X235600714Y-151599047D01*
X235600714Y-151265714D01*
X235553095Y-151075238D01*
X235457857Y-150980000D01*
X235362619Y-150932380D01*
X235172142Y-150932380D01*
X235076904Y-150980000D01*
X234981666Y-151075238D01*
X234934047Y-151265714D01*
X234934047Y-151599047D01*
X234981666Y-151789523D01*
X235076904Y-151884761D01*
X235172142Y-151932380D01*
X235362619Y-151932380D01*
X234553095Y-151027619D02*
X234505476Y-150980000D01*
X234410238Y-150932380D01*
X234172142Y-150932380D01*
X234076904Y-150980000D01*
X234029285Y-151027619D01*
X233981666Y-151122857D01*
X233981666Y-151218095D01*
X234029285Y-151360952D01*
X234600714Y-151932380D01*
X233981666Y-151932380D01*
X233124523Y-150932380D02*
X233315000Y-150932380D01*
X233410238Y-150980000D01*
X233457857Y-151027619D01*
X233553095Y-151170476D01*
X233600714Y-151360952D01*
X233600714Y-151741904D01*
X233553095Y-151837142D01*
X233505476Y-151884761D01*
X233410238Y-151932380D01*
X233219761Y-151932380D01*
X233124523Y-151884761D01*
X233076904Y-151837142D01*
X233029285Y-151741904D01*
X233029285Y-151503809D01*
X233076904Y-151408571D01*
X233124523Y-151360952D01*
X233219761Y-151313333D01*
X233410238Y-151313333D01*
X233505476Y-151360952D01*
X233553095Y-151408571D01*
X233600714Y-151503809D01*
%TO.C,Q13*%
X116402619Y-175958571D02*
X116355000Y-175863333D01*
X116259761Y-175768095D01*
X116116904Y-175625238D01*
X116069285Y-175530000D01*
X116069285Y-175434761D01*
X116307380Y-175482380D02*
X116259761Y-175387142D01*
X116164523Y-175291904D01*
X115974047Y-175244285D01*
X115640714Y-175244285D01*
X115450238Y-175291904D01*
X115355000Y-175387142D01*
X115307380Y-175482380D01*
X115307380Y-175672857D01*
X115355000Y-175768095D01*
X115450238Y-175863333D01*
X115640714Y-175910952D01*
X115974047Y-175910952D01*
X116164523Y-175863333D01*
X116259761Y-175768095D01*
X116307380Y-175672857D01*
X116307380Y-175482380D01*
X116307380Y-176863333D02*
X116307380Y-176291904D01*
X116307380Y-176577619D02*
X115307380Y-176577619D01*
X115450238Y-176482380D01*
X115545476Y-176387142D01*
X115593095Y-176291904D01*
X115307380Y-177196666D02*
X115307380Y-177815714D01*
X115688333Y-177482380D01*
X115688333Y-177625238D01*
X115735952Y-177720476D01*
X115783571Y-177768095D01*
X115878809Y-177815714D01*
X116116904Y-177815714D01*
X116212142Y-177768095D01*
X116259761Y-177720476D01*
X116307380Y-177625238D01*
X116307380Y-177339523D01*
X116259761Y-177244285D01*
X116212142Y-177196666D01*
%TO.C,Q15*%
X116437619Y-203898571D02*
X116390000Y-203803333D01*
X116294761Y-203708095D01*
X116151904Y-203565238D01*
X116104285Y-203470000D01*
X116104285Y-203374761D01*
X116342380Y-203422380D02*
X116294761Y-203327142D01*
X116199523Y-203231904D01*
X116009047Y-203184285D01*
X115675714Y-203184285D01*
X115485238Y-203231904D01*
X115390000Y-203327142D01*
X115342380Y-203422380D01*
X115342380Y-203612857D01*
X115390000Y-203708095D01*
X115485238Y-203803333D01*
X115675714Y-203850952D01*
X116009047Y-203850952D01*
X116199523Y-203803333D01*
X116294761Y-203708095D01*
X116342380Y-203612857D01*
X116342380Y-203422380D01*
X116342380Y-204803333D02*
X116342380Y-204231904D01*
X116342380Y-204517619D02*
X115342380Y-204517619D01*
X115485238Y-204422380D01*
X115580476Y-204327142D01*
X115628095Y-204231904D01*
X115342380Y-205708095D02*
X115342380Y-205231904D01*
X115818571Y-205184285D01*
X115770952Y-205231904D01*
X115723333Y-205327142D01*
X115723333Y-205565238D01*
X115770952Y-205660476D01*
X115818571Y-205708095D01*
X115913809Y-205755714D01*
X116151904Y-205755714D01*
X116247142Y-205708095D01*
X116294761Y-205660476D01*
X116342380Y-205565238D01*
X116342380Y-205327142D01*
X116294761Y-205231904D01*
X116247142Y-205184285D01*
%TO.C,Q14*%
X116402619Y-189928571D02*
X116355000Y-189833333D01*
X116259761Y-189738095D01*
X116116904Y-189595238D01*
X116069285Y-189500000D01*
X116069285Y-189404761D01*
X116307380Y-189452380D02*
X116259761Y-189357142D01*
X116164523Y-189261904D01*
X115974047Y-189214285D01*
X115640714Y-189214285D01*
X115450238Y-189261904D01*
X115355000Y-189357142D01*
X115307380Y-189452380D01*
X115307380Y-189642857D01*
X115355000Y-189738095D01*
X115450238Y-189833333D01*
X115640714Y-189880952D01*
X115974047Y-189880952D01*
X116164523Y-189833333D01*
X116259761Y-189738095D01*
X116307380Y-189642857D01*
X116307380Y-189452380D01*
X116307380Y-190833333D02*
X116307380Y-190261904D01*
X116307380Y-190547619D02*
X115307380Y-190547619D01*
X115450238Y-190452380D01*
X115545476Y-190357142D01*
X115593095Y-190261904D01*
X115640714Y-191690476D02*
X116307380Y-191690476D01*
X115259761Y-191452380D02*
X115974047Y-191214285D01*
X115974047Y-191833333D01*
%TO.C,Q25*%
X194507619Y-175958571D02*
X194460000Y-175863333D01*
X194364761Y-175768095D01*
X194221904Y-175625238D01*
X194174285Y-175530000D01*
X194174285Y-175434761D01*
X194412380Y-175482380D02*
X194364761Y-175387142D01*
X194269523Y-175291904D01*
X194079047Y-175244285D01*
X193745714Y-175244285D01*
X193555238Y-175291904D01*
X193460000Y-175387142D01*
X193412380Y-175482380D01*
X193412380Y-175672857D01*
X193460000Y-175768095D01*
X193555238Y-175863333D01*
X193745714Y-175910952D01*
X194079047Y-175910952D01*
X194269523Y-175863333D01*
X194364761Y-175768095D01*
X194412380Y-175672857D01*
X194412380Y-175482380D01*
X193507619Y-176291904D02*
X193460000Y-176339523D01*
X193412380Y-176434761D01*
X193412380Y-176672857D01*
X193460000Y-176768095D01*
X193507619Y-176815714D01*
X193602857Y-176863333D01*
X193698095Y-176863333D01*
X193840952Y-176815714D01*
X194412380Y-176244285D01*
X194412380Y-176863333D01*
X193412380Y-177768095D02*
X193412380Y-177291904D01*
X193888571Y-177244285D01*
X193840952Y-177291904D01*
X193793333Y-177387142D01*
X193793333Y-177625238D01*
X193840952Y-177720476D01*
X193888571Y-177768095D01*
X193983809Y-177815714D01*
X194221904Y-177815714D01*
X194317142Y-177768095D01*
X194364761Y-177720476D01*
X194412380Y-177625238D01*
X194412380Y-177387142D01*
X194364761Y-177291904D01*
X194317142Y-177244285D01*
%TO.C,Q24*%
X194507619Y-189928571D02*
X194460000Y-189833333D01*
X194364761Y-189738095D01*
X194221904Y-189595238D01*
X194174285Y-189500000D01*
X194174285Y-189404761D01*
X194412380Y-189452380D02*
X194364761Y-189357142D01*
X194269523Y-189261904D01*
X194079047Y-189214285D01*
X193745714Y-189214285D01*
X193555238Y-189261904D01*
X193460000Y-189357142D01*
X193412380Y-189452380D01*
X193412380Y-189642857D01*
X193460000Y-189738095D01*
X193555238Y-189833333D01*
X193745714Y-189880952D01*
X194079047Y-189880952D01*
X194269523Y-189833333D01*
X194364761Y-189738095D01*
X194412380Y-189642857D01*
X194412380Y-189452380D01*
X193507619Y-190261904D02*
X193460000Y-190309523D01*
X193412380Y-190404761D01*
X193412380Y-190642857D01*
X193460000Y-190738095D01*
X193507619Y-190785714D01*
X193602857Y-190833333D01*
X193698095Y-190833333D01*
X193840952Y-190785714D01*
X194412380Y-190214285D01*
X194412380Y-190833333D01*
X193745714Y-191690476D02*
X194412380Y-191690476D01*
X193364761Y-191452380D02*
X194079047Y-191214285D01*
X194079047Y-191833333D01*
%TO.C,Q23*%
X194507619Y-249618571D02*
X194460000Y-249523333D01*
X194364761Y-249428095D01*
X194221904Y-249285238D01*
X194174285Y-249190000D01*
X194174285Y-249094761D01*
X194412380Y-249142380D02*
X194364761Y-249047142D01*
X194269523Y-248951904D01*
X194079047Y-248904285D01*
X193745714Y-248904285D01*
X193555238Y-248951904D01*
X193460000Y-249047142D01*
X193412380Y-249142380D01*
X193412380Y-249332857D01*
X193460000Y-249428095D01*
X193555238Y-249523333D01*
X193745714Y-249570952D01*
X194079047Y-249570952D01*
X194269523Y-249523333D01*
X194364761Y-249428095D01*
X194412380Y-249332857D01*
X194412380Y-249142380D01*
X193507619Y-249951904D02*
X193460000Y-249999523D01*
X193412380Y-250094761D01*
X193412380Y-250332857D01*
X193460000Y-250428095D01*
X193507619Y-250475714D01*
X193602857Y-250523333D01*
X193698095Y-250523333D01*
X193840952Y-250475714D01*
X194412380Y-249904285D01*
X194412380Y-250523333D01*
X193412380Y-250856666D02*
X193412380Y-251475714D01*
X193793333Y-251142380D01*
X193793333Y-251285238D01*
X193840952Y-251380476D01*
X193888571Y-251428095D01*
X193983809Y-251475714D01*
X194221904Y-251475714D01*
X194317142Y-251428095D01*
X194364761Y-251380476D01*
X194412380Y-251285238D01*
X194412380Y-250999523D01*
X194364761Y-250904285D01*
X194317142Y-250856666D01*
%TO.C,Q22*%
X194507619Y-235648571D02*
X194460000Y-235553333D01*
X194364761Y-235458095D01*
X194221904Y-235315238D01*
X194174285Y-235220000D01*
X194174285Y-235124761D01*
X194412380Y-235172380D02*
X194364761Y-235077142D01*
X194269523Y-234981904D01*
X194079047Y-234934285D01*
X193745714Y-234934285D01*
X193555238Y-234981904D01*
X193460000Y-235077142D01*
X193412380Y-235172380D01*
X193412380Y-235362857D01*
X193460000Y-235458095D01*
X193555238Y-235553333D01*
X193745714Y-235600952D01*
X194079047Y-235600952D01*
X194269523Y-235553333D01*
X194364761Y-235458095D01*
X194412380Y-235362857D01*
X194412380Y-235172380D01*
X193507619Y-235981904D02*
X193460000Y-236029523D01*
X193412380Y-236124761D01*
X193412380Y-236362857D01*
X193460000Y-236458095D01*
X193507619Y-236505714D01*
X193602857Y-236553333D01*
X193698095Y-236553333D01*
X193840952Y-236505714D01*
X194412380Y-235934285D01*
X194412380Y-236553333D01*
X193507619Y-236934285D02*
X193460000Y-236981904D01*
X193412380Y-237077142D01*
X193412380Y-237315238D01*
X193460000Y-237410476D01*
X193507619Y-237458095D01*
X193602857Y-237505714D01*
X193698095Y-237505714D01*
X193840952Y-237458095D01*
X194412380Y-236886666D01*
X194412380Y-237505714D01*
%TO.C,Q21*%
X181807619Y-249608571D02*
X181760000Y-249513333D01*
X181664761Y-249418095D01*
X181521904Y-249275238D01*
X181474285Y-249180000D01*
X181474285Y-249084761D01*
X181712380Y-249132380D02*
X181664761Y-249037142D01*
X181569523Y-248941904D01*
X181379047Y-248894285D01*
X181045714Y-248894285D01*
X180855238Y-248941904D01*
X180760000Y-249037142D01*
X180712380Y-249132380D01*
X180712380Y-249322857D01*
X180760000Y-249418095D01*
X180855238Y-249513333D01*
X181045714Y-249560952D01*
X181379047Y-249560952D01*
X181569523Y-249513333D01*
X181664761Y-249418095D01*
X181712380Y-249322857D01*
X181712380Y-249132380D01*
X180807619Y-249941904D02*
X180760000Y-249989523D01*
X180712380Y-250084761D01*
X180712380Y-250322857D01*
X180760000Y-250418095D01*
X180807619Y-250465714D01*
X180902857Y-250513333D01*
X180998095Y-250513333D01*
X181140952Y-250465714D01*
X181712380Y-249894285D01*
X181712380Y-250513333D01*
X181712380Y-251465714D02*
X181712380Y-250894285D01*
X181712380Y-251180000D02*
X180712380Y-251180000D01*
X180855238Y-251084761D01*
X180950476Y-250989523D01*
X180998095Y-250894285D01*
%TO.C,Q20*%
X181807619Y-235638571D02*
X181760000Y-235543333D01*
X181664761Y-235448095D01*
X181521904Y-235305238D01*
X181474285Y-235210000D01*
X181474285Y-235114761D01*
X181712380Y-235162380D02*
X181664761Y-235067142D01*
X181569523Y-234971904D01*
X181379047Y-234924285D01*
X181045714Y-234924285D01*
X180855238Y-234971904D01*
X180760000Y-235067142D01*
X180712380Y-235162380D01*
X180712380Y-235352857D01*
X180760000Y-235448095D01*
X180855238Y-235543333D01*
X181045714Y-235590952D01*
X181379047Y-235590952D01*
X181569523Y-235543333D01*
X181664761Y-235448095D01*
X181712380Y-235352857D01*
X181712380Y-235162380D01*
X180807619Y-235971904D02*
X180760000Y-236019523D01*
X180712380Y-236114761D01*
X180712380Y-236352857D01*
X180760000Y-236448095D01*
X180807619Y-236495714D01*
X180902857Y-236543333D01*
X180998095Y-236543333D01*
X181140952Y-236495714D01*
X181712380Y-235924285D01*
X181712380Y-236543333D01*
X180712380Y-237162380D02*
X180712380Y-237257619D01*
X180760000Y-237352857D01*
X180807619Y-237400476D01*
X180902857Y-237448095D01*
X181093333Y-237495714D01*
X181331428Y-237495714D01*
X181521904Y-237448095D01*
X181617142Y-237400476D01*
X181664761Y-237352857D01*
X181712380Y-237257619D01*
X181712380Y-237162380D01*
X181664761Y-237067142D01*
X181617142Y-237019523D01*
X181521904Y-236971904D01*
X181331428Y-236924285D01*
X181093333Y-236924285D01*
X180902857Y-236971904D01*
X180807619Y-237019523D01*
X180760000Y-237067142D01*
X180712380Y-237162380D01*
%TO.C,Q19*%
X181807619Y-203898571D02*
X181760000Y-203803333D01*
X181664761Y-203708095D01*
X181521904Y-203565238D01*
X181474285Y-203470000D01*
X181474285Y-203374761D01*
X181712380Y-203422380D02*
X181664761Y-203327142D01*
X181569523Y-203231904D01*
X181379047Y-203184285D01*
X181045714Y-203184285D01*
X180855238Y-203231904D01*
X180760000Y-203327142D01*
X180712380Y-203422380D01*
X180712380Y-203612857D01*
X180760000Y-203708095D01*
X180855238Y-203803333D01*
X181045714Y-203850952D01*
X181379047Y-203850952D01*
X181569523Y-203803333D01*
X181664761Y-203708095D01*
X181712380Y-203612857D01*
X181712380Y-203422380D01*
X181712380Y-204803333D02*
X181712380Y-204231904D01*
X181712380Y-204517619D02*
X180712380Y-204517619D01*
X180855238Y-204422380D01*
X180950476Y-204327142D01*
X180998095Y-204231904D01*
X181712380Y-205279523D02*
X181712380Y-205470000D01*
X181664761Y-205565238D01*
X181617142Y-205612857D01*
X181474285Y-205708095D01*
X181283809Y-205755714D01*
X180902857Y-205755714D01*
X180807619Y-205708095D01*
X180760000Y-205660476D01*
X180712380Y-205565238D01*
X180712380Y-205374761D01*
X180760000Y-205279523D01*
X180807619Y-205231904D01*
X180902857Y-205184285D01*
X181140952Y-205184285D01*
X181236190Y-205231904D01*
X181283809Y-205279523D01*
X181331428Y-205374761D01*
X181331428Y-205565238D01*
X181283809Y-205660476D01*
X181236190Y-205708095D01*
X181140952Y-205755714D01*
%TO.C,Q18*%
X181807619Y-189928571D02*
X181760000Y-189833333D01*
X181664761Y-189738095D01*
X181521904Y-189595238D01*
X181474285Y-189500000D01*
X181474285Y-189404761D01*
X181712380Y-189452380D02*
X181664761Y-189357142D01*
X181569523Y-189261904D01*
X181379047Y-189214285D01*
X181045714Y-189214285D01*
X180855238Y-189261904D01*
X180760000Y-189357142D01*
X180712380Y-189452380D01*
X180712380Y-189642857D01*
X180760000Y-189738095D01*
X180855238Y-189833333D01*
X181045714Y-189880952D01*
X181379047Y-189880952D01*
X181569523Y-189833333D01*
X181664761Y-189738095D01*
X181712380Y-189642857D01*
X181712380Y-189452380D01*
X181712380Y-190833333D02*
X181712380Y-190261904D01*
X181712380Y-190547619D02*
X180712380Y-190547619D01*
X180855238Y-190452380D01*
X180950476Y-190357142D01*
X180998095Y-190261904D01*
X181140952Y-191404761D02*
X181093333Y-191309523D01*
X181045714Y-191261904D01*
X180950476Y-191214285D01*
X180902857Y-191214285D01*
X180807619Y-191261904D01*
X180760000Y-191309523D01*
X180712380Y-191404761D01*
X180712380Y-191595238D01*
X180760000Y-191690476D01*
X180807619Y-191738095D01*
X180902857Y-191785714D01*
X180950476Y-191785714D01*
X181045714Y-191738095D01*
X181093333Y-191690476D01*
X181140952Y-191595238D01*
X181140952Y-191404761D01*
X181188571Y-191309523D01*
X181236190Y-191261904D01*
X181331428Y-191214285D01*
X181521904Y-191214285D01*
X181617142Y-191261904D01*
X181664761Y-191309523D01*
X181712380Y-191404761D01*
X181712380Y-191595238D01*
X181664761Y-191690476D01*
X181617142Y-191738095D01*
X181521904Y-191785714D01*
X181331428Y-191785714D01*
X181236190Y-191738095D01*
X181188571Y-191690476D01*
X181140952Y-191595238D01*
%TO.C,Q12*%
X116402619Y-256603571D02*
X116355000Y-256508333D01*
X116259761Y-256413095D01*
X116116904Y-256270238D01*
X116069285Y-256175000D01*
X116069285Y-256079761D01*
X116307380Y-256127380D02*
X116259761Y-256032142D01*
X116164523Y-255936904D01*
X115974047Y-255889285D01*
X115640714Y-255889285D01*
X115450238Y-255936904D01*
X115355000Y-256032142D01*
X115307380Y-256127380D01*
X115307380Y-256317857D01*
X115355000Y-256413095D01*
X115450238Y-256508333D01*
X115640714Y-256555952D01*
X115974047Y-256555952D01*
X116164523Y-256508333D01*
X116259761Y-256413095D01*
X116307380Y-256317857D01*
X116307380Y-256127380D01*
X116307380Y-257508333D02*
X116307380Y-256936904D01*
X116307380Y-257222619D02*
X115307380Y-257222619D01*
X115450238Y-257127380D01*
X115545476Y-257032142D01*
X115593095Y-256936904D01*
X115402619Y-257889285D02*
X115355000Y-257936904D01*
X115307380Y-258032142D01*
X115307380Y-258270238D01*
X115355000Y-258365476D01*
X115402619Y-258413095D01*
X115497857Y-258460714D01*
X115593095Y-258460714D01*
X115735952Y-258413095D01*
X116307380Y-257841666D01*
X116307380Y-258460714D01*
%TO.C,Q11*%
X116402619Y-242633571D02*
X116355000Y-242538333D01*
X116259761Y-242443095D01*
X116116904Y-242300238D01*
X116069285Y-242205000D01*
X116069285Y-242109761D01*
X116307380Y-242157380D02*
X116259761Y-242062142D01*
X116164523Y-241966904D01*
X115974047Y-241919285D01*
X115640714Y-241919285D01*
X115450238Y-241966904D01*
X115355000Y-242062142D01*
X115307380Y-242157380D01*
X115307380Y-242347857D01*
X115355000Y-242443095D01*
X115450238Y-242538333D01*
X115640714Y-242585952D01*
X115974047Y-242585952D01*
X116164523Y-242538333D01*
X116259761Y-242443095D01*
X116307380Y-242347857D01*
X116307380Y-242157380D01*
X116307380Y-243538333D02*
X116307380Y-242966904D01*
X116307380Y-243252619D02*
X115307380Y-243252619D01*
X115450238Y-243157380D01*
X115545476Y-243062142D01*
X115593095Y-242966904D01*
X116307380Y-244490714D02*
X116307380Y-243919285D01*
X116307380Y-244205000D02*
X115307380Y-244205000D01*
X115450238Y-244109761D01*
X115545476Y-244014523D01*
X115593095Y-243919285D01*
%TO.C,Q10*%
X116402619Y-228663571D02*
X116355000Y-228568333D01*
X116259761Y-228473095D01*
X116116904Y-228330238D01*
X116069285Y-228235000D01*
X116069285Y-228139761D01*
X116307380Y-228187380D02*
X116259761Y-228092142D01*
X116164523Y-227996904D01*
X115974047Y-227949285D01*
X115640714Y-227949285D01*
X115450238Y-227996904D01*
X115355000Y-228092142D01*
X115307380Y-228187380D01*
X115307380Y-228377857D01*
X115355000Y-228473095D01*
X115450238Y-228568333D01*
X115640714Y-228615952D01*
X115974047Y-228615952D01*
X116164523Y-228568333D01*
X116259761Y-228473095D01*
X116307380Y-228377857D01*
X116307380Y-228187380D01*
X116307380Y-229568333D02*
X116307380Y-228996904D01*
X116307380Y-229282619D02*
X115307380Y-229282619D01*
X115450238Y-229187380D01*
X115545476Y-229092142D01*
X115593095Y-228996904D01*
X115307380Y-230187380D02*
X115307380Y-230282619D01*
X115355000Y-230377857D01*
X115402619Y-230425476D01*
X115497857Y-230473095D01*
X115688333Y-230520714D01*
X115926428Y-230520714D01*
X116116904Y-230473095D01*
X116212142Y-230425476D01*
X116259761Y-230377857D01*
X116307380Y-230282619D01*
X116307380Y-230187380D01*
X116259761Y-230092142D01*
X116212142Y-230044523D01*
X116116904Y-229996904D01*
X115926428Y-229949285D01*
X115688333Y-229949285D01*
X115497857Y-229996904D01*
X115402619Y-230044523D01*
X115355000Y-230092142D01*
X115307380Y-230187380D01*
%TO.C,Q7*%
X194507619Y-264064761D02*
X194460000Y-263969523D01*
X194364761Y-263874285D01*
X194221904Y-263731428D01*
X194174285Y-263636190D01*
X194174285Y-263540952D01*
X194412380Y-263588571D02*
X194364761Y-263493333D01*
X194269523Y-263398095D01*
X194079047Y-263350476D01*
X193745714Y-263350476D01*
X193555238Y-263398095D01*
X193460000Y-263493333D01*
X193412380Y-263588571D01*
X193412380Y-263779047D01*
X193460000Y-263874285D01*
X193555238Y-263969523D01*
X193745714Y-264017142D01*
X194079047Y-264017142D01*
X194269523Y-263969523D01*
X194364761Y-263874285D01*
X194412380Y-263779047D01*
X194412380Y-263588571D01*
X193412380Y-264350476D02*
X193412380Y-265017142D01*
X194412380Y-264588571D01*
%TO.C,Q9*%
X194507619Y-204374761D02*
X194460000Y-204279523D01*
X194364761Y-204184285D01*
X194221904Y-204041428D01*
X194174285Y-203946190D01*
X194174285Y-203850952D01*
X194412380Y-203898571D02*
X194364761Y-203803333D01*
X194269523Y-203708095D01*
X194079047Y-203660476D01*
X193745714Y-203660476D01*
X193555238Y-203708095D01*
X193460000Y-203803333D01*
X193412380Y-203898571D01*
X193412380Y-204089047D01*
X193460000Y-204184285D01*
X193555238Y-204279523D01*
X193745714Y-204327142D01*
X194079047Y-204327142D01*
X194269523Y-204279523D01*
X194364761Y-204184285D01*
X194412380Y-204089047D01*
X194412380Y-203898571D01*
X194412380Y-204803333D02*
X194412380Y-204993809D01*
X194364761Y-205089047D01*
X194317142Y-205136666D01*
X194174285Y-205231904D01*
X193983809Y-205279523D01*
X193602857Y-205279523D01*
X193507619Y-205231904D01*
X193460000Y-205184285D01*
X193412380Y-205089047D01*
X193412380Y-204898571D01*
X193460000Y-204803333D01*
X193507619Y-204755714D01*
X193602857Y-204708095D01*
X193840952Y-204708095D01*
X193936190Y-204755714D01*
X193983809Y-204803333D01*
X194031428Y-204898571D01*
X194031428Y-205089047D01*
X193983809Y-205184285D01*
X193936190Y-205231904D01*
X193840952Y-205279523D01*
%TO.C,Q6*%
X181807619Y-264054761D02*
X181760000Y-263959523D01*
X181664761Y-263864285D01*
X181521904Y-263721428D01*
X181474285Y-263626190D01*
X181474285Y-263530952D01*
X181712380Y-263578571D02*
X181664761Y-263483333D01*
X181569523Y-263388095D01*
X181379047Y-263340476D01*
X181045714Y-263340476D01*
X180855238Y-263388095D01*
X180760000Y-263483333D01*
X180712380Y-263578571D01*
X180712380Y-263769047D01*
X180760000Y-263864285D01*
X180855238Y-263959523D01*
X181045714Y-264007142D01*
X181379047Y-264007142D01*
X181569523Y-263959523D01*
X181664761Y-263864285D01*
X181712380Y-263769047D01*
X181712380Y-263578571D01*
X180712380Y-264864285D02*
X180712380Y-264673809D01*
X180760000Y-264578571D01*
X180807619Y-264530952D01*
X180950476Y-264435714D01*
X181140952Y-264388095D01*
X181521904Y-264388095D01*
X181617142Y-264435714D01*
X181664761Y-264483333D01*
X181712380Y-264578571D01*
X181712380Y-264769047D01*
X181664761Y-264864285D01*
X181617142Y-264911904D01*
X181521904Y-264959523D01*
X181283809Y-264959523D01*
X181188571Y-264911904D01*
X181140952Y-264864285D01*
X181093333Y-264769047D01*
X181093333Y-264578571D01*
X181140952Y-264483333D01*
X181188571Y-264435714D01*
X181283809Y-264388095D01*
%TO.C,Q5*%
X181807619Y-176434761D02*
X181760000Y-176339523D01*
X181664761Y-176244285D01*
X181521904Y-176101428D01*
X181474285Y-176006190D01*
X181474285Y-175910952D01*
X181712380Y-175958571D02*
X181664761Y-175863333D01*
X181569523Y-175768095D01*
X181379047Y-175720476D01*
X181045714Y-175720476D01*
X180855238Y-175768095D01*
X180760000Y-175863333D01*
X180712380Y-175958571D01*
X180712380Y-176149047D01*
X180760000Y-176244285D01*
X180855238Y-176339523D01*
X181045714Y-176387142D01*
X181379047Y-176387142D01*
X181569523Y-176339523D01*
X181664761Y-176244285D01*
X181712380Y-176149047D01*
X181712380Y-175958571D01*
X180712380Y-177291904D02*
X180712380Y-176815714D01*
X181188571Y-176768095D01*
X181140952Y-176815714D01*
X181093333Y-176910952D01*
X181093333Y-177149047D01*
X181140952Y-177244285D01*
X181188571Y-177291904D01*
X181283809Y-177339523D01*
X181521904Y-177339523D01*
X181617142Y-177291904D01*
X181664761Y-177244285D01*
X181712380Y-177149047D01*
X181712380Y-176910952D01*
X181664761Y-176815714D01*
X181617142Y-176768095D01*
%TO.C,R7*%
X252261666Y-171692380D02*
X252595000Y-171216190D01*
X252833095Y-171692380D02*
X252833095Y-170692380D01*
X252452142Y-170692380D01*
X252356904Y-170740000D01*
X252309285Y-170787619D01*
X252261666Y-170882857D01*
X252261666Y-171025714D01*
X252309285Y-171120952D01*
X252356904Y-171168571D01*
X252452142Y-171216190D01*
X252833095Y-171216190D01*
X251928333Y-170692380D02*
X251261666Y-170692380D01*
X251690238Y-171692380D01*
%TO.C,Q8*%
X248380238Y-152027619D02*
X248475476Y-151980000D01*
X248570714Y-151884761D01*
X248713571Y-151741904D01*
X248808809Y-151694285D01*
X248904047Y-151694285D01*
X248856428Y-151932380D02*
X248951666Y-151884761D01*
X249046904Y-151789523D01*
X249094523Y-151599047D01*
X249094523Y-151265714D01*
X249046904Y-151075238D01*
X248951666Y-150980000D01*
X248856428Y-150932380D01*
X248665952Y-150932380D01*
X248570714Y-150980000D01*
X248475476Y-151075238D01*
X248427857Y-151265714D01*
X248427857Y-151599047D01*
X248475476Y-151789523D01*
X248570714Y-151884761D01*
X248665952Y-151932380D01*
X248856428Y-151932380D01*
X247856428Y-151360952D02*
X247951666Y-151313333D01*
X247999285Y-151265714D01*
X248046904Y-151170476D01*
X248046904Y-151122857D01*
X247999285Y-151027619D01*
X247951666Y-150980000D01*
X247856428Y-150932380D01*
X247665952Y-150932380D01*
X247570714Y-150980000D01*
X247523095Y-151027619D01*
X247475476Y-151122857D01*
X247475476Y-151170476D01*
X247523095Y-151265714D01*
X247570714Y-151313333D01*
X247665952Y-151360952D01*
X247856428Y-151360952D01*
X247951666Y-151408571D01*
X247999285Y-151456190D01*
X248046904Y-151551428D01*
X248046904Y-151741904D01*
X247999285Y-151837142D01*
X247951666Y-151884761D01*
X247856428Y-151932380D01*
X247665952Y-151932380D01*
X247570714Y-151884761D01*
X247523095Y-151837142D01*
X247475476Y-151741904D01*
X247475476Y-151551428D01*
X247523095Y-151456190D01*
X247570714Y-151408571D01*
X247665952Y-151360952D01*
D11*
%TO.C,Q26*%
X239515000Y-162540000D02*
X229245000Y-162540000D01*
X229245000Y-152420000D02*
X240915000Y-152420000D01*
%TO.C,Q13*%
X114915000Y-171460000D02*
X114915000Y-183130000D01*
X104795000Y-181730000D02*
X104795000Y-171460000D01*
%TO.C,Q15*%
X114950000Y-199400000D02*
X114950000Y-211070000D01*
X104830000Y-209670000D02*
X104830000Y-199400000D01*
%TO.C,Q14*%
X114915000Y-185430000D02*
X114915000Y-197100000D01*
X104795000Y-195700000D02*
X104795000Y-185430000D01*
%TO.C,Q25*%
X182900000Y-181730000D02*
X182900000Y-171460000D01*
X193020000Y-171460000D02*
X193020000Y-183130000D01*
%TO.C,Q24*%
X182900000Y-195700000D02*
X182900000Y-185430000D01*
X193020000Y-185430000D02*
X193020000Y-197100000D01*
%TO.C,Q23*%
X182900000Y-255390000D02*
X182900000Y-245120000D01*
X193020000Y-245120000D02*
X193020000Y-256790000D01*
%TO.C,Q22*%
X182900000Y-241420000D02*
X182900000Y-231150000D01*
X193020000Y-231150000D02*
X193020000Y-242820000D01*
%TO.C,Q21*%
X170200000Y-255380000D02*
X170200000Y-245110000D01*
X180320000Y-245110000D02*
X180320000Y-256780000D01*
%TO.C,Q20*%
X170200000Y-241410000D02*
X170200000Y-231140000D01*
X180320000Y-231140000D02*
X180320000Y-242810000D01*
%TO.C,Q19*%
X170200000Y-209670000D02*
X170200000Y-199400000D01*
X180320000Y-199400000D02*
X180320000Y-211070000D01*
%TO.C,Q18*%
X170200000Y-195700000D02*
X170200000Y-185430000D01*
X180320000Y-185430000D02*
X180320000Y-197100000D01*
%TO.C,Q12*%
X104795000Y-262375000D02*
X104795000Y-252105000D01*
X114915000Y-252105000D02*
X114915000Y-263775000D01*
%TO.C,Q11*%
X104795000Y-248405000D02*
X104795000Y-238135000D01*
X114915000Y-238135000D02*
X114915000Y-249805000D01*
%TO.C,Q10*%
X104795000Y-234435000D02*
X104795000Y-224165000D01*
X114915000Y-224165000D02*
X114915000Y-235835000D01*
%TO.C,Q7*%
X193020000Y-259090000D02*
X193020000Y-270760000D01*
X182900000Y-269360000D02*
X182900000Y-259090000D01*
%TO.C,Q9*%
X182900000Y-209670000D02*
X182900000Y-199400000D01*
X193020000Y-199400000D02*
X193020000Y-211070000D01*
%TO.C,Q6*%
X180320000Y-259080000D02*
X180320000Y-270750000D01*
X170200000Y-269350000D02*
X170200000Y-259080000D01*
%TO.C,Q5*%
X170200000Y-181730000D02*
X170200000Y-171460000D01*
X180320000Y-171460000D02*
X180320000Y-183130000D01*
%TO.C,R7*%
X248208748Y-170300000D02*
X255981252Y-170300000D01*
X248208748Y-164980000D02*
X255981252Y-164980000D01*
%TO.C,Q8*%
X243215000Y-152420000D02*
X254885000Y-152420000D01*
X253485000Y-162540000D02*
X243215000Y-162540000D01*
%TD*%
M02*
