%TF.GenerationSoftware,KiCad,Pcbnew,(6.0.0-rc1-57-gf03efa1cba)*%
%TF.CreationDate,2021-11-19T01:11:21-08:00*%
%TF.ProjectId,OpenCharger,4f70656e-4368-4617-9267-65722e6b6963,rev?*%
%TF.SameCoordinates,Original*%
%TF.FileFunction,Paste,Top*%
%TF.FilePolarity,Positive*%
%FSLAX46Y46*%
G04 Gerber Fmt 4.6, Leading zero omitted, Abs format (unit mm)*
G04 Created by KiCad (PCBNEW (6.0.0-rc1-57-gf03efa1cba)) date 2021-11-19 01:11:21*
%MOMM*%
%LPD*%
G01*
G04 APERTURE LIST*
G04 Aperture macros list*
%AMRoundRect*
0 Rectangle with rounded corners*
0 $1 Rounding radius*
0 $2 $3 $4 $5 $6 $7 $8 $9 X,Y pos of 4 corners*
0 Add a 4 corners polygon primitive as box body*
4,1,4,$2,$3,$4,$5,$6,$7,$8,$9,$2,$3,0*
0 Add four circle primitives for the rounded corners*
1,1,$1+$1,$2,$3*
1,1,$1+$1,$4,$5*
1,1,$1+$1,$6,$7*
1,1,$1+$1,$8,$9*
0 Add four rect primitives between the rounded corners*
20,1,$1+$1,$2,$3,$4,$5,0*
20,1,$1+$1,$4,$5,$6,$7,0*
20,1,$1+$1,$6,$7,$8,$9,0*
20,1,$1+$1,$8,$9,$2,$3,0*%
G04 Aperture macros list end*
%ADD10R,0.700000X2.600000*%
%ADD11C,1.000000*%
%ADD12RoundRect,0.100000X-0.637500X-0.100000X0.637500X-0.100000X0.637500X0.100000X-0.637500X0.100000X0*%
%ADD13R,3.200000X0.400000*%
G04 APERTURE END LIST*
D10*
%TO.C,Q3*%
X116415000Y-209720000D03*
D11*
X118815000Y-204540000D03*
X123615000Y-204540000D03*
X121215000Y-202140000D03*
X116415000Y-203340000D03*
X121215000Y-198540000D03*
X120015000Y-200940000D03*
X121215000Y-199740000D03*
X117615000Y-204540000D03*
D10*
X118815000Y-209720000D03*
D11*
X122415000Y-202140000D03*
X122415000Y-200940000D03*
X120015000Y-204540000D03*
X118815000Y-200940000D03*
X117615000Y-200940000D03*
X117615000Y-199740000D03*
X120015000Y-199740000D03*
D10*
X124815000Y-209720000D03*
D11*
X124815000Y-198540000D03*
X123615000Y-203340000D03*
X117615000Y-203340000D03*
X124815000Y-203340000D03*
X116415000Y-198540000D03*
X122415000Y-198540000D03*
X120015000Y-203340000D03*
X118815000Y-202140000D03*
X123615000Y-199740000D03*
X121215000Y-204540000D03*
X118815000Y-203340000D03*
X122415000Y-203340000D03*
D10*
X123615000Y-209720000D03*
D11*
X120015000Y-198540000D03*
D10*
X117615000Y-209720000D03*
D11*
X123615000Y-202140000D03*
X116415000Y-204540000D03*
X121215000Y-200940000D03*
X124815000Y-204540000D03*
X122415000Y-199740000D03*
X117615000Y-198540000D03*
X123615000Y-198540000D03*
X117615000Y-202140000D03*
D10*
X122415000Y-209720000D03*
D11*
X120015000Y-202140000D03*
X123615000Y-200940000D03*
D10*
X121215000Y-209720000D03*
X120015000Y-209720000D03*
D11*
X121215000Y-203340000D03*
X118815000Y-198540000D03*
X122415000Y-204540000D03*
X118815000Y-199740000D03*
%TD*%
%TO.C,Q1*%
X124850000Y-170600000D03*
X124850000Y-175400000D03*
X124850000Y-176600000D03*
X123650000Y-170600000D03*
X123650000Y-171800000D03*
X123650000Y-173000000D03*
X123650000Y-174200000D03*
X123650000Y-175400000D03*
X123650000Y-176600000D03*
X122450000Y-170600000D03*
X122450000Y-171800000D03*
X122450000Y-173000000D03*
X122450000Y-174200000D03*
X122450000Y-175400000D03*
X122450000Y-176600000D03*
X121250000Y-170600000D03*
X121250000Y-171800000D03*
X121250000Y-173000000D03*
X121250000Y-174200000D03*
X121250000Y-175400000D03*
X121250000Y-176600000D03*
X120050000Y-170600000D03*
X120050000Y-171800000D03*
X120050000Y-173000000D03*
X120050000Y-174200000D03*
X120050000Y-175400000D03*
X120050000Y-176600000D03*
X118850000Y-170600000D03*
X118850000Y-171800000D03*
X118850000Y-173000000D03*
X118850000Y-174200000D03*
X118850000Y-175400000D03*
X118850000Y-176600000D03*
X117650000Y-170600000D03*
X117650000Y-171800000D03*
X117650000Y-173000000D03*
X117650000Y-174200000D03*
X117650000Y-175400000D03*
X117650000Y-176600000D03*
X116450000Y-170600000D03*
X116450000Y-175400000D03*
X116450000Y-176600000D03*
D10*
X116450000Y-181780000D03*
X117650000Y-181780000D03*
X118850000Y-181780000D03*
X120050000Y-181780000D03*
X121250000Y-181780000D03*
X122450000Y-181780000D03*
X123650000Y-181780000D03*
X124850000Y-181780000D03*
%TD*%
D11*
%TO.C,Q2*%
X124815000Y-184570000D03*
X124815000Y-189370000D03*
X124815000Y-190570000D03*
X123615000Y-184570000D03*
X123615000Y-185770000D03*
X123615000Y-186970000D03*
X123615000Y-188170000D03*
X123615000Y-189370000D03*
X123615000Y-190570000D03*
X122415000Y-184570000D03*
X122415000Y-185770000D03*
X122415000Y-186970000D03*
X122415000Y-188170000D03*
X122415000Y-189370000D03*
X122415000Y-190570000D03*
X121215000Y-184570000D03*
X121215000Y-185770000D03*
X121215000Y-186970000D03*
X121215000Y-188170000D03*
X121215000Y-189370000D03*
X121215000Y-190570000D03*
X120015000Y-184570000D03*
X120015000Y-185770000D03*
X120015000Y-186970000D03*
X120015000Y-188170000D03*
X120015000Y-189370000D03*
X120015000Y-190570000D03*
X118815000Y-184570000D03*
X118815000Y-185770000D03*
X118815000Y-186970000D03*
X118815000Y-188170000D03*
X118815000Y-189370000D03*
X118815000Y-190570000D03*
X117615000Y-184570000D03*
X117615000Y-185770000D03*
X117615000Y-186970000D03*
X117615000Y-188170000D03*
X117615000Y-189370000D03*
X117615000Y-190570000D03*
X116415000Y-184570000D03*
X116415000Y-189370000D03*
X116415000Y-190570000D03*
D10*
X116415000Y-195750000D03*
X117615000Y-195750000D03*
X118815000Y-195750000D03*
X120015000Y-195750000D03*
X121215000Y-195750000D03*
X122415000Y-195750000D03*
X123615000Y-195750000D03*
X124815000Y-195750000D03*
%TD*%
D11*
%TO.C,Q17*%
X124899000Y-250965000D03*
X124899000Y-255765000D03*
X124899000Y-256965000D03*
X123699000Y-250965000D03*
X123699000Y-252165000D03*
X123699000Y-253365000D03*
X123699000Y-254565000D03*
X123699000Y-255765000D03*
X123699000Y-256965000D03*
X122499000Y-250965000D03*
X122499000Y-252165000D03*
X122499000Y-253365000D03*
X122499000Y-254565000D03*
X122499000Y-255765000D03*
X122499000Y-256965000D03*
X121299000Y-250965000D03*
X121299000Y-252165000D03*
X121299000Y-253365000D03*
X121299000Y-254565000D03*
X121299000Y-255765000D03*
X121299000Y-256965000D03*
X120099000Y-250965000D03*
X120099000Y-252165000D03*
X120099000Y-253365000D03*
X120099000Y-254565000D03*
X120099000Y-255765000D03*
X120099000Y-256965000D03*
X118899000Y-250965000D03*
X118899000Y-252165000D03*
X118899000Y-253365000D03*
X118899000Y-254565000D03*
X118899000Y-255765000D03*
X118899000Y-256965000D03*
X117699000Y-250965000D03*
X117699000Y-252165000D03*
X117699000Y-253365000D03*
X117699000Y-254565000D03*
X117699000Y-255765000D03*
X117699000Y-256965000D03*
X116499000Y-250965000D03*
X116499000Y-255765000D03*
X116499000Y-256965000D03*
D10*
X116499000Y-262145000D03*
X117699000Y-262145000D03*
X118899000Y-262145000D03*
X120099000Y-262145000D03*
X121299000Y-262145000D03*
X122499000Y-262145000D03*
X123699000Y-262145000D03*
X124899000Y-262145000D03*
%TD*%
D11*
%TO.C,Q16*%
X124899000Y-237135000D03*
X124899000Y-241935000D03*
X124899000Y-243135000D03*
X123699000Y-237135000D03*
X123699000Y-238335000D03*
X123699000Y-239535000D03*
X123699000Y-240735000D03*
X123699000Y-241935000D03*
X123699000Y-243135000D03*
X122499000Y-237135000D03*
X122499000Y-238335000D03*
X122499000Y-239535000D03*
X122499000Y-240735000D03*
X122499000Y-241935000D03*
X122499000Y-243135000D03*
X121299000Y-237135000D03*
X121299000Y-238335000D03*
X121299000Y-239535000D03*
X121299000Y-240735000D03*
X121299000Y-241935000D03*
X121299000Y-243135000D03*
X120099000Y-237135000D03*
X120099000Y-238335000D03*
X120099000Y-239535000D03*
X120099000Y-240735000D03*
X120099000Y-241935000D03*
X120099000Y-243135000D03*
X118899000Y-237135000D03*
X118899000Y-238335000D03*
X118899000Y-239535000D03*
X118899000Y-240735000D03*
X118899000Y-241935000D03*
X118899000Y-243135000D03*
X117699000Y-237135000D03*
X117699000Y-238335000D03*
X117699000Y-239535000D03*
X117699000Y-240735000D03*
X117699000Y-241935000D03*
X117699000Y-243135000D03*
X116499000Y-237135000D03*
X116499000Y-241935000D03*
X116499000Y-243135000D03*
D10*
X116499000Y-248315000D03*
X117699000Y-248315000D03*
X118899000Y-248315000D03*
X120099000Y-248315000D03*
X121299000Y-248315000D03*
X122499000Y-248315000D03*
X123699000Y-248315000D03*
X124899000Y-248315000D03*
%TD*%
D12*
%TO.C,U2*%
X246057500Y-268220000D03*
X246057500Y-268870000D03*
X246057500Y-269520000D03*
X246057500Y-270170000D03*
X246057500Y-270820000D03*
X246057500Y-271470000D03*
X246057500Y-272120000D03*
X246057500Y-272770000D03*
X246057500Y-273420000D03*
X246057500Y-274070000D03*
X251782500Y-274070000D03*
X251782500Y-273420000D03*
X251782500Y-272770000D03*
X251782500Y-272120000D03*
X251782500Y-271470000D03*
X251782500Y-270820000D03*
X251782500Y-270170000D03*
X251782500Y-269520000D03*
X251782500Y-268870000D03*
X251782500Y-268220000D03*
%TD*%
D13*
%TO.C,Y1*%
X242570000Y-269945000D03*
X242570000Y-271145000D03*
X242570000Y-272345000D03*
%TD*%
D11*
%TO.C,Q4*%
X123664000Y-228105000D03*
X117664000Y-229305000D03*
X120064000Y-226905000D03*
X118864000Y-224505000D03*
X117664000Y-226905000D03*
X120064000Y-224505000D03*
D10*
X116464000Y-234485000D03*
D11*
X116464000Y-228105000D03*
D10*
X118864000Y-234485000D03*
D11*
X117664000Y-223305000D03*
X118864000Y-228105000D03*
D10*
X124864000Y-234485000D03*
D11*
X124864000Y-228105000D03*
X120064000Y-225705000D03*
X123664000Y-224505000D03*
X121264000Y-224505000D03*
X116464000Y-223305000D03*
D10*
X120064000Y-234485000D03*
D11*
X120064000Y-229305000D03*
X121264000Y-229305000D03*
D10*
X122464000Y-234485000D03*
D11*
X124864000Y-229305000D03*
D10*
X117664000Y-234485000D03*
D11*
X121264000Y-228105000D03*
X123664000Y-225705000D03*
D10*
X123664000Y-234485000D03*
X121264000Y-234485000D03*
D11*
X116464000Y-229305000D03*
X121264000Y-223305000D03*
X117664000Y-224505000D03*
X123664000Y-229305000D03*
X122464000Y-229305000D03*
X118864000Y-225705000D03*
X122464000Y-224505000D03*
X118864000Y-223305000D03*
X117664000Y-228105000D03*
X122464000Y-223305000D03*
X124864000Y-223305000D03*
X118864000Y-226905000D03*
X120064000Y-228105000D03*
X123664000Y-226905000D03*
X122464000Y-226905000D03*
X121264000Y-225705000D03*
X122464000Y-225705000D03*
X120064000Y-223305000D03*
X117664000Y-225705000D03*
X123664000Y-223305000D03*
X122464000Y-228105000D03*
X118864000Y-229305000D03*
X121264000Y-226905000D03*
%TD*%
M02*
