%TF.GenerationSoftware,KiCad,Pcbnew,(6.0.0-rc1-57-gf03efa1cba)*%
%TF.CreationDate,2021-11-19T01:11:21-08:00*%
%TF.ProjectId,OpenCharger,4f70656e-4368-4617-9267-65722e6b6963,rev?*%
%TF.SameCoordinates,Original*%
%TF.FileFunction,Soldermask,Top*%
%TF.FilePolarity,Negative*%
%FSLAX46Y46*%
G04 Gerber Fmt 4.6, Leading zero omitted, Abs format (unit mm)*
G04 Created by KiCad (PCBNEW (6.0.0-rc1-57-gf03efa1cba)) date 2021-11-19 01:11:21*
%MOMM*%
%LPD*%
G01*
G04 APERTURE LIST*
G04 Aperture macros list*
%AMRoundRect*
0 Rectangle with rounded corners*
0 $1 Rounding radius*
0 $2 $3 $4 $5 $6 $7 $8 $9 X,Y pos of 4 corners*
0 Add a 4 corners polygon primitive as box body*
4,1,4,$2,$3,$4,$5,$6,$7,$8,$9,$2,$3,0*
0 Add four circle primitives for the rounded corners*
1,1,$1+$1,$2,$3*
1,1,$1+$1,$4,$5*
1,1,$1+$1,$6,$7*
1,1,$1+$1,$8,$9*
0 Add four rect primitives between the rounded corners*
20,1,$1+$1,$2,$3,$4,$5,0*
20,1,$1+$1,$4,$5,$6,$7,0*
20,1,$1+$1,$6,$7,$8,$9,0*
20,1,$1+$1,$8,$9,$2,$3,0*%
%AMFreePoly0*
4,1,13,2.850000,-5.050000,1.450000,-5.050000,1.450000,-4.350000,-1.450000,-4.350000,-1.450000,-4.850000,-5.150000,-4.850000,-5.150000,4.850000,-1.450000,4.850000,-1.450000,4.350000,1.450000,4.350000,1.450000,5.050000,2.850000,5.050000,2.850000,-5.050000,2.850000,-5.050000,$1*%
%AMFreePoly1*
4,1,29,0.400000,-4.000000,-2.400000,-4.000000,-2.400000,-3.200000,-0.400000,-3.200000,-0.400000,-2.800000,-2.400000,-2.800000,-2.400000,-2.000000,-0.400000,-2.000000,-0.400000,-1.600000,-2.400000,-1.600000,-2.400000,-0.800000,-0.400000,-0.800000,-0.400000,-0.400000,-2.400000,-0.400000,-2.400000,0.400000,-0.400000,0.400000,-0.400000,0.800000,-2.400000,0.800000,-2.400000,1.600000,-0.400000,1.600000,
-0.400000,2.000000,-2.400000,2.000000,-2.400000,2.800000,-0.400000,2.800000,-0.400000,3.200000,-2.400000,3.200000,-2.400000,4.000000,0.400000,4.000000,0.400000,-4.000000,0.400000,-4.000000,$1*%
G04 Aperture macros list end*
%ADD10C,16.000000*%
%ADD11R,1.700000X1.700000*%
%ADD12O,1.700000X1.700000*%
%ADD13C,2.400000*%
%ADD14R,2.400000X2.400000*%
%ADD15FreePoly0,90.000000*%
%ADD16FreePoly1,90.000000*%
%ADD17R,0.800000X2.800000*%
%ADD18C,10.160000*%
%ADD19RoundRect,0.100000X-0.637500X-0.100000X0.637500X-0.100000X0.637500X0.100000X-0.637500X0.100000X0*%
%ADD20R,3.200000X0.400000*%
G04 APERTURE END LIST*
D10*
%TO.C,L1*%
X165558000Y-220218000D03*
X197358000Y-220218000D03*
%TD*%
D11*
%TO.C,J5*%
X258445000Y-252100000D03*
D12*
X258445000Y-249560000D03*
%TD*%
D13*
%TO.C,C16*%
X217627755Y-179705000D03*
D14*
X225127755Y-179705000D03*
%TD*%
%TO.C,C15*%
X225127755Y-248285000D03*
D13*
X217627755Y-248285000D03*
%TD*%
D14*
%TO.C,C14*%
X225127755Y-265430000D03*
D13*
X217627755Y-265430000D03*
%TD*%
D14*
%TO.C,C13*%
X138035001Y-248285000D03*
D13*
X145535001Y-248285000D03*
%TD*%
D14*
%TO.C,C12*%
X138092246Y-265430000D03*
D13*
X145592246Y-265430000D03*
%TD*%
D14*
%TO.C,C9*%
X138092246Y-213995000D03*
D13*
X145592246Y-213995000D03*
%TD*%
D14*
%TO.C,C10*%
X225127755Y-196850000D03*
D13*
X217627755Y-196850000D03*
%TD*%
D14*
%TO.C,C8*%
X225127756Y-231140000D03*
D13*
X217627756Y-231140000D03*
%TD*%
D14*
%TO.C,C6*%
X225127755Y-213995000D03*
D13*
X217627755Y-213995000D03*
%TD*%
D14*
%TO.C,C5*%
X138092246Y-179705000D03*
D13*
X145592246Y-179705000D03*
%TD*%
D14*
%TO.C,C4*%
X138092247Y-231140000D03*
D13*
X145592247Y-231140000D03*
%TD*%
D14*
%TO.C,C3*%
X138092246Y-196850000D03*
D13*
X145592246Y-196850000D03*
%TD*%
D11*
%TO.C,J2*%
X71755000Y-226075000D03*
D12*
X71755000Y-228615000D03*
X71755000Y-231155000D03*
%TD*%
D15*
%TO.C,Q3*%
X120615000Y-200670000D03*
D16*
X121215000Y-208720000D03*
D17*
X116415000Y-209720000D03*
%TD*%
D15*
%TO.C,Q1*%
X120650000Y-172730000D03*
D17*
X116450000Y-181780000D03*
D16*
X121250000Y-180780000D03*
%TD*%
D15*
%TO.C,Q2*%
X120615000Y-186700000D03*
D17*
X116415000Y-195750000D03*
D16*
X121215000Y-194750000D03*
%TD*%
D18*
%TO.C,J6*%
X78740000Y-202184000D03*
%TD*%
D15*
%TO.C,Q17*%
X120699000Y-253095000D03*
D17*
X116499000Y-262145000D03*
D16*
X121299000Y-261145000D03*
%TD*%
D15*
%TO.C,Q16*%
X120699000Y-239265000D03*
D17*
X116499000Y-248315000D03*
D16*
X121299000Y-247315000D03*
%TD*%
D19*
%TO.C,U2*%
X246057500Y-268220000D03*
X246057500Y-268870000D03*
X246057500Y-269520000D03*
X246057500Y-270170000D03*
X246057500Y-270820000D03*
X246057500Y-271470000D03*
X246057500Y-272120000D03*
X246057500Y-272770000D03*
X246057500Y-273420000D03*
X246057500Y-274070000D03*
X251782500Y-274070000D03*
X251782500Y-273420000D03*
X251782500Y-272770000D03*
X251782500Y-272120000D03*
X251782500Y-271470000D03*
X251782500Y-270820000D03*
X251782500Y-270170000D03*
X251782500Y-269520000D03*
X251782500Y-268870000D03*
X251782500Y-268220000D03*
%TD*%
D20*
%TO.C,Y1*%
X242570000Y-269945000D03*
X242570000Y-271145000D03*
X242570000Y-272345000D03*
%TD*%
D18*
%TO.C,J3*%
X254000000Y-178675000D03*
X254000000Y-208645000D03*
%TD*%
D15*
%TO.C,Q4*%
X120664000Y-225435000D03*
D16*
X121264000Y-233485000D03*
D17*
X116464000Y-234485000D03*
%TD*%
M02*
