%TF.GenerationSoftware,KiCad,Pcbnew,(6.0.0-rc1-57-gf03efa1cba)*%
%TF.CreationDate,2021-11-19T01:11:21-08:00*%
%TF.ProjectId,OpenCharger,4f70656e-4368-4617-9267-65722e6b6963,rev?*%
%TF.SameCoordinates,Original*%
%TF.FileFunction,Soldermask,Bot*%
%TF.FilePolarity,Negative*%
%FSLAX46Y46*%
G04 Gerber Fmt 4.6, Leading zero omitted, Abs format (unit mm)*
G04 Created by KiCad (PCBNEW (6.0.0-rc1-57-gf03efa1cba)) date 2021-11-19 01:11:21*
%MOMM*%
%LPD*%
G01*
G04 APERTURE LIST*
G04 Aperture macros list*
%AMRoundRect*
0 Rectangle with rounded corners*
0 $1 Rounding radius*
0 $2 $3 $4 $5 $6 $7 $8 $9 X,Y pos of 4 corners*
0 Add a 4 corners polygon primitive as box body*
4,1,4,$2,$3,$4,$5,$6,$7,$8,$9,$2,$3,0*
0 Add four circle primitives for the rounded corners*
1,1,$1+$1,$2,$3*
1,1,$1+$1,$4,$5*
1,1,$1+$1,$6,$7*
1,1,$1+$1,$8,$9*
0 Add four rect primitives between the rounded corners*
20,1,$1+$1,$2,$3,$4,$5,0*
20,1,$1+$1,$4,$5,$6,$7,0*
20,1,$1+$1,$6,$7,$8,$9,0*
20,1,$1+$1,$8,$9,$2,$3,0*%
%AMFreePoly0*
4,1,29,0.400000,-4.000000,-2.400000,-4.000000,-2.400000,-3.200000,-0.400000,-3.200000,-0.400000,-2.800000,-2.400000,-2.800000,-2.400000,-2.000000,-0.400000,-2.000000,-0.400000,-1.600000,-2.400000,-1.600000,-2.400000,-0.800000,-0.400000,-0.800000,-0.400000,-0.400000,-2.400000,-0.400000,-2.400000,0.400000,-0.400000,0.400000,-0.400000,0.800000,-2.400000,0.800000,-2.400000,1.600000,-0.400000,1.600000,
-0.400000,2.000000,-2.400000,2.000000,-2.400000,2.800000,-0.400000,2.800000,-0.400000,3.200000,-2.400000,3.200000,-2.400000,4.000000,0.400000,4.000000,0.400000,-4.000000,0.400000,-4.000000,$1*%
%AMFreePoly1*
4,1,13,2.850000,-5.050000,1.450000,-5.050000,1.450000,-4.350000,-1.450000,-4.350000,-1.450000,-4.850000,-5.150000,-4.850000,-5.150000,4.850000,-1.450000,4.850000,-1.450000,4.350000,1.450000,4.350000,1.450000,5.050000,2.850000,5.050000,2.850000,-5.050000,2.850000,-5.050000,$1*%
G04 Aperture macros list end*
%ADD10C,16.000000*%
%ADD11R,1.700000X1.700000*%
%ADD12O,1.700000X1.700000*%
%ADD13C,2.400000*%
%ADD14R,2.400000X2.400000*%
%ADD15FreePoly0,180.000000*%
%ADD16R,2.800000X0.800000*%
%ADD17FreePoly1,180.000000*%
%ADD18FreePoly1,90.000000*%
%ADD19R,0.800000X2.800000*%
%ADD20FreePoly0,90.000000*%
%ADD21C,10.160000*%
%ADD22RoundRect,0.250001X-0.487499X-2.399999X0.487499X-2.399999X0.487499X2.399999X-0.487499X2.399999X0*%
G04 APERTURE END LIST*
D10*
%TO.C,L1*%
X165558000Y-220218000D03*
X197358000Y-220218000D03*
%TD*%
D11*
%TO.C,J5*%
X258445000Y-252100000D03*
D12*
X258445000Y-249560000D03*
%TD*%
D13*
%TO.C,C16*%
X217627755Y-179705000D03*
D14*
X225127755Y-179705000D03*
%TD*%
%TO.C,C15*%
X225127755Y-248285000D03*
D13*
X217627755Y-248285000D03*
%TD*%
D14*
%TO.C,C14*%
X225127755Y-265430000D03*
D13*
X217627755Y-265430000D03*
%TD*%
D14*
%TO.C,C13*%
X138035001Y-248285000D03*
D13*
X145535001Y-248285000D03*
%TD*%
D14*
%TO.C,C12*%
X138092246Y-265430000D03*
D13*
X145592246Y-265430000D03*
%TD*%
D14*
%TO.C,C9*%
X138092246Y-213995000D03*
D13*
X145592246Y-213995000D03*
%TD*%
D14*
%TO.C,C10*%
X225127755Y-196850000D03*
D13*
X217627755Y-196850000D03*
%TD*%
D14*
%TO.C,C8*%
X225127756Y-231140000D03*
D13*
X217627756Y-231140000D03*
%TD*%
D14*
%TO.C,C6*%
X225127755Y-213995000D03*
D13*
X217627755Y-213995000D03*
%TD*%
D14*
%TO.C,C5*%
X138092246Y-179705000D03*
D13*
X145592246Y-179705000D03*
%TD*%
D14*
%TO.C,C4*%
X138092247Y-231140000D03*
D13*
X145592247Y-231140000D03*
%TD*%
D14*
%TO.C,C3*%
X138092246Y-196850000D03*
D13*
X145592246Y-196850000D03*
%TD*%
D11*
%TO.C,J2*%
X71755000Y-226075000D03*
D12*
X71755000Y-228615000D03*
X71755000Y-231155000D03*
%TD*%
D15*
%TO.C,Q26*%
X238565000Y-158080000D03*
D16*
X239565000Y-153280000D03*
D17*
X230515000Y-157480000D03*
%TD*%
D18*
%TO.C,Q13*%
X109855000Y-172730000D03*
D19*
X114055000Y-181780000D03*
D20*
X109255000Y-180780000D03*
%TD*%
D18*
%TO.C,Q15*%
X109890000Y-200670000D03*
D19*
X114090000Y-209720000D03*
D20*
X109290000Y-208720000D03*
%TD*%
D18*
%TO.C,Q14*%
X109855000Y-186700000D03*
D19*
X114055000Y-195750000D03*
D20*
X109255000Y-194750000D03*
%TD*%
D21*
%TO.C,J6*%
X78740000Y-202184000D03*
%TD*%
D20*
%TO.C,Q25*%
X187360000Y-180780000D03*
D19*
X192160000Y-181780000D03*
D18*
X187960000Y-172730000D03*
%TD*%
D20*
%TO.C,Q24*%
X187360000Y-194750000D03*
D19*
X192160000Y-195750000D03*
D18*
X187960000Y-186700000D03*
%TD*%
D20*
%TO.C,Q23*%
X187360000Y-254440000D03*
D19*
X192160000Y-255440000D03*
D18*
X187960000Y-246390000D03*
%TD*%
D20*
%TO.C,Q22*%
X187360000Y-240470000D03*
D19*
X192160000Y-241470000D03*
D18*
X187960000Y-232420000D03*
%TD*%
D20*
%TO.C,Q21*%
X174660000Y-254430000D03*
D19*
X179460000Y-255430000D03*
D18*
X175260000Y-246380000D03*
%TD*%
D20*
%TO.C,Q20*%
X174660000Y-240460000D03*
D19*
X179460000Y-241460000D03*
D18*
X175260000Y-232410000D03*
%TD*%
D20*
%TO.C,Q19*%
X174660000Y-208720000D03*
D19*
X179460000Y-209720000D03*
D18*
X175260000Y-200670000D03*
%TD*%
D20*
%TO.C,Q18*%
X174660000Y-194750000D03*
D19*
X179460000Y-195750000D03*
D18*
X175260000Y-186700000D03*
%TD*%
D20*
%TO.C,Q12*%
X109255000Y-261425000D03*
D19*
X114055000Y-262425000D03*
D18*
X109855000Y-253375000D03*
%TD*%
D20*
%TO.C,Q11*%
X109255000Y-247455000D03*
D19*
X114055000Y-248455000D03*
D18*
X109855000Y-239405000D03*
%TD*%
D20*
%TO.C,Q10*%
X109255000Y-233485000D03*
D19*
X114055000Y-234485000D03*
D18*
X109855000Y-225435000D03*
%TD*%
D21*
%TO.C,J3*%
X254000000Y-178675000D03*
X254000000Y-208645000D03*
%TD*%
D19*
%TO.C,Q7*%
X192160000Y-269410000D03*
D20*
X187360000Y-268410000D03*
D18*
X187960000Y-260360000D03*
%TD*%
D19*
%TO.C,Q9*%
X192160000Y-209720000D03*
D20*
X187360000Y-208720000D03*
D18*
X187960000Y-200670000D03*
%TD*%
D19*
%TO.C,Q6*%
X179460000Y-269400000D03*
D20*
X174660000Y-268400000D03*
D18*
X175260000Y-260350000D03*
%TD*%
D19*
%TO.C,Q5*%
X179460000Y-181780000D03*
D20*
X174660000Y-180780000D03*
D18*
X175260000Y-172730000D03*
%TD*%
D22*
%TO.C,R7*%
X247282500Y-167640000D03*
X256907500Y-167640000D03*
%TD*%
D16*
%TO.C,Q8*%
X253535000Y-153280000D03*
D15*
X252535000Y-158080000D03*
D17*
X244485000Y-157480000D03*
%TD*%
M02*
