%TF.GenerationSoftware,KiCad,Pcbnew,(6.0.0-rc1-57-gf03efa1cba)*%
%TF.CreationDate,2021-11-19T01:11:21-08:00*%
%TF.ProjectId,OpenCharger,4f70656e-4368-4617-9267-65722e6b6963,rev?*%
%TF.SameCoordinates,Original*%
%TF.FileFunction,Paste,Bot*%
%TF.FilePolarity,Positive*%
%FSLAX46Y46*%
G04 Gerber Fmt 4.6, Leading zero omitted, Abs format (unit mm)*
G04 Created by KiCad (PCBNEW (6.0.0-rc1-57-gf03efa1cba)) date 2021-11-19 01:11:21*
%MOMM*%
%LPD*%
G01*
G04 APERTURE LIST*
G04 Aperture macros list*
%AMRoundRect*
0 Rectangle with rounded corners*
0 $1 Rounding radius*
0 $2 $3 $4 $5 $6 $7 $8 $9 X,Y pos of 4 corners*
0 Add a 4 corners polygon primitive as box body*
4,1,4,$2,$3,$4,$5,$6,$7,$8,$9,$2,$3,0*
0 Add four circle primitives for the rounded corners*
1,1,$1+$1,$2,$3*
1,1,$1+$1,$4,$5*
1,1,$1+$1,$6,$7*
1,1,$1+$1,$8,$9*
0 Add four rect primitives between the rounded corners*
20,1,$1+$1,$2,$3,$4,$5,0*
20,1,$1+$1,$4,$5,$6,$7,0*
20,1,$1+$1,$6,$7,$8,$9,0*
20,1,$1+$1,$8,$9,$2,$3,0*%
G04 Aperture macros list end*
%ADD10R,2.600000X0.700000*%
%ADD11C,1.000000*%
%ADD12R,0.700000X2.600000*%
%ADD13RoundRect,0.250001X-0.487499X-2.399999X0.487499X-2.399999X0.487499X2.399999X-0.487499X2.399999X0*%
G04 APERTURE END LIST*
D10*
%TO.C,Q26*%
X239565000Y-161680000D03*
X239565000Y-160480000D03*
X239565000Y-159280000D03*
X239565000Y-158080000D03*
X239565000Y-156880000D03*
X239565000Y-155680000D03*
X239565000Y-154480000D03*
X239565000Y-153280000D03*
D11*
X234385000Y-153280000D03*
X233185000Y-153280000D03*
X228385000Y-153280000D03*
X234385000Y-154480000D03*
X233185000Y-154480000D03*
X231985000Y-154480000D03*
X230785000Y-154480000D03*
X229585000Y-154480000D03*
X228385000Y-154480000D03*
X234385000Y-155680000D03*
X233185000Y-155680000D03*
X231985000Y-155680000D03*
X230785000Y-155680000D03*
X229585000Y-155680000D03*
X228385000Y-155680000D03*
X234385000Y-156880000D03*
X233185000Y-156880000D03*
X231985000Y-156880000D03*
X230785000Y-156880000D03*
X229585000Y-156880000D03*
X228385000Y-156880000D03*
X234385000Y-158080000D03*
X233185000Y-158080000D03*
X231985000Y-158080000D03*
X230785000Y-158080000D03*
X229585000Y-158080000D03*
X228385000Y-158080000D03*
X234385000Y-159280000D03*
X233185000Y-159280000D03*
X231985000Y-159280000D03*
X230785000Y-159280000D03*
X229585000Y-159280000D03*
X228385000Y-159280000D03*
X234385000Y-160480000D03*
X233185000Y-160480000D03*
X231985000Y-160480000D03*
X230785000Y-160480000D03*
X229585000Y-160480000D03*
X228385000Y-160480000D03*
X234385000Y-161680000D03*
X233185000Y-161680000D03*
X228385000Y-161680000D03*
%TD*%
%TO.C,Q13*%
X105655000Y-170600000D03*
X105655000Y-175400000D03*
X105655000Y-176600000D03*
X106855000Y-170600000D03*
X106855000Y-171800000D03*
X106855000Y-173000000D03*
X106855000Y-174200000D03*
X106855000Y-175400000D03*
X106855000Y-176600000D03*
X108055000Y-170600000D03*
X108055000Y-171800000D03*
X108055000Y-173000000D03*
X108055000Y-174200000D03*
X108055000Y-175400000D03*
X108055000Y-176600000D03*
X109255000Y-170600000D03*
X109255000Y-171800000D03*
X109255000Y-173000000D03*
X109255000Y-174200000D03*
X109255000Y-175400000D03*
X109255000Y-176600000D03*
X110455000Y-170600000D03*
X110455000Y-171800000D03*
X110455000Y-173000000D03*
X110455000Y-174200000D03*
X110455000Y-175400000D03*
X110455000Y-176600000D03*
X111655000Y-170600000D03*
X111655000Y-171800000D03*
X111655000Y-173000000D03*
X111655000Y-174200000D03*
X111655000Y-175400000D03*
X111655000Y-176600000D03*
X112855000Y-170600000D03*
X112855000Y-171800000D03*
X112855000Y-173000000D03*
X112855000Y-174200000D03*
X112855000Y-175400000D03*
X112855000Y-176600000D03*
X114055000Y-170600000D03*
X114055000Y-175400000D03*
X114055000Y-176600000D03*
D12*
X114055000Y-181780000D03*
X112855000Y-181780000D03*
X111655000Y-181780000D03*
X110455000Y-181780000D03*
X109255000Y-181780000D03*
X108055000Y-181780000D03*
X106855000Y-181780000D03*
X105655000Y-181780000D03*
%TD*%
D11*
%TO.C,Q15*%
X105690000Y-198540000D03*
X105690000Y-203340000D03*
X105690000Y-204540000D03*
X106890000Y-198540000D03*
X106890000Y-199740000D03*
X106890000Y-200940000D03*
X106890000Y-202140000D03*
X106890000Y-203340000D03*
X106890000Y-204540000D03*
X108090000Y-198540000D03*
X108090000Y-199740000D03*
X108090000Y-200940000D03*
X108090000Y-202140000D03*
X108090000Y-203340000D03*
X108090000Y-204540000D03*
X109290000Y-198540000D03*
X109290000Y-199740000D03*
X109290000Y-200940000D03*
X109290000Y-202140000D03*
X109290000Y-203340000D03*
X109290000Y-204540000D03*
X110490000Y-198540000D03*
X110490000Y-199740000D03*
X110490000Y-200940000D03*
X110490000Y-202140000D03*
X110490000Y-203340000D03*
X110490000Y-204540000D03*
X111690000Y-198540000D03*
X111690000Y-199740000D03*
X111690000Y-200940000D03*
X111690000Y-202140000D03*
X111690000Y-203340000D03*
X111690000Y-204540000D03*
X112890000Y-198540000D03*
X112890000Y-199740000D03*
X112890000Y-200940000D03*
X112890000Y-202140000D03*
X112890000Y-203340000D03*
X112890000Y-204540000D03*
X114090000Y-198540000D03*
X114090000Y-203340000D03*
X114090000Y-204540000D03*
D12*
X114090000Y-209720000D03*
X112890000Y-209720000D03*
X111690000Y-209720000D03*
X110490000Y-209720000D03*
X109290000Y-209720000D03*
X108090000Y-209720000D03*
X106890000Y-209720000D03*
X105690000Y-209720000D03*
%TD*%
D11*
%TO.C,Q14*%
X105655000Y-184570000D03*
X105655000Y-189370000D03*
X105655000Y-190570000D03*
X106855000Y-184570000D03*
X106855000Y-185770000D03*
X106855000Y-186970000D03*
X106855000Y-188170000D03*
X106855000Y-189370000D03*
X106855000Y-190570000D03*
X108055000Y-184570000D03*
X108055000Y-185770000D03*
X108055000Y-186970000D03*
X108055000Y-188170000D03*
X108055000Y-189370000D03*
X108055000Y-190570000D03*
X109255000Y-184570000D03*
X109255000Y-185770000D03*
X109255000Y-186970000D03*
X109255000Y-188170000D03*
X109255000Y-189370000D03*
X109255000Y-190570000D03*
X110455000Y-184570000D03*
X110455000Y-185770000D03*
X110455000Y-186970000D03*
X110455000Y-188170000D03*
X110455000Y-189370000D03*
X110455000Y-190570000D03*
X111655000Y-184570000D03*
X111655000Y-185770000D03*
X111655000Y-186970000D03*
X111655000Y-188170000D03*
X111655000Y-189370000D03*
X111655000Y-190570000D03*
X112855000Y-184570000D03*
X112855000Y-185770000D03*
X112855000Y-186970000D03*
X112855000Y-188170000D03*
X112855000Y-189370000D03*
X112855000Y-190570000D03*
X114055000Y-184570000D03*
X114055000Y-189370000D03*
X114055000Y-190570000D03*
D12*
X114055000Y-195750000D03*
X112855000Y-195750000D03*
X111655000Y-195750000D03*
X110455000Y-195750000D03*
X109255000Y-195750000D03*
X108055000Y-195750000D03*
X106855000Y-195750000D03*
X105655000Y-195750000D03*
%TD*%
%TO.C,Q25*%
X183760000Y-181780000D03*
X184960000Y-181780000D03*
X186160000Y-181780000D03*
X187360000Y-181780000D03*
X188560000Y-181780000D03*
X189760000Y-181780000D03*
X190960000Y-181780000D03*
X192160000Y-181780000D03*
D11*
X192160000Y-176600000D03*
X192160000Y-175400000D03*
X192160000Y-170600000D03*
X190960000Y-176600000D03*
X190960000Y-175400000D03*
X190960000Y-174200000D03*
X190960000Y-173000000D03*
X190960000Y-171800000D03*
X190960000Y-170600000D03*
X189760000Y-176600000D03*
X189760000Y-175400000D03*
X189760000Y-174200000D03*
X189760000Y-173000000D03*
X189760000Y-171800000D03*
X189760000Y-170600000D03*
X188560000Y-176600000D03*
X188560000Y-175400000D03*
X188560000Y-174200000D03*
X188560000Y-173000000D03*
X188560000Y-171800000D03*
X188560000Y-170600000D03*
X187360000Y-176600000D03*
X187360000Y-175400000D03*
X187360000Y-174200000D03*
X187360000Y-173000000D03*
X187360000Y-171800000D03*
X187360000Y-170600000D03*
X186160000Y-176600000D03*
X186160000Y-175400000D03*
X186160000Y-174200000D03*
X186160000Y-173000000D03*
X186160000Y-171800000D03*
X186160000Y-170600000D03*
X184960000Y-176600000D03*
X184960000Y-175400000D03*
X184960000Y-174200000D03*
X184960000Y-173000000D03*
X184960000Y-171800000D03*
X184960000Y-170600000D03*
X183760000Y-176600000D03*
X183760000Y-175400000D03*
X183760000Y-170600000D03*
%TD*%
D12*
%TO.C,Q24*%
X183760000Y-195750000D03*
X184960000Y-195750000D03*
X186160000Y-195750000D03*
X187360000Y-195750000D03*
X188560000Y-195750000D03*
X189760000Y-195750000D03*
X190960000Y-195750000D03*
X192160000Y-195750000D03*
D11*
X192160000Y-190570000D03*
X192160000Y-189370000D03*
X192160000Y-184570000D03*
X190960000Y-190570000D03*
X190960000Y-189370000D03*
X190960000Y-188170000D03*
X190960000Y-186970000D03*
X190960000Y-185770000D03*
X190960000Y-184570000D03*
X189760000Y-190570000D03*
X189760000Y-189370000D03*
X189760000Y-188170000D03*
X189760000Y-186970000D03*
X189760000Y-185770000D03*
X189760000Y-184570000D03*
X188560000Y-190570000D03*
X188560000Y-189370000D03*
X188560000Y-188170000D03*
X188560000Y-186970000D03*
X188560000Y-185770000D03*
X188560000Y-184570000D03*
X187360000Y-190570000D03*
X187360000Y-189370000D03*
X187360000Y-188170000D03*
X187360000Y-186970000D03*
X187360000Y-185770000D03*
X187360000Y-184570000D03*
X186160000Y-190570000D03*
X186160000Y-189370000D03*
X186160000Y-188170000D03*
X186160000Y-186970000D03*
X186160000Y-185770000D03*
X186160000Y-184570000D03*
X184960000Y-190570000D03*
X184960000Y-189370000D03*
X184960000Y-188170000D03*
X184960000Y-186970000D03*
X184960000Y-185770000D03*
X184960000Y-184570000D03*
X183760000Y-190570000D03*
X183760000Y-189370000D03*
X183760000Y-184570000D03*
%TD*%
D12*
%TO.C,Q23*%
X183760000Y-255440000D03*
X184960000Y-255440000D03*
X186160000Y-255440000D03*
X187360000Y-255440000D03*
X188560000Y-255440000D03*
X189760000Y-255440000D03*
X190960000Y-255440000D03*
X192160000Y-255440000D03*
D11*
X192160000Y-250260000D03*
X192160000Y-249060000D03*
X192160000Y-244260000D03*
X190960000Y-250260000D03*
X190960000Y-249060000D03*
X190960000Y-247860000D03*
X190960000Y-246660000D03*
X190960000Y-245460000D03*
X190960000Y-244260000D03*
X189760000Y-250260000D03*
X189760000Y-249060000D03*
X189760000Y-247860000D03*
X189760000Y-246660000D03*
X189760000Y-245460000D03*
X189760000Y-244260000D03*
X188560000Y-250260000D03*
X188560000Y-249060000D03*
X188560000Y-247860000D03*
X188560000Y-246660000D03*
X188560000Y-245460000D03*
X188560000Y-244260000D03*
X187360000Y-250260000D03*
X187360000Y-249060000D03*
X187360000Y-247860000D03*
X187360000Y-246660000D03*
X187360000Y-245460000D03*
X187360000Y-244260000D03*
X186160000Y-250260000D03*
X186160000Y-249060000D03*
X186160000Y-247860000D03*
X186160000Y-246660000D03*
X186160000Y-245460000D03*
X186160000Y-244260000D03*
X184960000Y-250260000D03*
X184960000Y-249060000D03*
X184960000Y-247860000D03*
X184960000Y-246660000D03*
X184960000Y-245460000D03*
X184960000Y-244260000D03*
X183760000Y-250260000D03*
X183760000Y-249060000D03*
X183760000Y-244260000D03*
%TD*%
D12*
%TO.C,Q22*%
X183760000Y-241470000D03*
X184960000Y-241470000D03*
X186160000Y-241470000D03*
X187360000Y-241470000D03*
X188560000Y-241470000D03*
X189760000Y-241470000D03*
X190960000Y-241470000D03*
X192160000Y-241470000D03*
D11*
X192160000Y-236290000D03*
X192160000Y-235090000D03*
X192160000Y-230290000D03*
X190960000Y-236290000D03*
X190960000Y-235090000D03*
X190960000Y-233890000D03*
X190960000Y-232690000D03*
X190960000Y-231490000D03*
X190960000Y-230290000D03*
X189760000Y-236290000D03*
X189760000Y-235090000D03*
X189760000Y-233890000D03*
X189760000Y-232690000D03*
X189760000Y-231490000D03*
X189760000Y-230290000D03*
X188560000Y-236290000D03*
X188560000Y-235090000D03*
X188560000Y-233890000D03*
X188560000Y-232690000D03*
X188560000Y-231490000D03*
X188560000Y-230290000D03*
X187360000Y-236290000D03*
X187360000Y-235090000D03*
X187360000Y-233890000D03*
X187360000Y-232690000D03*
X187360000Y-231490000D03*
X187360000Y-230290000D03*
X186160000Y-236290000D03*
X186160000Y-235090000D03*
X186160000Y-233890000D03*
X186160000Y-232690000D03*
X186160000Y-231490000D03*
X186160000Y-230290000D03*
X184960000Y-236290000D03*
X184960000Y-235090000D03*
X184960000Y-233890000D03*
X184960000Y-232690000D03*
X184960000Y-231490000D03*
X184960000Y-230290000D03*
X183760000Y-236290000D03*
X183760000Y-235090000D03*
X183760000Y-230290000D03*
%TD*%
D12*
%TO.C,Q21*%
X171060000Y-255430000D03*
X172260000Y-255430000D03*
X173460000Y-255430000D03*
X174660000Y-255430000D03*
X175860000Y-255430000D03*
X177060000Y-255430000D03*
X178260000Y-255430000D03*
X179460000Y-255430000D03*
D11*
X179460000Y-250250000D03*
X179460000Y-249050000D03*
X179460000Y-244250000D03*
X178260000Y-250250000D03*
X178260000Y-249050000D03*
X178260000Y-247850000D03*
X178260000Y-246650000D03*
X178260000Y-245450000D03*
X178260000Y-244250000D03*
X177060000Y-250250000D03*
X177060000Y-249050000D03*
X177060000Y-247850000D03*
X177060000Y-246650000D03*
X177060000Y-245450000D03*
X177060000Y-244250000D03*
X175860000Y-250250000D03*
X175860000Y-249050000D03*
X175860000Y-247850000D03*
X175860000Y-246650000D03*
X175860000Y-245450000D03*
X175860000Y-244250000D03*
X174660000Y-250250000D03*
X174660000Y-249050000D03*
X174660000Y-247850000D03*
X174660000Y-246650000D03*
X174660000Y-245450000D03*
X174660000Y-244250000D03*
X173460000Y-250250000D03*
X173460000Y-249050000D03*
X173460000Y-247850000D03*
X173460000Y-246650000D03*
X173460000Y-245450000D03*
X173460000Y-244250000D03*
X172260000Y-250250000D03*
X172260000Y-249050000D03*
X172260000Y-247850000D03*
X172260000Y-246650000D03*
X172260000Y-245450000D03*
X172260000Y-244250000D03*
X171060000Y-250250000D03*
X171060000Y-249050000D03*
X171060000Y-244250000D03*
%TD*%
D12*
%TO.C,Q20*%
X171060000Y-241460000D03*
X172260000Y-241460000D03*
X173460000Y-241460000D03*
X174660000Y-241460000D03*
X175860000Y-241460000D03*
X177060000Y-241460000D03*
X178260000Y-241460000D03*
X179460000Y-241460000D03*
D11*
X179460000Y-236280000D03*
X179460000Y-235080000D03*
X179460000Y-230280000D03*
X178260000Y-236280000D03*
X178260000Y-235080000D03*
X178260000Y-233880000D03*
X178260000Y-232680000D03*
X178260000Y-231480000D03*
X178260000Y-230280000D03*
X177060000Y-236280000D03*
X177060000Y-235080000D03*
X177060000Y-233880000D03*
X177060000Y-232680000D03*
X177060000Y-231480000D03*
X177060000Y-230280000D03*
X175860000Y-236280000D03*
X175860000Y-235080000D03*
X175860000Y-233880000D03*
X175860000Y-232680000D03*
X175860000Y-231480000D03*
X175860000Y-230280000D03*
X174660000Y-236280000D03*
X174660000Y-235080000D03*
X174660000Y-233880000D03*
X174660000Y-232680000D03*
X174660000Y-231480000D03*
X174660000Y-230280000D03*
X173460000Y-236280000D03*
X173460000Y-235080000D03*
X173460000Y-233880000D03*
X173460000Y-232680000D03*
X173460000Y-231480000D03*
X173460000Y-230280000D03*
X172260000Y-236280000D03*
X172260000Y-235080000D03*
X172260000Y-233880000D03*
X172260000Y-232680000D03*
X172260000Y-231480000D03*
X172260000Y-230280000D03*
X171060000Y-236280000D03*
X171060000Y-235080000D03*
X171060000Y-230280000D03*
%TD*%
D12*
%TO.C,Q19*%
X171060000Y-209720000D03*
X172260000Y-209720000D03*
X173460000Y-209720000D03*
X174660000Y-209720000D03*
X175860000Y-209720000D03*
X177060000Y-209720000D03*
X178260000Y-209720000D03*
X179460000Y-209720000D03*
D11*
X179460000Y-204540000D03*
X179460000Y-203340000D03*
X179460000Y-198540000D03*
X178260000Y-204540000D03*
X178260000Y-203340000D03*
X178260000Y-202140000D03*
X178260000Y-200940000D03*
X178260000Y-199740000D03*
X178260000Y-198540000D03*
X177060000Y-204540000D03*
X177060000Y-203340000D03*
X177060000Y-202140000D03*
X177060000Y-200940000D03*
X177060000Y-199740000D03*
X177060000Y-198540000D03*
X175860000Y-204540000D03*
X175860000Y-203340000D03*
X175860000Y-202140000D03*
X175860000Y-200940000D03*
X175860000Y-199740000D03*
X175860000Y-198540000D03*
X174660000Y-204540000D03*
X174660000Y-203340000D03*
X174660000Y-202140000D03*
X174660000Y-200940000D03*
X174660000Y-199740000D03*
X174660000Y-198540000D03*
X173460000Y-204540000D03*
X173460000Y-203340000D03*
X173460000Y-202140000D03*
X173460000Y-200940000D03*
X173460000Y-199740000D03*
X173460000Y-198540000D03*
X172260000Y-204540000D03*
X172260000Y-203340000D03*
X172260000Y-202140000D03*
X172260000Y-200940000D03*
X172260000Y-199740000D03*
X172260000Y-198540000D03*
X171060000Y-204540000D03*
X171060000Y-203340000D03*
X171060000Y-198540000D03*
%TD*%
D12*
%TO.C,Q18*%
X171060000Y-195750000D03*
X172260000Y-195750000D03*
X173460000Y-195750000D03*
X174660000Y-195750000D03*
X175860000Y-195750000D03*
X177060000Y-195750000D03*
X178260000Y-195750000D03*
X179460000Y-195750000D03*
D11*
X179460000Y-190570000D03*
X179460000Y-189370000D03*
X179460000Y-184570000D03*
X178260000Y-190570000D03*
X178260000Y-189370000D03*
X178260000Y-188170000D03*
X178260000Y-186970000D03*
X178260000Y-185770000D03*
X178260000Y-184570000D03*
X177060000Y-190570000D03*
X177060000Y-189370000D03*
X177060000Y-188170000D03*
X177060000Y-186970000D03*
X177060000Y-185770000D03*
X177060000Y-184570000D03*
X175860000Y-190570000D03*
X175860000Y-189370000D03*
X175860000Y-188170000D03*
X175860000Y-186970000D03*
X175860000Y-185770000D03*
X175860000Y-184570000D03*
X174660000Y-190570000D03*
X174660000Y-189370000D03*
X174660000Y-188170000D03*
X174660000Y-186970000D03*
X174660000Y-185770000D03*
X174660000Y-184570000D03*
X173460000Y-190570000D03*
X173460000Y-189370000D03*
X173460000Y-188170000D03*
X173460000Y-186970000D03*
X173460000Y-185770000D03*
X173460000Y-184570000D03*
X172260000Y-190570000D03*
X172260000Y-189370000D03*
X172260000Y-188170000D03*
X172260000Y-186970000D03*
X172260000Y-185770000D03*
X172260000Y-184570000D03*
X171060000Y-190570000D03*
X171060000Y-189370000D03*
X171060000Y-184570000D03*
%TD*%
D12*
%TO.C,Q12*%
X105655000Y-262425000D03*
X106855000Y-262425000D03*
X108055000Y-262425000D03*
X109255000Y-262425000D03*
X110455000Y-262425000D03*
X111655000Y-262425000D03*
X112855000Y-262425000D03*
X114055000Y-262425000D03*
D11*
X114055000Y-257245000D03*
X114055000Y-256045000D03*
X114055000Y-251245000D03*
X112855000Y-257245000D03*
X112855000Y-256045000D03*
X112855000Y-254845000D03*
X112855000Y-253645000D03*
X112855000Y-252445000D03*
X112855000Y-251245000D03*
X111655000Y-257245000D03*
X111655000Y-256045000D03*
X111655000Y-254845000D03*
X111655000Y-253645000D03*
X111655000Y-252445000D03*
X111655000Y-251245000D03*
X110455000Y-257245000D03*
X110455000Y-256045000D03*
X110455000Y-254845000D03*
X110455000Y-253645000D03*
X110455000Y-252445000D03*
X110455000Y-251245000D03*
X109255000Y-257245000D03*
X109255000Y-256045000D03*
X109255000Y-254845000D03*
X109255000Y-253645000D03*
X109255000Y-252445000D03*
X109255000Y-251245000D03*
X108055000Y-257245000D03*
X108055000Y-256045000D03*
X108055000Y-254845000D03*
X108055000Y-253645000D03*
X108055000Y-252445000D03*
X108055000Y-251245000D03*
X106855000Y-257245000D03*
X106855000Y-256045000D03*
X106855000Y-254845000D03*
X106855000Y-253645000D03*
X106855000Y-252445000D03*
X106855000Y-251245000D03*
X105655000Y-257245000D03*
X105655000Y-256045000D03*
X105655000Y-251245000D03*
%TD*%
D12*
%TO.C,Q11*%
X105655000Y-248455000D03*
X106855000Y-248455000D03*
X108055000Y-248455000D03*
X109255000Y-248455000D03*
X110455000Y-248455000D03*
X111655000Y-248455000D03*
X112855000Y-248455000D03*
X114055000Y-248455000D03*
D11*
X114055000Y-243275000D03*
X114055000Y-242075000D03*
X114055000Y-237275000D03*
X112855000Y-243275000D03*
X112855000Y-242075000D03*
X112855000Y-240875000D03*
X112855000Y-239675000D03*
X112855000Y-238475000D03*
X112855000Y-237275000D03*
X111655000Y-243275000D03*
X111655000Y-242075000D03*
X111655000Y-240875000D03*
X111655000Y-239675000D03*
X111655000Y-238475000D03*
X111655000Y-237275000D03*
X110455000Y-243275000D03*
X110455000Y-242075000D03*
X110455000Y-240875000D03*
X110455000Y-239675000D03*
X110455000Y-238475000D03*
X110455000Y-237275000D03*
X109255000Y-243275000D03*
X109255000Y-242075000D03*
X109255000Y-240875000D03*
X109255000Y-239675000D03*
X109255000Y-238475000D03*
X109255000Y-237275000D03*
X108055000Y-243275000D03*
X108055000Y-242075000D03*
X108055000Y-240875000D03*
X108055000Y-239675000D03*
X108055000Y-238475000D03*
X108055000Y-237275000D03*
X106855000Y-243275000D03*
X106855000Y-242075000D03*
X106855000Y-240875000D03*
X106855000Y-239675000D03*
X106855000Y-238475000D03*
X106855000Y-237275000D03*
X105655000Y-243275000D03*
X105655000Y-242075000D03*
X105655000Y-237275000D03*
%TD*%
D12*
%TO.C,Q10*%
X105655000Y-234485000D03*
X106855000Y-234485000D03*
X108055000Y-234485000D03*
X109255000Y-234485000D03*
X110455000Y-234485000D03*
X111655000Y-234485000D03*
X112855000Y-234485000D03*
X114055000Y-234485000D03*
D11*
X114055000Y-229305000D03*
X114055000Y-228105000D03*
X114055000Y-223305000D03*
X112855000Y-229305000D03*
X112855000Y-228105000D03*
X112855000Y-226905000D03*
X112855000Y-225705000D03*
X112855000Y-224505000D03*
X112855000Y-223305000D03*
X111655000Y-229305000D03*
X111655000Y-228105000D03*
X111655000Y-226905000D03*
X111655000Y-225705000D03*
X111655000Y-224505000D03*
X111655000Y-223305000D03*
X110455000Y-229305000D03*
X110455000Y-228105000D03*
X110455000Y-226905000D03*
X110455000Y-225705000D03*
X110455000Y-224505000D03*
X110455000Y-223305000D03*
X109255000Y-229305000D03*
X109255000Y-228105000D03*
X109255000Y-226905000D03*
X109255000Y-225705000D03*
X109255000Y-224505000D03*
X109255000Y-223305000D03*
X108055000Y-229305000D03*
X108055000Y-228105000D03*
X108055000Y-226905000D03*
X108055000Y-225705000D03*
X108055000Y-224505000D03*
X108055000Y-223305000D03*
X106855000Y-229305000D03*
X106855000Y-228105000D03*
X106855000Y-226905000D03*
X106855000Y-225705000D03*
X106855000Y-224505000D03*
X106855000Y-223305000D03*
X105655000Y-229305000D03*
X105655000Y-228105000D03*
X105655000Y-223305000D03*
%TD*%
%TO.C,Q7*%
X184960000Y-259430000D03*
X190960000Y-263030000D03*
X189760000Y-263030000D03*
X183760000Y-258230000D03*
X184960000Y-261830000D03*
X184960000Y-258230000D03*
X188560000Y-261830000D03*
X183760000Y-264230000D03*
D12*
X189760000Y-269410000D03*
D11*
X183760000Y-263030000D03*
D12*
X186160000Y-269410000D03*
D11*
X186160000Y-261830000D03*
X187360000Y-263030000D03*
X189760000Y-259430000D03*
D12*
X188560000Y-269410000D03*
D11*
X186160000Y-258230000D03*
D12*
X192160000Y-269410000D03*
D11*
X186160000Y-260630000D03*
X188560000Y-264230000D03*
X189760000Y-264230000D03*
X190960000Y-259430000D03*
X188560000Y-258230000D03*
X184960000Y-263030000D03*
X189760000Y-261830000D03*
X187360000Y-258230000D03*
X187360000Y-259430000D03*
X186160000Y-259430000D03*
X187360000Y-264230000D03*
D12*
X187360000Y-269410000D03*
D11*
X187360000Y-261830000D03*
X186160000Y-263030000D03*
X186160000Y-264230000D03*
X187360000Y-260630000D03*
X192160000Y-258230000D03*
D12*
X183760000Y-269410000D03*
D11*
X184960000Y-260630000D03*
X188560000Y-260630000D03*
X192160000Y-263030000D03*
X190960000Y-261830000D03*
X190960000Y-258230000D03*
X192160000Y-264230000D03*
X189760000Y-260630000D03*
X184960000Y-264230000D03*
X190960000Y-260630000D03*
X189760000Y-258230000D03*
X188560000Y-263030000D03*
D12*
X184960000Y-269410000D03*
D11*
X190960000Y-264230000D03*
D12*
X190960000Y-269410000D03*
D11*
X188560000Y-259430000D03*
%TD*%
D12*
%TO.C,Q9*%
X190960000Y-209720000D03*
D11*
X190960000Y-202140000D03*
X190960000Y-204540000D03*
X192160000Y-198540000D03*
X188560000Y-198540000D03*
X183760000Y-204540000D03*
X192160000Y-203340000D03*
D12*
X187360000Y-209720000D03*
D11*
X186160000Y-199740000D03*
X187360000Y-204540000D03*
D12*
X184960000Y-209720000D03*
D11*
X190960000Y-203340000D03*
X186160000Y-204540000D03*
X192160000Y-204540000D03*
X190960000Y-200940000D03*
X184960000Y-204540000D03*
X188560000Y-203340000D03*
X187360000Y-199740000D03*
X189760000Y-198540000D03*
X187360000Y-198540000D03*
X184960000Y-200940000D03*
X184960000Y-202140000D03*
X188560000Y-204540000D03*
X184960000Y-198540000D03*
X190960000Y-199740000D03*
X187360000Y-202140000D03*
X188560000Y-200940000D03*
X184960000Y-203340000D03*
X186160000Y-203340000D03*
D12*
X189760000Y-209720000D03*
D11*
X190960000Y-198540000D03*
X187360000Y-200940000D03*
X189760000Y-202140000D03*
X189760000Y-199740000D03*
X187360000Y-203340000D03*
X189760000Y-204540000D03*
X189760000Y-200940000D03*
D12*
X183760000Y-209720000D03*
X188560000Y-209720000D03*
D11*
X183760000Y-198540000D03*
X184960000Y-199740000D03*
X189760000Y-203340000D03*
X188560000Y-202140000D03*
D12*
X192160000Y-209720000D03*
D11*
X186160000Y-198540000D03*
X186160000Y-202140000D03*
X188560000Y-199740000D03*
D12*
X186160000Y-209720000D03*
D11*
X186160000Y-200940000D03*
X183760000Y-203340000D03*
%TD*%
%TO.C,Q6*%
X174660000Y-260620000D03*
D12*
X174660000Y-269400000D03*
X171060000Y-269400000D03*
D11*
X177060000Y-260620000D03*
X172260000Y-261820000D03*
X173460000Y-260620000D03*
X177060000Y-259420000D03*
D12*
X177060000Y-269400000D03*
D11*
X174660000Y-259420000D03*
D12*
X173460000Y-269400000D03*
D11*
X175860000Y-258220000D03*
X175860000Y-261820000D03*
X173460000Y-264220000D03*
D12*
X172260000Y-269400000D03*
D11*
X172260000Y-264220000D03*
X177060000Y-261820000D03*
X178260000Y-264220000D03*
X173460000Y-258220000D03*
X171060000Y-263020000D03*
X175860000Y-263020000D03*
X171060000Y-264220000D03*
X177060000Y-264220000D03*
X172260000Y-259420000D03*
X179460000Y-264220000D03*
X173460000Y-261820000D03*
X174660000Y-264220000D03*
X177060000Y-258220000D03*
X173460000Y-259420000D03*
X178260000Y-261820000D03*
X175860000Y-260620000D03*
X172260000Y-260620000D03*
X178260000Y-258220000D03*
X178260000Y-260620000D03*
X175860000Y-259420000D03*
D12*
X179460000Y-269400000D03*
D11*
X172260000Y-263020000D03*
D12*
X175860000Y-269400000D03*
D11*
X178260000Y-263020000D03*
X179460000Y-258220000D03*
X174660000Y-261820000D03*
X172260000Y-258220000D03*
X178260000Y-259420000D03*
X171060000Y-258220000D03*
X173460000Y-263020000D03*
D12*
X178260000Y-269400000D03*
D11*
X179460000Y-263020000D03*
X174660000Y-258220000D03*
X175860000Y-264220000D03*
X174660000Y-263020000D03*
X177060000Y-263020000D03*
%TD*%
%TO.C,Q5*%
X173460000Y-173000000D03*
X172260000Y-174200000D03*
D12*
X177060000Y-181780000D03*
D11*
X175860000Y-176600000D03*
X173460000Y-171800000D03*
X175860000Y-175400000D03*
X175860000Y-170600000D03*
X174660000Y-170600000D03*
X174660000Y-174200000D03*
X178260000Y-171800000D03*
X174660000Y-175400000D03*
X171060000Y-175400000D03*
X179460000Y-170600000D03*
X172260000Y-171800000D03*
X174660000Y-173000000D03*
X177060000Y-174200000D03*
X172260000Y-175400000D03*
D12*
X173460000Y-181780000D03*
D11*
X174660000Y-176600000D03*
X174660000Y-171800000D03*
X172260000Y-176600000D03*
X175860000Y-174200000D03*
X173460000Y-176600000D03*
D12*
X175860000Y-181780000D03*
D11*
X178260000Y-175400000D03*
X177060000Y-173000000D03*
X177060000Y-171800000D03*
X171060000Y-170600000D03*
X179460000Y-175400000D03*
D12*
X174660000Y-181780000D03*
X179460000Y-181780000D03*
D11*
X178260000Y-174200000D03*
X177060000Y-170600000D03*
X178260000Y-170600000D03*
X172260000Y-170600000D03*
X172260000Y-173000000D03*
X175860000Y-173000000D03*
X177060000Y-176600000D03*
D12*
X178260000Y-181780000D03*
X172260000Y-181780000D03*
D11*
X173460000Y-174200000D03*
X171060000Y-176600000D03*
X178260000Y-173000000D03*
X179460000Y-176600000D03*
X173460000Y-175400000D03*
D12*
X171060000Y-181780000D03*
D11*
X175860000Y-171800000D03*
X177060000Y-175400000D03*
X178260000Y-176600000D03*
X173460000Y-170600000D03*
%TD*%
D13*
%TO.C,R7*%
X247282500Y-167640000D03*
X256907500Y-167640000D03*
%TD*%
D11*
%TO.C,Q8*%
X244755000Y-159280000D03*
X244755000Y-156880000D03*
X242355000Y-155680000D03*
X242355000Y-159280000D03*
X247155000Y-156880000D03*
X244755000Y-158080000D03*
X244755000Y-154480000D03*
X243555000Y-159280000D03*
X242355000Y-156880000D03*
D10*
X253535000Y-158080000D03*
D11*
X248355000Y-155680000D03*
X244755000Y-160480000D03*
X247155000Y-158080000D03*
X245955000Y-159280000D03*
D10*
X253535000Y-161680000D03*
D11*
X243555000Y-158080000D03*
X243555000Y-155680000D03*
X248355000Y-160480000D03*
X242355000Y-154480000D03*
X248355000Y-154480000D03*
X247155000Y-153280000D03*
X245955000Y-160480000D03*
D10*
X253535000Y-153280000D03*
D11*
X247155000Y-159280000D03*
D10*
X253535000Y-159280000D03*
X253535000Y-156880000D03*
D11*
X247155000Y-160480000D03*
X248355000Y-153280000D03*
X247155000Y-161680000D03*
X243555000Y-156880000D03*
X245955000Y-154480000D03*
D10*
X253535000Y-154480000D03*
D11*
X248355000Y-156880000D03*
X243555000Y-160480000D03*
D10*
X253535000Y-155680000D03*
D11*
X242355000Y-153280000D03*
X242355000Y-158080000D03*
X247155000Y-155680000D03*
X243555000Y-154480000D03*
X242355000Y-160480000D03*
X245955000Y-155680000D03*
X242355000Y-161680000D03*
X248355000Y-159280000D03*
X244755000Y-155680000D03*
X245955000Y-156880000D03*
X248355000Y-161680000D03*
X245955000Y-158080000D03*
X247155000Y-154480000D03*
X248355000Y-158080000D03*
D10*
X253535000Y-160480000D03*
%TD*%
M02*
