M48
; DRILL file {KiCad (6.0.0-rc1-57-gf03efa1cba)} date Fri Nov 19 01:11:23 2021
; FORMAT={-:-/ absolute / metric / decimal}
; #@! TF.CreationDate,2021-11-19T01:11:23-08:00
; #@! TF.GenerationSoftware,Kicad,Pcbnew,(6.0.0-rc1-57-gf03efa1cba)
; #@! TF.FileFunction,Plated,1,2,PTH
FMAT,2
METRIC
; #@! TA.AperFunction,Plated,PTH,ComponentDrill
T1C1.000
; #@! TA.AperFunction,Plated,PTH,ViaDrill
T2C1.016
; #@! TA.AperFunction,Plated,PTH,ComponentDrill
T3C1.200
; #@! TA.AperFunction,Plated,PTH,ComponentDrill
T4C6.100
; #@! TA.AperFunction,Plated,PTH,ComponentDrill
T5C10.000
%
G90
G05
T1
X71.755Y-226.075
X71.755Y-228.615
X71.755Y-231.155
X258.445Y-249.56
X258.445Y-252.1
T2
X152.4Y-165.1
X152.4Y-167.005
X152.4Y-168.91
X152.4Y-170.815
X152.4Y-172.72
X152.4Y-174.625
X152.4Y-176.53
X152.4Y-180.975
X152.4Y-180.975
X152.4Y-182.88
X152.4Y-184.785
X152.4Y-186.69
X152.4Y-188.595
X152.4Y-190.5
X152.4Y-194.945
X152.4Y-194.945
X152.4Y-196.85
X152.4Y-198.755
X152.4Y-200.66
X152.4Y-202.565
X152.4Y-204.47
X152.4Y-208.915
X152.4Y-210.82
X152.4Y-212.725
X152.4Y-214.63
X152.4Y-216.535
X152.4Y-218.44
X152.4Y-220.345
X152.4Y-222.25
X152.4Y-224.155
X152.4Y-226.06
X152.4Y-227.965
X152.4Y-229.87
X152.4Y-231.775
X152.4Y-233.68
X152.4Y-235.585
X152.4Y-240.665
X152.4Y-240.665
X152.4Y-242.57
X152.4Y-244.475
X152.4Y-246.38
X152.4Y-248.285
X152.4Y-250.19
X152.4Y-254.635
X152.4Y-256.54
X152.4Y-258.445
X152.4Y-260.35
X152.4Y-262.255
X152.4Y-264.16
X154.305Y-165.1
X154.305Y-167.005
X154.305Y-168.91
X154.305Y-170.815
X154.305Y-172.72
X154.305Y-174.625
X154.305Y-176.53
X154.305Y-180.975
X154.305Y-182.88
X154.305Y-184.785
X154.305Y-186.69
X154.305Y-188.595
X154.305Y-190.5
X154.305Y-194.945
X154.305Y-196.85
X154.305Y-198.755
X154.305Y-200.66
X154.305Y-202.565
X154.305Y-204.47
X154.305Y-208.915
X154.305Y-210.82
X154.305Y-212.725
X154.305Y-214.63
X154.305Y-216.535
X154.305Y-218.44
X154.305Y-220.345
X154.305Y-222.25
X154.305Y-224.155
X154.305Y-226.06
X154.305Y-227.965
X154.305Y-227.965
X154.305Y-229.87
X154.305Y-231.775
X154.305Y-233.68
X154.305Y-235.585
X154.305Y-240.665
X154.305Y-242.57
X154.305Y-244.475
X154.305Y-246.38
X154.305Y-248.285
X154.305Y-250.19
X154.305Y-254.635
X154.305Y-256.54
X154.305Y-258.445
X154.305Y-260.35
X154.305Y-262.255
X154.305Y-264.16
X156.21Y-165.1
X156.21Y-167.005
X156.21Y-168.91
X156.21Y-170.815
X156.21Y-172.72
X156.21Y-174.625
X156.21Y-176.53
X156.21Y-180.975
X156.21Y-182.88
X156.21Y-184.785
X156.21Y-186.69
X156.21Y-188.595
X156.21Y-190.5
X156.21Y-194.945
X156.21Y-196.85
X156.21Y-198.755
X156.21Y-200.66
X156.21Y-202.565
X156.21Y-204.47
X156.21Y-208.915
X156.21Y-210.82
X156.21Y-212.725
X156.21Y-214.63
X156.21Y-216.535
X156.21Y-218.44
X156.21Y-220.345
X156.21Y-222.25
X156.21Y-224.155
X156.21Y-226.06
X156.21Y-227.965
X156.21Y-229.87
X156.21Y-231.775
X156.21Y-233.68
X156.21Y-235.585
X156.21Y-240.665
X156.21Y-242.57
X156.21Y-244.475
X156.21Y-246.38
X156.21Y-248.285
X156.21Y-250.19
X156.21Y-254.635
X156.21Y-256.54
X156.21Y-258.445
X156.21Y-260.35
X156.21Y-262.255
X156.21Y-264.16
X158.115Y-165.1
X158.115Y-167.005
X158.115Y-168.91
X158.115Y-170.815
X158.115Y-172.72
X158.115Y-174.625
X158.115Y-176.53
X158.115Y-180.975
X158.115Y-182.88
X158.115Y-184.785
X158.115Y-186.69
X158.115Y-188.595
X158.115Y-190.5
X158.115Y-194.945
X158.115Y-196.85
X158.115Y-198.755
X158.115Y-200.66
X158.115Y-202.565
X158.115Y-204.47
X158.115Y-208.915
X158.115Y-210.82
X158.115Y-212.725
X158.115Y-214.63
X158.115Y-216.535
X158.115Y-218.44
X158.115Y-220.345
X158.115Y-222.25
X158.115Y-224.155
X158.115Y-226.06
X158.115Y-227.965
X158.115Y-229.87
X158.115Y-231.775
X158.115Y-233.68
X158.115Y-235.585
X158.115Y-240.665
X158.115Y-242.57
X158.115Y-244.475
X158.115Y-246.38
X158.115Y-248.285
X158.115Y-250.19
X158.115Y-254.635
X158.115Y-256.54
X158.115Y-258.445
X158.115Y-260.35
X158.115Y-262.255
X158.115Y-264.16
X160.02Y-165.1
X160.02Y-167.005
X160.02Y-168.91
X160.02Y-170.815
X160.02Y-172.72
X160.02Y-174.625
X160.02Y-176.53
X160.02Y-180.975
X160.02Y-182.88
X160.02Y-184.785
X160.02Y-186.69
X160.02Y-188.595
X160.02Y-190.5
X160.02Y-194.945
X160.02Y-196.85
X160.02Y-198.755
X160.02Y-200.66
X160.02Y-202.565
X160.02Y-204.47
X160.02Y-208.915
X160.02Y-210.82
X160.02Y-212.725
X160.02Y-214.63
X160.02Y-216.535
X160.02Y-218.44
X160.02Y-220.345
X160.02Y-222.25
X160.02Y-224.155
X160.02Y-226.06
X160.02Y-227.965
X160.02Y-229.87
X160.02Y-231.775
X160.02Y-233.68
X160.02Y-235.585
X160.02Y-240.665
X160.02Y-242.57
X160.02Y-244.475
X160.02Y-246.38
X160.02Y-248.285
X160.02Y-250.19
X160.02Y-254.635
X160.02Y-256.54
X160.02Y-258.445
X160.02Y-260.35
X160.02Y-262.255
X160.02Y-264.16
X161.925Y-165.1
X161.925Y-167.005
X161.925Y-168.91
X161.925Y-170.815
X161.925Y-172.72
X161.925Y-174.625
X161.925Y-176.53
X161.925Y-180.975
X161.925Y-182.88
X161.925Y-184.785
X161.925Y-186.69
X161.925Y-188.595
X161.925Y-190.5
X161.925Y-194.945
X161.925Y-196.85
X161.925Y-198.755
X161.925Y-200.66
X161.925Y-202.565
X161.925Y-204.47
X161.925Y-208.915
X161.925Y-210.82
X161.925Y-212.725
X161.925Y-214.63
X161.925Y-216.535
X161.925Y-223.52
X161.925Y-226.06
X161.925Y-227.965
X161.925Y-229.87
X161.925Y-231.775
X161.925Y-233.68
X161.925Y-235.585
X161.925Y-240.665
X161.925Y-242.57
X161.925Y-244.475
X161.925Y-246.38
X161.925Y-248.285
X161.925Y-250.19
X161.925Y-254.635
X161.925Y-256.54
X161.925Y-258.445
X161.925Y-260.35
X161.925Y-262.255
X161.925Y-264.16
X163.83Y-165.1
X163.83Y-167.005
X163.83Y-168.91
X163.83Y-170.815
X163.83Y-172.72
X163.83Y-174.625
X163.83Y-176.53
X163.83Y-180.975
X163.83Y-182.88
X163.83Y-184.785
X163.83Y-186.69
X163.83Y-188.595
X163.83Y-190.5
X163.83Y-194.945
X163.83Y-196.85
X163.83Y-198.755
X163.83Y-200.66
X163.83Y-202.565
X163.83Y-204.47
X163.83Y-208.915
X163.83Y-210.82
X163.83Y-212.725
X163.83Y-214.63
X163.83Y-226.06
X163.83Y-227.965
X163.83Y-229.87
X163.83Y-231.775
X163.83Y-233.68
X163.83Y-235.585
X163.83Y-240.665
X163.83Y-242.57
X163.83Y-244.475
X163.83Y-246.38
X163.83Y-248.285
X163.83Y-250.19
X163.83Y-254.635
X163.83Y-256.54
X163.83Y-258.445
X163.83Y-260.35
X163.83Y-262.255
X163.83Y-264.16
X165.735Y-165.1
X165.735Y-167.005
X165.735Y-168.91
X165.735Y-170.815
X165.735Y-172.72
X165.735Y-174.625
X165.735Y-176.53
X165.735Y-180.975
X165.735Y-182.88
X165.735Y-184.785
X165.735Y-186.69
X165.735Y-188.595
X165.735Y-190.5
X165.735Y-194.945
X165.735Y-196.85
X165.735Y-198.755
X165.735Y-200.66
X165.735Y-202.565
X165.735Y-204.47
X165.735Y-208.915
X165.735Y-210.82
X165.735Y-212.725
X165.735Y-214.63
X165.735Y-226.06
X165.735Y-227.965
X165.735Y-229.87
X165.735Y-231.775
X165.735Y-233.68
X165.735Y-235.585
X165.735Y-240.665
X165.735Y-242.57
X165.735Y-244.475
X165.735Y-246.38
X165.735Y-248.285
X165.735Y-250.19
X165.735Y-254.635
X165.735Y-256.54
X165.735Y-258.445
X165.735Y-260.35
X165.735Y-262.255
X165.735Y-264.16
X167.64Y-165.1
X167.64Y-167.005
X167.64Y-168.91
X167.64Y-170.815
X167.64Y-172.72
X167.64Y-174.625
X167.64Y-176.53
X167.64Y-180.975
X167.64Y-182.88
X167.64Y-184.785
X167.64Y-186.69
X167.64Y-188.595
X167.64Y-190.5
X167.64Y-194.945
X167.64Y-196.85
X167.64Y-198.755
X167.64Y-200.66
X167.64Y-202.565
X167.64Y-204.47
X167.64Y-208.915
X167.64Y-210.82
X167.64Y-212.725
X167.64Y-214.63
X167.64Y-226.06
X167.64Y-227.965
X167.64Y-229.87
X167.64Y-231.775
X167.64Y-233.68
X167.64Y-235.585
X167.64Y-240.665
X167.64Y-242.57
X167.64Y-244.475
X167.64Y-246.38
X167.64Y-248.285
X167.64Y-250.19
X167.64Y-254.635
X167.64Y-256.54
X167.64Y-258.445
X167.64Y-260.35
X167.64Y-262.255
X167.64Y-264.16
X169.545Y-165.1
X169.545Y-167.005
X169.545Y-168.91
X169.545Y-170.815
X169.545Y-172.72
X169.545Y-174.625
X169.545Y-176.53
X169.545Y-180.975
X169.545Y-182.88
X169.545Y-184.785
X169.545Y-186.69
X169.545Y-188.595
X169.545Y-190.5
X169.545Y-194.945
X169.545Y-196.85
X169.545Y-198.755
X169.545Y-200.66
X169.545Y-202.565
X169.545Y-204.47
X169.545Y-208.915
X169.545Y-210.82
X169.545Y-212.725
X169.545Y-214.63
X169.545Y-216.535
X169.545Y-224.155
X169.545Y-226.06
X169.545Y-227.965
X169.545Y-229.87
X169.545Y-231.775
X169.545Y-233.68
X169.545Y-235.585
X169.545Y-240.665
X169.545Y-242.57
X169.545Y-244.475
X169.545Y-246.38
X169.545Y-248.285
X169.545Y-250.19
X169.545Y-254.635
X169.545Y-256.54
X169.545Y-258.445
X169.545Y-260.35
X169.545Y-262.255
X169.545Y-264.16
X171.45Y-165.1
X171.45Y-167.005
X171.45Y-168.91
X171.45Y-170.815
X171.45Y-172.72
X171.45Y-174.625
X171.45Y-176.53
X171.45Y-184.785
X171.45Y-186.69
X171.45Y-188.595
X171.45Y-190.5
X171.45Y-198.755
X171.45Y-200.66
X171.45Y-202.565
X171.45Y-204.47
X171.45Y-212.725
X171.45Y-214.63
X171.45Y-216.535
X171.45Y-218.44
X171.45Y-220.345
X171.45Y-222.25
X171.45Y-224.155
X171.45Y-226.06
X171.45Y-227.965
X171.45Y-229.87
X171.45Y-231.775
X171.45Y-233.68
X171.45Y-235.585
X171.45Y-244.475
X171.45Y-246.38
X171.45Y-248.285
X171.45Y-250.19
X171.45Y-258.445
X171.45Y-260.35
X171.45Y-262.255
X171.45Y-264.16
X173.355Y-165.1
X173.355Y-167.005
X173.355Y-168.91
X173.355Y-170.815
X173.355Y-172.72
X173.355Y-174.625
X173.355Y-176.53
X173.355Y-184.785
X173.355Y-186.69
X173.355Y-188.595
X173.355Y-190.5
X173.355Y-198.755
X173.355Y-200.66
X173.355Y-202.565
X173.355Y-204.47
X173.355Y-212.725
X173.355Y-214.63
X173.355Y-216.535
X173.355Y-218.44
X173.355Y-220.345
X173.355Y-222.25
X173.355Y-224.155
X173.355Y-226.06
X173.355Y-227.965
X173.355Y-229.87
X173.355Y-231.775
X173.355Y-233.68
X173.355Y-235.585
X173.355Y-244.475
X173.355Y-246.38
X173.355Y-248.285
X173.355Y-250.19
X173.355Y-258.445
X173.355Y-260.35
X173.355Y-262.255
X173.355Y-264.16
X175.26Y-165.1
X175.26Y-167.005
X175.26Y-168.91
X175.26Y-170.815
X175.26Y-172.72
X175.26Y-174.625
X175.26Y-176.53
X175.26Y-184.785
X175.26Y-186.69
X175.26Y-188.595
X175.26Y-190.5
X175.26Y-198.755
X175.26Y-200.66
X175.26Y-202.565
X175.26Y-204.47
X175.26Y-212.725
X175.26Y-214.63
X175.26Y-216.535
X175.26Y-218.44
X175.26Y-220.345
X175.26Y-222.25
X175.26Y-224.155
X175.26Y-226.06
X175.26Y-227.965
X175.26Y-229.87
X175.26Y-231.775
X175.26Y-233.68
X175.26Y-235.585
X175.26Y-244.475
X175.26Y-246.38
X175.26Y-248.285
X175.26Y-250.19
X175.26Y-258.445
X175.26Y-260.35
X175.26Y-262.255
X175.26Y-264.16
X177.165Y-165.1
X177.165Y-167.005
X177.165Y-168.91
X177.165Y-170.815
X177.165Y-172.72
X177.165Y-174.625
X177.165Y-176.53
X177.165Y-184.785
X177.165Y-186.69
X177.165Y-188.595
X177.165Y-190.5
X177.165Y-198.755
X177.165Y-200.66
X177.165Y-202.565
X177.165Y-204.47
X177.165Y-212.725
X177.165Y-214.63
X177.165Y-216.535
X177.165Y-218.44
X177.165Y-220.345
X177.165Y-222.25
X177.165Y-224.155
X177.165Y-226.06
X177.165Y-227.965
X177.165Y-229.87
X177.165Y-231.775
X177.165Y-233.68
X177.165Y-235.585
X177.165Y-244.475
X177.165Y-246.38
X177.165Y-248.285
X177.165Y-250.19
X177.165Y-258.445
X177.165Y-260.35
X177.165Y-262.255
X177.165Y-264.16
X179.07Y-165.1
X179.07Y-167.005
X179.07Y-168.91
X179.07Y-170.815
X179.07Y-172.72
X179.07Y-174.625
X179.07Y-176.53
X179.07Y-184.785
X179.07Y-186.69
X179.07Y-188.595
X179.07Y-190.5
X179.07Y-198.755
X179.07Y-200.66
X179.07Y-202.565
X179.07Y-204.47
X179.07Y-212.725
X179.07Y-214.63
X179.07Y-216.535
X179.07Y-218.44
X179.07Y-220.345
X179.07Y-222.25
X179.07Y-224.155
X179.07Y-226.06
X179.07Y-227.965
X179.07Y-229.87
X179.07Y-231.775
X179.07Y-233.68
X179.07Y-235.585
X179.07Y-244.475
X179.07Y-246.38
X179.07Y-248.285
X179.07Y-250.19
X179.07Y-258.445
X179.07Y-260.35
X179.07Y-262.255
X179.07Y-264.16
X184.15Y-184.785
X184.15Y-186.69
X184.15Y-188.595
X184.15Y-190.5
X184.15Y-198.755
X184.15Y-200.66
X184.15Y-202.565
X184.15Y-204.47
X184.15Y-212.725
X184.15Y-214.63
X184.15Y-216.535
X184.15Y-218.44
X184.15Y-220.345
X184.15Y-222.25
X184.15Y-224.155
X184.15Y-226.06
X184.15Y-227.965
X184.15Y-229.87
X184.15Y-231.775
X184.15Y-233.68
X184.15Y-235.585
X184.15Y-244.475
X184.15Y-246.38
X184.15Y-248.285
X184.15Y-250.19
X184.15Y-258.445
X184.15Y-260.35
X184.15Y-262.255
X184.15Y-264.16
X186.055Y-184.785
X186.055Y-186.69
X186.055Y-188.595
X186.055Y-190.5
X186.055Y-198.755
X186.055Y-200.66
X186.055Y-202.565
X186.055Y-204.47
X186.055Y-212.725
X186.055Y-214.63
X186.055Y-216.535
X186.055Y-218.44
X186.055Y-220.345
X186.055Y-222.25
X186.055Y-224.155
X186.055Y-226.06
X186.055Y-227.965
X186.055Y-229.87
X186.055Y-231.775
X186.055Y-233.68
X186.055Y-235.585
X186.055Y-244.475
X186.055Y-246.38
X186.055Y-248.285
X186.055Y-250.19
X186.055Y-258.445
X186.055Y-260.35
X186.055Y-262.255
X186.055Y-264.16
X187.96Y-184.785
X187.96Y-186.69
X187.96Y-188.595
X187.96Y-190.5
X187.96Y-198.755
X187.96Y-200.66
X187.96Y-202.565
X187.96Y-204.47
X187.96Y-212.725
X187.96Y-214.63
X187.96Y-216.535
X187.96Y-218.44
X187.96Y-220.345
X187.96Y-222.25
X187.96Y-224.155
X187.96Y-226.06
X187.96Y-227.965
X187.96Y-229.87
X187.96Y-231.775
X187.96Y-233.68
X187.96Y-235.585
X187.96Y-244.475
X187.96Y-246.38
X187.96Y-248.285
X187.96Y-250.19
X187.96Y-258.445
X187.96Y-260.35
X187.96Y-262.255
X187.96Y-264.16
X189.865Y-184.785
X189.865Y-186.69
X189.865Y-188.595
X189.865Y-190.5
X189.865Y-198.755
X189.865Y-200.66
X189.865Y-202.565
X189.865Y-204.47
X189.865Y-212.725
X189.865Y-214.63
X189.865Y-216.535
X189.865Y-218.44
X189.865Y-220.345
X189.865Y-222.25
X189.865Y-224.155
X189.865Y-226.06
X189.865Y-227.965
X189.865Y-229.87
X189.865Y-231.775
X189.865Y-233.68
X189.865Y-235.585
X189.865Y-244.475
X189.865Y-246.38
X189.865Y-248.285
X189.865Y-250.19
X189.865Y-258.445
X189.865Y-260.35
X189.865Y-262.255
X189.865Y-264.16
X191.77Y-184.785
X191.77Y-186.69
X191.77Y-188.595
X191.77Y-190.5
X191.77Y-198.755
X191.77Y-200.66
X191.77Y-202.565
X191.77Y-204.47
X191.77Y-212.725
X191.77Y-214.63
X191.77Y-216.535
X191.77Y-218.44
X191.77Y-220.345
X191.77Y-222.25
X191.77Y-224.155
X191.77Y-226.06
X191.77Y-227.965
X191.77Y-229.87
X191.77Y-231.775
X191.77Y-233.68
X191.77Y-235.585
X191.77Y-244.475
X191.77Y-246.38
X191.77Y-248.285
X191.77Y-250.19
X191.77Y-258.445
X191.77Y-260.35
X191.77Y-262.255
X191.77Y-264.16
X193.675Y-184.785
X193.675Y-186.69
X193.675Y-188.595
X193.675Y-190.5
X193.675Y-198.755
X193.675Y-200.66
X193.675Y-202.565
X193.675Y-204.47
X193.675Y-212.725
X193.675Y-214.63
X193.675Y-216.535
X193.675Y-224.155
X193.675Y-226.06
X193.675Y-227.965
X193.675Y-229.87
X193.675Y-231.775
X193.675Y-233.68
X193.675Y-235.585
X193.675Y-244.475
X193.675Y-246.38
X193.675Y-248.285
X193.675Y-250.19
X193.675Y-258.445
X193.675Y-260.35
X193.675Y-262.255
X193.675Y-264.16
X195.58Y-180.975
X195.58Y-182.88
X195.58Y-184.785
X195.58Y-186.69
X195.58Y-188.595
X195.58Y-190.5
X195.58Y-194.945
X195.58Y-196.85
X195.58Y-198.755
X195.58Y-200.66
X195.58Y-202.565
X195.58Y-204.47
X195.58Y-208.915
X195.58Y-210.82
X195.58Y-212.725
X195.58Y-214.63
X195.58Y-226.06
X195.58Y-227.965
X195.58Y-229.87
X195.58Y-231.775
X195.58Y-233.68
X195.58Y-235.585
X195.58Y-240.665
X195.58Y-242.57
X195.58Y-244.475
X195.58Y-246.38
X195.58Y-248.285
X195.58Y-250.19
X195.58Y-254.635
X195.58Y-256.54
X195.58Y-258.445
X195.58Y-260.35
X195.58Y-262.255
X195.58Y-264.16
X197.485Y-180.975
X197.485Y-182.88
X197.485Y-184.785
X197.485Y-186.69
X197.485Y-188.595
X197.485Y-190.5
X197.485Y-194.945
X197.485Y-196.85
X197.485Y-198.755
X197.485Y-200.66
X197.485Y-202.565
X197.485Y-204.47
X197.485Y-208.915
X197.485Y-210.82
X197.485Y-212.725
X197.485Y-214.63
X197.485Y-226.06
X197.485Y-227.965
X197.485Y-229.87
X197.485Y-231.775
X197.485Y-233.68
X197.485Y-235.585
X197.485Y-240.665
X197.485Y-242.57
X197.485Y-244.475
X197.485Y-246.38
X197.485Y-248.285
X197.485Y-250.19
X197.485Y-254.635
X197.485Y-256.54
X197.485Y-258.445
X197.485Y-260.35
X197.485Y-262.255
X197.485Y-264.16
X199.39Y-180.975
X199.39Y-182.88
X199.39Y-184.785
X199.39Y-186.69
X199.39Y-188.595
X199.39Y-190.5
X199.39Y-194.945
X199.39Y-196.85
X199.39Y-198.755
X199.39Y-200.66
X199.39Y-202.565
X199.39Y-204.47
X199.39Y-208.915
X199.39Y-210.82
X199.39Y-212.725
X199.39Y-214.63
X199.39Y-226.06
X199.39Y-227.965
X199.39Y-229.87
X199.39Y-231.775
X199.39Y-233.68
X199.39Y-235.585
X199.39Y-240.665
X199.39Y-242.57
X199.39Y-244.475
X199.39Y-246.38
X199.39Y-248.285
X199.39Y-250.19
X199.39Y-254.635
X199.39Y-256.54
X199.39Y-258.445
X199.39Y-260.35
X199.39Y-262.255
X199.39Y-264.16
X201.295Y-180.975
X201.295Y-182.88
X201.295Y-184.785
X201.295Y-186.69
X201.295Y-188.595
X201.295Y-190.5
X201.295Y-194.945
X201.295Y-196.85
X201.295Y-198.755
X201.295Y-200.66
X201.295Y-202.565
X201.295Y-204.47
X201.295Y-208.915
X201.295Y-210.82
X201.295Y-212.725
X201.295Y-214.63
X201.295Y-216.535
X201.295Y-224.155
X201.295Y-226.06
X201.295Y-227.965
X201.295Y-229.87
X201.295Y-231.775
X201.295Y-233.68
X201.295Y-235.585
X201.295Y-240.665
X201.295Y-242.57
X201.295Y-244.475
X201.295Y-246.38
X201.295Y-248.285
X201.295Y-250.19
X201.295Y-254.635
X201.295Y-256.54
X201.295Y-258.445
X201.295Y-260.35
X201.295Y-262.255
X201.295Y-264.16
X203.2Y-180.975
X203.2Y-182.88
X203.2Y-184.785
X203.2Y-186.69
X203.2Y-188.595
X203.2Y-190.5
X203.2Y-194.945
X203.2Y-196.85
X203.2Y-198.755
X203.2Y-200.66
X203.2Y-202.565
X203.2Y-204.47
X203.2Y-208.915
X203.2Y-210.82
X203.2Y-212.725
X203.2Y-214.63
X203.2Y-216.535
X203.2Y-218.44
X203.2Y-220.345
X203.2Y-222.25
X203.2Y-224.155
X203.2Y-226.06
X203.2Y-227.965
X203.2Y-229.87
X203.2Y-231.775
X203.2Y-233.68
X203.2Y-235.585
X203.2Y-240.665
X203.2Y-242.57
X203.2Y-244.475
X203.2Y-246.38
X203.2Y-248.285
X203.2Y-250.19
X203.2Y-254.635
X203.2Y-256.54
X203.2Y-258.445
X203.2Y-260.35
X203.2Y-262.255
X203.2Y-264.16
X205.105Y-180.975
X205.105Y-182.88
X205.105Y-184.785
X205.105Y-186.69
X205.105Y-188.595
X205.105Y-190.5
X205.105Y-194.945
X205.105Y-196.85
X205.105Y-198.755
X205.105Y-200.66
X205.105Y-202.565
X205.105Y-204.47
X205.105Y-208.915
X205.105Y-210.82
X205.105Y-212.725
X205.105Y-214.63
X205.105Y-216.535
X205.105Y-218.44
X205.105Y-220.345
X205.105Y-222.25
X205.105Y-224.155
X205.105Y-226.06
X205.105Y-227.965
X205.105Y-229.87
X205.105Y-231.775
X205.105Y-233.68
X205.105Y-235.585
X205.105Y-240.665
X205.105Y-242.57
X205.105Y-244.475
X205.105Y-246.38
X205.105Y-248.285
X205.105Y-250.19
X205.105Y-254.635
X205.105Y-256.54
X205.105Y-258.445
X205.105Y-260.35
X205.105Y-262.255
X205.105Y-264.16
X207.01Y-180.975
X207.01Y-182.88
X207.01Y-184.785
X207.01Y-186.69
X207.01Y-188.595
X207.01Y-190.5
X207.01Y-194.945
X207.01Y-196.85
X207.01Y-198.755
X207.01Y-200.66
X207.01Y-202.565
X207.01Y-204.47
X207.01Y-208.915
X207.01Y-210.82
X207.01Y-212.725
X207.01Y-214.63
X207.01Y-216.535
X207.01Y-218.44
X207.01Y-220.345
X207.01Y-222.25
X207.01Y-224.155
X207.01Y-226.06
X207.01Y-227.965
X207.01Y-229.87
X207.01Y-231.775
X207.01Y-233.68
X207.01Y-235.585
X207.01Y-240.665
X207.01Y-242.57
X207.01Y-244.475
X207.01Y-246.38
X207.01Y-248.285
X207.01Y-250.19
X207.01Y-254.635
X207.01Y-256.54
X207.01Y-258.445
X207.01Y-260.35
X207.01Y-262.255
X207.01Y-264.16
X208.915Y-180.975
X208.915Y-182.88
X208.915Y-184.785
X208.915Y-186.69
X208.915Y-188.595
X208.915Y-190.5
X208.915Y-194.945
X208.915Y-196.85
X208.915Y-198.755
X208.915Y-200.66
X208.915Y-202.565
X208.915Y-204.47
X208.915Y-208.915
X208.915Y-210.82
X208.915Y-212.725
X208.915Y-214.63
X208.915Y-216.535
X208.915Y-218.44
X208.915Y-220.345
X208.915Y-222.25
X208.915Y-224.155
X208.915Y-226.06
X208.915Y-227.965
X208.915Y-229.87
X208.915Y-231.775
X208.915Y-233.68
X208.915Y-235.585
X208.915Y-240.665
X208.915Y-242.57
X208.915Y-244.475
X208.915Y-246.38
X208.915Y-248.285
X208.915Y-250.19
X208.915Y-254.635
X208.915Y-256.54
X208.915Y-258.445
X208.915Y-260.35
X208.915Y-262.255
X208.915Y-264.16
X210.82Y-180.975
X210.82Y-180.975
X210.82Y-182.88
X210.82Y-184.785
X210.82Y-186.69
X210.82Y-188.595
X210.82Y-190.5
X210.82Y-194.945
X210.82Y-194.945
X210.82Y-196.85
X210.82Y-198.755
X210.82Y-200.66
X210.82Y-202.565
X210.82Y-204.47
X210.82Y-208.915
X210.82Y-210.82
X210.82Y-212.725
X210.82Y-214.63
X210.82Y-216.535
X210.82Y-218.44
X210.82Y-220.345
X210.82Y-222.25
X210.82Y-224.155
X210.82Y-226.06
X210.82Y-227.965
X210.82Y-229.87
X210.82Y-231.775
X210.82Y-233.68
X210.82Y-235.585
X210.82Y-240.665
X210.82Y-240.665
X210.82Y-242.57
X210.82Y-244.475
X210.82Y-246.38
X210.82Y-248.285
X210.82Y-250.19
X210.82Y-254.635
X210.82Y-254.635
X210.82Y-256.54
X210.82Y-258.445
X210.82Y-260.35
X210.82Y-262.255
X210.82Y-264.16
T3
X138.035Y-248.285
X138.092Y-179.705
X138.092Y-196.85
X138.092Y-213.995
X138.092Y-265.43
X138.092Y-231.14
X145.535Y-248.285
X145.592Y-179.705
X145.592Y-196.85
X145.592Y-213.995
X145.592Y-265.43
X145.592Y-231.14
X217.628Y-179.705
X217.628Y-196.85
X217.628Y-213.995
X217.628Y-248.285
X217.628Y-265.43
X217.628Y-231.14
X225.128Y-179.705
X225.128Y-196.85
X225.128Y-213.995
X225.128Y-248.285
X225.128Y-265.43
X225.128Y-231.14
T4
X78.74Y-202.184
X254.0Y-178.675
X254.0Y-208.645
T5
X165.558Y-220.218
X197.358Y-220.218
T0
M30
