%FSLAX45Y45*%
G04 Gerber Fmt 4.5, Leading zero omitted, Abs format (unit mm)*
G04 Created by KiCad (PCBNEW (6.0.1)) date 2022-02-15 00:41:12*
%MOMM*%
%LPD*%
G01*
G04 APERTURE LIST*
%TA.AperFunction,Profile*%
%ADD10C,0.100000*%
%TD*%
%ADD11C,0.200000*%
G04 APERTURE END LIST*
D10*
X11938000Y-8382000D02*
G75*
G03*
X11557000Y-8763000I0J-381000D01*
G01*
X11557000Y-14351000D02*
X11557000Y-9101700D01*
X16256000Y-8382000D02*
X11938000Y-8382000D01*
X11557000Y-8763000D02*
X11557000Y-9101700D01*
X16637000Y-8763000D02*
G75*
G03*
X16256000Y-8382000I-381000J0D01*
G01*
X16256000Y-14732000D02*
G75*
G03*
X16637000Y-14351000I0J381000D01*
G01*
X11557000Y-14351000D02*
G75*
G03*
X11938000Y-14732000I381000J0D01*
G01*
X16256000Y-14732000D02*
X11938000Y-14732000D01*
X16637000Y-14351000D02*
X16637000Y-8763000D01*
D11*
X11809619Y-15047476D02*
X11809619Y-14847476D01*
X11857238Y-14847476D01*
X11885809Y-14857000D01*
X11904857Y-14876048D01*
X11914381Y-14895095D01*
X11923905Y-14933190D01*
X11923905Y-14961762D01*
X11914381Y-14999857D01*
X11904857Y-15018905D01*
X11885809Y-15037952D01*
X11857238Y-15047476D01*
X11809619Y-15047476D01*
X12009619Y-15047476D02*
X12009619Y-14914143D01*
X12009619Y-14952238D02*
X12019143Y-14933190D01*
X12028667Y-14923667D01*
X12047714Y-14914143D01*
X12066762Y-14914143D01*
X12133428Y-15047476D02*
X12133428Y-14914143D01*
X12133428Y-14847476D02*
X12123905Y-14857000D01*
X12133428Y-14866524D01*
X12142952Y-14857000D01*
X12133428Y-14847476D01*
X12133428Y-14866524D01*
X12257238Y-15047476D02*
X12238190Y-15037952D01*
X12228667Y-15018905D01*
X12228667Y-14847476D01*
X12362000Y-15047476D02*
X12342952Y-15037952D01*
X12333428Y-15018905D01*
X12333428Y-14847476D01*
X12590571Y-15047476D02*
X12590571Y-14847476D01*
X12657238Y-14990333D01*
X12723905Y-14847476D01*
X12723905Y-15047476D01*
X12904857Y-15047476D02*
X12904857Y-14942714D01*
X12895333Y-14923667D01*
X12876286Y-14914143D01*
X12838190Y-14914143D01*
X12819143Y-14923667D01*
X12904857Y-15037952D02*
X12885809Y-15047476D01*
X12838190Y-15047476D01*
X12819143Y-15037952D01*
X12809619Y-15018905D01*
X12809619Y-14999857D01*
X12819143Y-14980809D01*
X12838190Y-14971286D01*
X12885809Y-14971286D01*
X12904857Y-14961762D01*
X13000095Y-14914143D02*
X13000095Y-15114143D01*
X13000095Y-14923667D02*
X13019143Y-14914143D01*
X13057238Y-14914143D01*
X13076286Y-14923667D01*
X13085809Y-14933190D01*
X13095333Y-14952238D01*
X13095333Y-15009381D01*
X13085809Y-15028428D01*
X13076286Y-15037952D01*
X13057238Y-15047476D01*
X13019143Y-15047476D01*
X13000095Y-15037952D01*
X13181048Y-15028428D02*
X13190571Y-15037952D01*
X13181048Y-15047476D01*
X13171524Y-15037952D01*
X13181048Y-15028428D01*
X13181048Y-15047476D01*
X13181048Y-14923667D02*
X13190571Y-14933190D01*
X13181048Y-14942714D01*
X13171524Y-14933190D01*
X13181048Y-14923667D01*
X13181048Y-14942714D01*
M02*
