M48
; DRILL file {KiCad (6.0.1)} date Tue Feb 15 00:41:11 2022
; FORMAT={-:-/ absolute / metric / decimal}
; #@! TF.CreationDate,2022-02-15T00:41:11-08:00
; #@! TF.GenerationSoftware,Kicad,Pcbnew,(6.0.1)
; #@! TF.FileFunction,Plated,1,2,PTH
FMAT,2
METRIC
; #@! TA.AperFunction,Plated,PTH,ViaDrill
T1C0.203
; #@! TA.AperFunction,Plated,PTH,ViaDrill
T2C0.400
; #@! TA.AperFunction,Plated,PTH,ViaDrill
T3C0.508
; #@! TA.AperFunction,Plated,PTH,ComponentDrill
T4C0.750
; #@! TA.AperFunction,Plated,PTH,ViaDrill
T5C0.762
; #@! TA.AperFunction,Plated,PTH,ComponentDrill
T6C0.800
; #@! TA.AperFunction,Plated,PTH,ComponentDrill
T7C1.000
; #@! TA.AperFunction,Plated,PTH,ComponentDrill
T8C1.720
; #@! TA.AperFunction,Plated,PTH,ComponentDrill
T9C2.100
; #@! TA.AperFunction,Plated,PTH,ComponentDrill
T10C6.100
%
G90
G05
T1
X125.806Y-126.314
X126.873Y-128.143
X129.667Y-140.97
X130.683Y-140.97
X131.496Y-133.858
X135.763Y-133.731
X135.763Y-134.493
X135.763Y-135.255
X135.763Y-136.017
X135.763Y-136.779
X136.525Y-133.731
X136.525Y-134.493
X136.525Y-135.255
X136.525Y-136.017
X136.525Y-136.779
X137.287Y-133.731
X137.287Y-134.493
X137.287Y-135.255
X137.287Y-136.017
X137.287Y-136.779
X138.024Y-126.288
X138.049Y-133.731
X138.049Y-134.493
X138.049Y-135.255
X138.049Y-136.017
X138.049Y-136.779
X138.811Y-133.731
X138.811Y-134.493
X138.811Y-135.255
X138.811Y-136.017
X138.811Y-136.779
X139.903Y-130.124
X140.792Y-127.991
X141.486Y-128.034
X141.961Y-126.644
X146.228Y-130.607
X146.71Y-133.909
X150.571Y-126.314
X151.867Y-128.118
T2
X118.224Y-97.638
X118.224Y-98.527
X118.224Y-99.416
X118.224Y-100.305
X118.224Y-116.815
X118.224Y-117.704
X118.224Y-118.593
X118.224Y-119.482
X119.113Y-97.638
X119.113Y-98.527
X119.113Y-99.416
X119.113Y-100.305
X119.113Y-116.815
X119.113Y-117.704
X119.113Y-118.593
X119.113Y-119.482
X120.002Y-97.638
X120.002Y-98.527
X120.002Y-99.416
X120.002Y-100.305
X120.002Y-116.815
X120.002Y-117.704
X120.002Y-118.593
X120.002Y-119.482
X120.891Y-97.638
X120.891Y-98.527
X120.891Y-99.416
X120.891Y-100.305
X120.891Y-116.815
X120.891Y-117.704
X120.891Y-118.593
X120.891Y-119.482
X121.78Y-97.638
X121.78Y-98.527
X121.78Y-99.416
X121.78Y-100.305
X121.78Y-116.815
X121.78Y-117.704
X121.78Y-118.593
X121.78Y-119.482
X123.939Y-97.638
X123.939Y-98.527
X123.939Y-99.416
X123.939Y-100.305
X123.939Y-116.815
X123.939Y-117.704
X123.939Y-118.593
X123.939Y-119.482
X124.828Y-97.638
X124.828Y-98.527
X124.828Y-99.416
X124.828Y-100.305
X124.828Y-116.815
X124.828Y-117.704
X124.828Y-118.593
X124.828Y-119.482
X125.717Y-97.638
X125.717Y-98.527
X125.717Y-99.416
X125.717Y-100.305
X125.717Y-116.815
X125.717Y-117.704
X125.717Y-118.593
X125.717Y-119.482
X126.606Y-97.638
X126.606Y-98.527
X126.606Y-99.416
X126.606Y-100.305
X126.606Y-116.815
X126.606Y-117.704
X126.606Y-118.593
X126.606Y-119.482
X127.495Y-97.638
X127.495Y-98.527
X127.495Y-99.416
X127.495Y-100.305
X127.495Y-116.815
X127.495Y-117.704
X127.495Y-118.593
X127.495Y-119.482
X130.162Y-97.638
X130.162Y-98.527
X130.162Y-99.416
X130.162Y-100.305
X130.162Y-116.815
X130.162Y-117.704
X130.162Y-118.593
X130.162Y-119.482
X131.051Y-97.638
X131.051Y-98.527
X131.051Y-99.416
X131.051Y-100.305
X131.051Y-116.815
X131.051Y-117.704
X131.051Y-118.593
X131.051Y-119.482
X131.94Y-97.638
X131.94Y-98.527
X131.94Y-99.416
X131.94Y-100.305
X131.94Y-116.815
X131.94Y-117.704
X131.94Y-118.593
X131.94Y-119.482
X132.829Y-97.638
X132.829Y-98.527
X132.829Y-99.416
X132.829Y-100.305
X132.829Y-116.815
X132.829Y-117.704
X132.829Y-118.593
X132.829Y-119.482
X133.718Y-97.638
X133.718Y-98.527
X133.718Y-99.416
X133.718Y-100.305
X133.718Y-116.815
X133.718Y-117.704
X133.718Y-118.593
X133.718Y-119.482
X135.877Y-97.638
X135.877Y-98.527
X135.877Y-99.416
X135.877Y-100.305
X135.877Y-116.815
X135.877Y-117.704
X135.877Y-118.593
X135.877Y-119.482
X136.766Y-97.638
X136.766Y-98.527
X136.766Y-99.416
X136.766Y-100.305
X136.766Y-116.815
X136.766Y-117.704
X136.766Y-118.593
X136.766Y-119.482
X137.655Y-97.638
X137.655Y-98.527
X137.655Y-99.416
X137.655Y-100.305
X137.655Y-116.815
X137.655Y-117.704
X137.655Y-118.593
X137.655Y-119.482
X138.544Y-97.638
X138.544Y-98.527
X138.544Y-99.416
X138.544Y-100.305
X138.544Y-116.815
X138.544Y-117.704
X138.544Y-118.593
X138.544Y-119.482
X139.433Y-97.638
X139.433Y-98.527
X139.433Y-99.416
X139.433Y-100.305
X139.433Y-116.815
X139.433Y-117.704
X139.433Y-118.593
X139.433Y-119.482
X140.177Y-120.777
X140.83Y-122.784
X142.227Y-97.638
X142.227Y-98.527
X142.227Y-99.416
X142.227Y-100.305
X142.354Y-116.815
X142.354Y-117.704
X142.354Y-118.593
X142.354Y-119.482
X143.116Y-97.638
X143.116Y-98.527
X143.116Y-99.416
X143.116Y-100.305
X143.243Y-116.815
X143.243Y-117.704
X143.243Y-118.593
X143.243Y-119.482
X144.005Y-97.638
X144.005Y-98.527
X144.005Y-99.416
X144.005Y-100.305
X144.132Y-116.815
X144.132Y-117.704
X144.132Y-118.593
X144.132Y-119.482
X144.894Y-97.638
X144.894Y-98.527
X144.894Y-99.416
X144.894Y-100.305
X145.021Y-116.815
X145.021Y-117.704
X145.021Y-118.593
X145.021Y-119.482
X145.783Y-97.638
X145.783Y-98.527
X145.783Y-99.416
X145.783Y-100.305
X145.91Y-116.815
X145.91Y-117.704
X145.91Y-118.593
X145.91Y-119.482
X147.942Y-97.638
X147.942Y-98.527
X147.942Y-99.416
X147.942Y-100.305
X148.069Y-116.815
X148.069Y-117.704
X148.069Y-118.593
X148.069Y-119.482
X148.831Y-97.638
X148.831Y-98.527
X148.831Y-99.416
X148.831Y-100.305
X148.958Y-116.815
X148.958Y-117.704
X148.958Y-118.593
X148.958Y-119.482
X149.72Y-97.638
X149.72Y-98.527
X149.72Y-99.416
X149.72Y-100.305
X149.847Y-116.815
X149.847Y-117.704
X149.847Y-118.593
X149.847Y-119.482
X150.609Y-97.638
X150.609Y-98.527
X150.609Y-99.416
X150.609Y-100.305
X150.736Y-116.815
X150.736Y-117.704
X150.736Y-118.593
X150.736Y-119.482
X151.498Y-97.638
X151.498Y-98.527
X151.498Y-99.416
X151.498Y-100.305
X151.625Y-116.815
X151.625Y-117.704
X151.625Y-118.593
X151.625Y-119.482
X153.162Y-122.809
T3
X127.985Y-120.65
X128.702Y-123.114
X152.273Y-120.726
T4
X142.964Y-138.37
X144.964Y-138.37
X146.964Y-138.37
X148.964Y-138.37
X150.964Y-138.37
T5
X117.348Y-104.013
X117.348Y-105.156
X117.348Y-106.299
X117.348Y-107.442
X117.348Y-108.585
X117.348Y-109.728
X117.348Y-110.871
X117.348Y-112.014
X117.348Y-113.157
X117.348Y-114.3
X118.491Y-104.013
X118.491Y-105.156
X118.491Y-106.299
X118.491Y-107.442
X118.491Y-108.585
X118.491Y-109.728
X118.491Y-110.871
X118.491Y-112.014
X118.491Y-113.157
X118.491Y-114.3
X119.634Y-104.013
X119.634Y-105.156
X119.634Y-113.157
X119.634Y-114.3
X120.777Y-104.013
X120.777Y-105.156
X120.777Y-113.157
X120.777Y-114.3
X121.92Y-104.013
X121.92Y-105.156
X121.92Y-113.157
X121.92Y-114.3
X123.063Y-104.013
X123.063Y-105.156
X123.063Y-113.157
X123.063Y-114.3
X124.206Y-104.013
X124.206Y-105.156
X124.206Y-113.157
X124.206Y-114.3
X125.349Y-104.013
X125.349Y-105.156
X125.349Y-113.157
X125.349Y-114.3
X126.492Y-104.013
X126.492Y-105.156
X126.492Y-106.299
X126.492Y-107.442
X126.492Y-108.585
X126.492Y-109.728
X126.492Y-110.871
X126.492Y-112.014
X126.492Y-113.157
X126.492Y-114.3
X127.635Y-104.013
X127.635Y-105.156
X127.635Y-106.299
X127.635Y-107.442
X127.635Y-108.585
X127.635Y-109.728
X127.635Y-110.871
X127.635Y-112.014
X127.635Y-113.157
X127.635Y-114.3
X128.524Y-141.859
X129.311Y-127.0
X129.667Y-104.013
X129.667Y-105.156
X129.667Y-106.299
X129.667Y-107.442
X129.667Y-108.585
X129.667Y-109.728
X129.667Y-110.871
X129.667Y-112.014
X129.667Y-113.157
X129.667Y-114.3
X130.48Y-143.002
X130.81Y-104.013
X130.81Y-105.156
X130.81Y-106.299
X130.81Y-107.442
X130.81Y-108.585
X130.81Y-109.728
X130.81Y-110.871
X130.81Y-112.014
X130.81Y-113.157
X130.81Y-114.3
X131.953Y-104.013
X131.953Y-105.156
X131.953Y-113.157
X131.953Y-114.3
X133.096Y-104.013
X133.096Y-105.156
X133.096Y-113.157
X133.096Y-114.3
X133.217Y-141.889
X134.239Y-104.013
X134.239Y-105.156
X134.239Y-113.157
X134.239Y-114.3
X135.382Y-104.013
X135.382Y-105.156
X135.382Y-113.157
X135.382Y-114.3
X136.525Y-104.013
X136.525Y-105.156
X136.525Y-113.157
X136.525Y-114.3
X137.668Y-104.013
X137.668Y-105.156
X137.668Y-113.157
X137.668Y-114.3
X138.811Y-104.013
X138.811Y-105.156
X138.811Y-106.299
X138.811Y-107.442
X138.811Y-108.585
X138.811Y-109.728
X138.811Y-110.871
X138.811Y-112.014
X138.811Y-113.157
X138.811Y-114.3
X139.954Y-104.013
X139.954Y-105.156
X139.954Y-106.299
X139.954Y-107.442
X139.954Y-108.585
X139.954Y-109.728
X139.954Y-110.871
X139.954Y-112.014
X139.954Y-113.157
X139.954Y-114.3
X141.961Y-126.644
X141.986Y-104.14
X141.986Y-105.41
X141.986Y-106.68
X141.986Y-107.95
X141.986Y-109.22
X141.986Y-110.49
X141.986Y-111.76
X141.986Y-113.03
X141.986Y-114.3
X143.256Y-104.14
X143.256Y-105.41
X143.256Y-106.68
X143.256Y-107.95
X143.256Y-109.22
X143.256Y-110.49
X143.256Y-111.76
X143.256Y-113.03
X143.256Y-114.3
X144.526Y-104.14
X144.526Y-105.41
X144.526Y-113.03
X144.526Y-114.3
X145.796Y-104.14
X145.796Y-105.41
X145.796Y-113.03
X145.796Y-114.3
X147.066Y-104.14
X147.066Y-105.41
X147.066Y-113.03
X147.066Y-114.3
X148.336Y-104.14
X148.336Y-105.41
X148.336Y-113.03
X148.336Y-114.3
X149.606Y-104.14
X149.606Y-105.41
X149.606Y-113.03
X149.606Y-114.3
X150.876Y-104.14
X150.876Y-105.41
X150.876Y-106.68
X150.876Y-107.95
X150.876Y-109.22
X150.876Y-110.49
X150.876Y-111.76
X150.876Y-113.03
X150.876Y-114.3
X152.146Y-104.14
X152.146Y-105.41
X152.146Y-106.68
X152.146Y-107.95
X152.146Y-109.22
X152.146Y-110.49
X152.146Y-111.76
X152.146Y-113.03
X152.146Y-114.3
T6
X157.754Y-108.585
X157.754Y-115.443
X157.754Y-122.301
X157.805Y-101.727
X160.254Y-108.585
X160.254Y-115.443
X160.254Y-122.301
X160.305Y-101.727
T7
X117.602Y-132.969
X140.716Y-145.796
X143.256Y-145.796
X145.796Y-145.796
X148.336Y-145.796
T8
X124.301Y-141.162
X135.541Y-141.162
T9
X124.301Y-145.162
X135.541Y-145.162
T10
X122.669Y-109.195
X134.734Y-109.195
X146.926Y-109.18
X158.877Y-91.186
X159.258Y-133.35
T0
M30
