%TF.GenerationSoftware,KiCad,Pcbnew,(6.0.1)*%
%TF.CreationDate,2022-02-15T00:41:15-08:00*%
%TF.ProjectId,OpenMC,4f70656e-4d43-42e6-9b69-6361645f7063,rev?*%
%TF.SameCoordinates,Original*%
%TF.FileFunction,Soldermask,Bot*%
%TF.FilePolarity,Negative*%
%FSLAX46Y46*%
G04 Gerber Fmt 4.6, Leading zero omitted, Abs format (unit mm)*
G04 Created by KiCad (PCBNEW (6.0.1)) date 2022-02-15 00:41:15*
%MOMM*%
%LPD*%
G01*
G04 APERTURE LIST*
G04 Aperture macros list*
%AMRoundRect*
0 Rectangle with rounded corners*
0 $1 Rounding radius*
0 $2 $3 $4 $5 $6 $7 $8 $9 X,Y pos of 4 corners*
0 Add a 4 corners polygon primitive as box body*
4,1,4,$2,$3,$4,$5,$6,$7,$8,$9,$2,$3,0*
0 Add four circle primitives for the rounded corners*
1,1,$1+$1,$2,$3*
1,1,$1+$1,$4,$5*
1,1,$1+$1,$6,$7*
1,1,$1+$1,$8,$9*
0 Add four rect primitives between the rounded corners*
20,1,$1+$1,$2,$3,$4,$5,0*
20,1,$1+$1,$4,$5,$6,$7,0*
20,1,$1+$1,$6,$7,$8,$9,0*
20,1,$1+$1,$8,$9,$2,$3,0*%
G04 Aperture macros list end*
%ADD10R,1.400000X1.150000*%
%ADD11C,10.160000*%
%ADD12R,1.700000X1.700000*%
%ADD13O,1.700000X1.700000*%
%ADD14R,0.300000X1.100000*%
%ADD15C,2.580000*%
%ADD16C,3.150000*%
%ADD17RoundRect,0.250000X-0.625000X0.312500X-0.625000X-0.312500X0.625000X-0.312500X0.625000X0.312500X0*%
%ADD18RoundRect,0.150000X0.150000X-0.825000X0.150000X0.825000X-0.150000X0.825000X-0.150000X-0.825000X0*%
%ADD19C,1.600000*%
%ADD20RoundRect,0.200000X0.200000X0.275000X-0.200000X0.275000X-0.200000X-0.275000X0.200000X-0.275000X0*%
%ADD21RoundRect,0.200000X0.275000X-0.200000X0.275000X0.200000X-0.275000X0.200000X-0.275000X-0.200000X0*%
%ADD22RoundRect,0.225000X-0.250000X0.225000X-0.250000X-0.225000X0.250000X-0.225000X0.250000X0.225000X0*%
%ADD23RoundRect,0.225000X-0.225000X-0.250000X0.225000X-0.250000X0.225000X0.250000X-0.225000X0.250000X0*%
%ADD24RoundRect,0.200000X-0.275000X0.200000X-0.275000X-0.200000X0.275000X-0.200000X0.275000X0.200000X0*%
%ADD25RoundRect,0.250000X0.625000X-0.375000X0.625000X0.375000X-0.625000X0.375000X-0.625000X-0.375000X0*%
%ADD26RoundRect,0.250000X-0.350000X-0.625000X0.350000X-0.625000X0.350000X0.625000X-0.350000X0.625000X0*%
%ADD27O,1.200000X1.750000*%
%ADD28R,0.600000X1.200000*%
%ADD29R,0.300000X0.800000*%
%ADD30R,0.800000X0.300000*%
%ADD31R,3.750000X3.750000*%
G04 APERTURE END LIST*
D10*
%TO.C,Y1*%
X132570400Y-134632600D03*
X130370400Y-134632600D03*
X130370400Y-133032600D03*
X132570400Y-133032600D03*
%TD*%
D11*
%TO.C,J1*%
X146926000Y-109179600D03*
%TD*%
%TO.C,J5*%
X159258000Y-133350000D03*
%TD*%
%TO.C,J2*%
X134734000Y-109194600D03*
%TD*%
D12*
%TO.C,J9*%
X117602000Y-132969000D03*
%TD*%
%TO.C,J4*%
X148336000Y-145796000D03*
D13*
X145796000Y-145796000D03*
X143256000Y-145796000D03*
X140716000Y-145796000D03*
%TD*%
D11*
%TO.C,J3*%
X158877000Y-91186000D03*
%TD*%
%TO.C,J6*%
X122669000Y-109194600D03*
%TD*%
D14*
%TO.C,J8*%
X133271000Y-140012000D03*
X132471000Y-140012000D03*
X131171000Y-140012000D03*
X130171000Y-140012000D03*
X129671000Y-140012000D03*
X128671000Y-140012000D03*
X127371000Y-140012000D03*
X126571000Y-140012000D03*
X126871000Y-140012000D03*
X127671000Y-140012000D03*
X128171000Y-140012000D03*
X129171000Y-140012000D03*
X130671000Y-140012000D03*
X131671000Y-140012000D03*
X132171000Y-140012000D03*
X132971000Y-140012000D03*
D15*
X135541000Y-141162000D03*
D16*
X135541000Y-145162000D03*
D15*
X124301000Y-141162000D03*
D16*
X124301000Y-145162000D03*
%TD*%
D17*
%TO.C,R4*%
X140512800Y-121448100D03*
X140512800Y-124373100D03*
%TD*%
%TO.C,R6*%
X138226800Y-121448100D03*
X138226800Y-124373100D03*
%TD*%
D18*
%TO.C,U3*%
X124066000Y-129195600D03*
X122796000Y-129195600D03*
X121526000Y-129195600D03*
X120256000Y-129195600D03*
X120256000Y-124245600D03*
X121526000Y-124245600D03*
X122796000Y-124245600D03*
X124066000Y-124245600D03*
%TD*%
D19*
%TO.C,C8*%
X160304800Y-101727000D03*
X157804800Y-101727000D03*
%TD*%
D20*
%TO.C,R5*%
X140118600Y-131216400D03*
X138468600Y-131216400D03*
%TD*%
D19*
%TO.C,C4*%
X160254000Y-108585000D03*
X157754000Y-108585000D03*
%TD*%
D21*
%TO.C,C2*%
X148844000Y-122237000D03*
X148844000Y-120587000D03*
%TD*%
D22*
%TO.C,C10*%
X150977600Y-141338000D03*
X150977600Y-142888000D03*
%TD*%
D23*
%TO.C,C12*%
X150659800Y-131114800D03*
X152209800Y-131114800D03*
%TD*%
D24*
%TO.C,R14*%
X145796000Y-141288000D03*
X145796000Y-142938000D03*
%TD*%
D19*
%TO.C,C6*%
X160254000Y-122301000D03*
X157754000Y-122301000D03*
%TD*%
D23*
%TO.C,C11*%
X141465000Y-134239000D03*
X143015000Y-134239000D03*
%TD*%
D25*
%TO.C,D2*%
X143002000Y-129416000D03*
X143002000Y-126616000D03*
%TD*%
D19*
%TO.C,C7*%
X160254000Y-115443000D03*
X157754000Y-115443000D03*
%TD*%
D17*
%TO.C,R12*%
X126034800Y-121448100D03*
X126034800Y-124373100D03*
%TD*%
D21*
%TO.C,C5*%
X120269000Y-122364000D03*
X120269000Y-120714000D03*
%TD*%
D26*
%TO.C,J7*%
X142964400Y-138370400D03*
D27*
X144964400Y-138370400D03*
X146964400Y-138370400D03*
X148964400Y-138370400D03*
X150964400Y-138370400D03*
%TD*%
D18*
%TO.C,U2*%
X148831000Y-129068600D03*
X147561000Y-129068600D03*
X146291000Y-129068600D03*
X145021000Y-129068600D03*
X145021000Y-124118600D03*
X146291000Y-124118600D03*
X147561000Y-124118600D03*
X148831000Y-124118600D03*
%TD*%
%TO.C,U1*%
X136258000Y-129068600D03*
X134988000Y-129068600D03*
X133718000Y-129068600D03*
X132448000Y-129068600D03*
X132448000Y-124118600D03*
X133718000Y-124118600D03*
X134988000Y-124118600D03*
X136258000Y-124118600D03*
%TD*%
D28*
%TO.C,IC2*%
X139888000Y-129393000D03*
X138938000Y-129393000D03*
X137988000Y-129393000D03*
X137988000Y-126893000D03*
X139888000Y-126893000D03*
%TD*%
%TO.C,IC4*%
X152461000Y-129393000D03*
X151511000Y-129393000D03*
X150561000Y-129393000D03*
X150561000Y-126893000D03*
X152461000Y-126893000D03*
%TD*%
D21*
%TO.C,C1*%
X136271000Y-122237000D03*
X136271000Y-120587000D03*
%TD*%
D25*
%TO.C,D3*%
X118237000Y-129543000D03*
X118237000Y-126743000D03*
%TD*%
D24*
%TO.C,R15*%
X143256000Y-141288000D03*
X143256000Y-142938000D03*
%TD*%
D21*
%TO.C,C3*%
X124079000Y-122364000D03*
X124079000Y-120714000D03*
%TD*%
D17*
%TO.C,R10*%
X128320800Y-121448100D03*
X128320800Y-124373100D03*
%TD*%
D21*
%TO.C,C15*%
X132461000Y-122237000D03*
X132461000Y-120587000D03*
%TD*%
D17*
%TO.C,R9*%
X150774400Y-121448100D03*
X150774400Y-124373100D03*
%TD*%
D21*
%TO.C,C14*%
X145034000Y-122237000D03*
X145034000Y-120587000D03*
%TD*%
D28*
%TO.C,IC3*%
X127696000Y-129647000D03*
X126746000Y-129647000D03*
X125796000Y-129647000D03*
X125796000Y-127147000D03*
X127696000Y-127147000D03*
%TD*%
D25*
%TO.C,D1*%
X130429000Y-129416000D03*
X130429000Y-126616000D03*
%TD*%
D29*
%TO.C,IC1*%
X135536999Y-132754999D03*
X136036999Y-132754999D03*
X136536999Y-132754999D03*
X137036999Y-132754999D03*
X137536999Y-132754999D03*
X138036999Y-132754999D03*
X138536999Y-132754999D03*
X139036999Y-132754999D03*
D30*
X139786999Y-133504999D03*
X139786999Y-134004999D03*
X139786999Y-134504999D03*
X139786999Y-135004999D03*
X139786999Y-135504999D03*
X139786999Y-136004999D03*
X139786999Y-136504999D03*
X139786999Y-137004999D03*
D29*
X139036999Y-137754999D03*
X138536999Y-137754999D03*
X138036999Y-137754999D03*
X137536999Y-137754999D03*
X137036999Y-137754999D03*
X136536999Y-137754999D03*
X136036999Y-137754999D03*
X135536999Y-137754999D03*
D30*
X134786999Y-137004999D03*
X134786999Y-136504999D03*
X134786999Y-136004999D03*
X134786999Y-135504999D03*
X134786999Y-135004999D03*
X134786999Y-134504999D03*
X134786999Y-134004999D03*
X134786999Y-133504999D03*
D31*
X137286999Y-135254999D03*
%TD*%
D17*
%TO.C,R7*%
X153060400Y-121448100D03*
X153060400Y-124373100D03*
%TD*%
G36*
X140391121Y-114675602D02*
G01*
X140437614Y-114729258D01*
X140449000Y-114781600D01*
X140449000Y-119990600D01*
X140428998Y-120058721D01*
X140375342Y-120105214D01*
X140323000Y-120116600D01*
X129272000Y-120116600D01*
X129203879Y-120096598D01*
X129157386Y-120042942D01*
X129146000Y-119990600D01*
X129146000Y-114781600D01*
X129166002Y-114713479D01*
X129219658Y-114666986D01*
X129272000Y-114655600D01*
X140323000Y-114655600D01*
X140391121Y-114675602D01*
G37*
G36*
X140391121Y-101721602D02*
G01*
X140437614Y-101775258D01*
X140449000Y-101827600D01*
X140449000Y-115037600D01*
X140428998Y-115105721D01*
X140375342Y-115152214D01*
X140323000Y-115163600D01*
X129272000Y-115163600D01*
X129203879Y-115143598D01*
X129157386Y-115089942D01*
X129146000Y-115037600D01*
X129146000Y-101827600D01*
X129166002Y-101759479D01*
X129219658Y-101712986D01*
X129272000Y-101701600D01*
X140323000Y-101701600D01*
X140391121Y-101721602D01*
G37*
G36*
X128072121Y-101924802D02*
G01*
X128118614Y-101978458D01*
X128130000Y-102030800D01*
X128130000Y-115037600D01*
X128109998Y-115105721D01*
X128056342Y-115152214D01*
X128004000Y-115163600D01*
X117080000Y-115163600D01*
X117011879Y-115143598D01*
X116965386Y-115089942D01*
X116954000Y-115037600D01*
X116954000Y-102030800D01*
X116974002Y-101962679D01*
X117027658Y-101916186D01*
X117080000Y-101904800D01*
X128004000Y-101904800D01*
X128072121Y-101924802D01*
G37*
G36*
X128072121Y-114675602D02*
G01*
X128118614Y-114729258D01*
X128130000Y-114781600D01*
X128130000Y-119990600D01*
X128109998Y-120058721D01*
X128056342Y-120105214D01*
X128004000Y-120116600D01*
X117080000Y-120116600D01*
X117011879Y-120096598D01*
X116965386Y-120042942D01*
X116954000Y-119990600D01*
X116954000Y-114781600D01*
X116974002Y-114713479D01*
X117027658Y-114666986D01*
X117080000Y-114655600D01*
X128004000Y-114655600D01*
X128072121Y-114675602D01*
G37*
G36*
X152456121Y-101848602D02*
G01*
X152502614Y-101902258D01*
X152514000Y-101954600D01*
X152514000Y-115037600D01*
X152493998Y-115105721D01*
X152440342Y-115152214D01*
X152388000Y-115163600D01*
X141464000Y-115163600D01*
X141395879Y-115143598D01*
X141349386Y-115089942D01*
X141338000Y-115037600D01*
X141338000Y-101954600D01*
X141358002Y-101886479D01*
X141411658Y-101839986D01*
X141464000Y-101828600D01*
X152388000Y-101828600D01*
X152456121Y-101848602D01*
G37*
G36*
X152456121Y-114548602D02*
G01*
X152502614Y-114602258D01*
X152514000Y-114654600D01*
X152514000Y-119990600D01*
X152493998Y-120058721D01*
X152440342Y-120105214D01*
X152388000Y-120116600D01*
X141464000Y-120116600D01*
X141395879Y-120096598D01*
X141349386Y-120042942D01*
X141338000Y-119990600D01*
X141338000Y-114654600D01*
X141358002Y-114586479D01*
X141411658Y-114539986D01*
X141464000Y-114528600D01*
X152388000Y-114528600D01*
X152456121Y-114548602D01*
G37*
G36*
X152342121Y-96006602D02*
G01*
X152388614Y-96060258D01*
X152400000Y-96112600D01*
X152400000Y-101321600D01*
X152379998Y-101389721D01*
X152326342Y-101436214D01*
X152274000Y-101447600D01*
X117220000Y-101447600D01*
X117151879Y-101427598D01*
X117105386Y-101373942D01*
X117094000Y-101321600D01*
X117094000Y-96112600D01*
X117114002Y-96044479D01*
X117167658Y-95997986D01*
X117220000Y-95986600D01*
X152274000Y-95986600D01*
X152342121Y-96006602D01*
G37*
M02*
