%TF.GenerationSoftware,KiCad,Pcbnew,(6.0.1)*%
%TF.CreationDate,2022-02-15T00:41:15-08:00*%
%TF.ProjectId,OpenMC,4f70656e-4d43-42e6-9b69-6361645f7063,rev?*%
%TF.SameCoordinates,Original*%
%TF.FileFunction,Soldermask,Top*%
%TF.FilePolarity,Negative*%
%FSLAX46Y46*%
G04 Gerber Fmt 4.6, Leading zero omitted, Abs format (unit mm)*
G04 Created by KiCad (PCBNEW (6.0.1)) date 2022-02-15 00:41:15*
%MOMM*%
%LPD*%
G01*
G04 APERTURE LIST*
G04 Aperture macros list*
%AMRoundRect*
0 Rectangle with rounded corners*
0 $1 Rounding radius*
0 $2 $3 $4 $5 $6 $7 $8 $9 X,Y pos of 4 corners*
0 Add a 4 corners polygon primitive as box body*
4,1,4,$2,$3,$4,$5,$6,$7,$8,$9,$2,$3,0*
0 Add four circle primitives for the rounded corners*
1,1,$1+$1,$2,$3*
1,1,$1+$1,$4,$5*
1,1,$1+$1,$6,$7*
1,1,$1+$1,$8,$9*
0 Add four rect primitives between the rounded corners*
20,1,$1+$1,$2,$3,$4,$5,0*
20,1,$1+$1,$4,$5,$6,$7,0*
20,1,$1+$1,$6,$7,$8,$9,0*
20,1,$1+$1,$8,$9,$2,$3,0*%
G04 Aperture macros list end*
%ADD10R,0.610000X1.270000*%
%ADD11R,0.610000X1.020000*%
%ADD12R,3.910000X3.810000*%
%ADD13R,3.250000X1.550000*%
%ADD14RoundRect,0.225000X0.250000X-0.225000X0.250000X0.225000X-0.250000X0.225000X-0.250000X-0.225000X0*%
%ADD15C,10.160000*%
%ADD16RoundRect,0.200000X0.275000X-0.200000X0.275000X0.200000X-0.275000X0.200000X-0.275000X-0.200000X0*%
%ADD17RoundRect,0.225000X-0.250000X0.225000X-0.250000X-0.225000X0.250000X-0.225000X0.250000X0.225000X0*%
%ADD18R,1.700000X1.700000*%
%ADD19O,1.700000X1.700000*%
%ADD20RoundRect,0.150000X0.587500X0.150000X-0.587500X0.150000X-0.587500X-0.150000X0.587500X-0.150000X0*%
%ADD21C,2.580000*%
%ADD22C,3.150000*%
%ADD23C,1.600000*%
%ADD24RoundRect,0.250000X-0.350000X-0.625000X0.350000X-0.625000X0.350000X0.625000X-0.350000X0.625000X0*%
%ADD25O,1.200000X1.750000*%
G04 APERTURE END LIST*
D10*
%TO.C,Q2*%
X147967400Y-121542000D03*
X149237400Y-121542000D03*
X150507400Y-121542000D03*
X151777400Y-121542000D03*
D11*
X147967400Y-116077000D03*
X150507400Y-116077000D03*
X151777400Y-116077000D03*
D12*
X149872400Y-118182000D03*
D11*
X149237400Y-116077000D03*
%TD*%
D10*
%TO.C,Q11*%
X123825000Y-102492000D03*
X125095000Y-102492000D03*
X126365000Y-102492000D03*
X127635000Y-102492000D03*
D12*
X125730000Y-99132000D03*
D11*
X125095000Y-97027000D03*
X126365000Y-97027000D03*
X123825000Y-97027000D03*
X127635000Y-97027000D03*
%TD*%
D13*
%TO.C,R1*%
X147015200Y-129392800D03*
X147015200Y-123692800D03*
%TD*%
D14*
%TO.C,C13*%
X126746000Y-143904000D03*
X126746000Y-142354000D03*
%TD*%
D10*
%TO.C,Q1*%
X142100000Y-102492000D03*
X143370000Y-102492000D03*
X144640000Y-102492000D03*
X145910000Y-102492000D03*
D12*
X144005000Y-99132000D03*
D11*
X142100000Y-97027000D03*
X144640000Y-97027000D03*
X143370000Y-97027000D03*
X145910000Y-97027000D03*
%TD*%
D15*
%TO.C,J1*%
X146926000Y-109179600D03*
%TD*%
D16*
%TO.C,R13*%
X144957800Y-142023600D03*
X144957800Y-140373600D03*
%TD*%
D15*
%TO.C,J5*%
X159258000Y-133350000D03*
%TD*%
D16*
%TO.C,R8*%
X148971000Y-142049000D03*
X148971000Y-140399000D03*
%TD*%
D10*
%TO.C,Q9*%
X118084600Y-102492000D03*
X119354600Y-102492000D03*
X120624600Y-102492000D03*
X121894600Y-102492000D03*
D12*
X119989600Y-99132000D03*
D11*
X121894600Y-97027000D03*
X118084600Y-97027000D03*
X119354600Y-97027000D03*
X120624600Y-97027000D03*
%TD*%
D10*
%TO.C,Q3*%
X147815000Y-102492000D03*
X149085000Y-102492000D03*
X150355000Y-102492000D03*
X151625000Y-102492000D03*
D11*
X149085000Y-97027000D03*
D12*
X149720000Y-99132000D03*
D11*
X151625000Y-97027000D03*
X150355000Y-97027000D03*
X147815000Y-97027000D03*
%TD*%
D10*
%TO.C,Q8*%
X130035000Y-121542000D03*
X131305000Y-121542000D03*
X132575000Y-121542000D03*
X133845000Y-121542000D03*
D11*
X131305000Y-116077000D03*
D12*
X131940000Y-118182000D03*
D11*
X133845000Y-116077000D03*
X132575000Y-116077000D03*
X130035000Y-116077000D03*
%TD*%
D17*
%TO.C,C9*%
X132207000Y-142354000D03*
X132207000Y-143904000D03*
%TD*%
D15*
%TO.C,J2*%
X134734000Y-109194600D03*
%TD*%
D13*
%TO.C,R3*%
X122885200Y-129443600D03*
X122885200Y-123743600D03*
%TD*%
D10*
%TO.C,Q6*%
X135724600Y-121542000D03*
X136994600Y-121542000D03*
X138264600Y-121542000D03*
X139534600Y-121542000D03*
D11*
X135724600Y-116077000D03*
X139534600Y-116077000D03*
X136994600Y-116077000D03*
D12*
X137629600Y-118182000D03*
D11*
X138264600Y-116077000D03*
%TD*%
D13*
%TO.C,R2*%
X134772400Y-129443600D03*
X134772400Y-123743600D03*
%TD*%
D10*
%TO.C,Q4*%
X142227000Y-121542000D03*
X143497000Y-121542000D03*
X144767000Y-121542000D03*
X146037000Y-121542000D03*
D11*
X142227000Y-116077000D03*
X143497000Y-116077000D03*
X144767000Y-116077000D03*
D12*
X144132000Y-118182000D03*
D11*
X146037000Y-116077000D03*
%TD*%
D10*
%TO.C,Q10*%
X123812000Y-121564400D03*
X125082000Y-121564400D03*
X126352000Y-121564400D03*
X127622000Y-121564400D03*
D12*
X125717000Y-118204400D03*
D11*
X123812000Y-116099400D03*
X125082000Y-116099400D03*
X126352000Y-116099400D03*
X127622000Y-116099400D03*
%TD*%
D10*
%TO.C,Q12*%
X118097000Y-121564400D03*
X119367000Y-121564400D03*
X120637000Y-121564400D03*
X121907000Y-121564400D03*
D12*
X120002000Y-118204400D03*
D11*
X121907000Y-116099400D03*
X120637000Y-116099400D03*
X118097000Y-116099400D03*
X119367000Y-116099400D03*
%TD*%
D16*
%TO.C,R11*%
X146989800Y-142049000D03*
X146989800Y-140399000D03*
%TD*%
D18*
%TO.C,J9*%
X117602000Y-132969000D03*
%TD*%
D10*
%TO.C,Q5*%
X130035000Y-102514400D03*
X131305000Y-102514400D03*
X132575000Y-102514400D03*
X133845000Y-102514400D03*
D11*
X130035000Y-97049400D03*
D12*
X131940000Y-99154400D03*
D11*
X132575000Y-97049400D03*
X133845000Y-97049400D03*
X131305000Y-97049400D03*
%TD*%
D10*
%TO.C,Q7*%
X135750000Y-102514400D03*
X137020000Y-102514400D03*
X138290000Y-102514400D03*
X139560000Y-102514400D03*
D11*
X135750000Y-97049400D03*
D12*
X137655000Y-99154400D03*
D11*
X137020000Y-97049400D03*
X138290000Y-97049400D03*
X139560000Y-97049400D03*
%TD*%
D18*
%TO.C,J4*%
X148336000Y-145796000D03*
D19*
X145796000Y-145796000D03*
X143256000Y-145796000D03*
X140716000Y-145796000D03*
%TD*%
D20*
%TO.C,U4*%
X130429000Y-143891000D03*
X130429000Y-141991000D03*
X128554000Y-142941000D03*
%TD*%
D15*
%TO.C,J3*%
X158877000Y-91186000D03*
%TD*%
%TO.C,J6*%
X122669000Y-109194600D03*
%TD*%
D21*
%TO.C,J8*%
X135541000Y-141162000D03*
D22*
X135541000Y-145162000D03*
D21*
X124301000Y-141162000D03*
D22*
X124301000Y-145162000D03*
%TD*%
D23*
%TO.C,C8*%
X160304800Y-101727000D03*
X157804800Y-101727000D03*
%TD*%
%TO.C,C4*%
X160254000Y-108585000D03*
X157754000Y-108585000D03*
%TD*%
%TO.C,C6*%
X160254000Y-122301000D03*
X157754000Y-122301000D03*
%TD*%
%TO.C,C7*%
X160254000Y-115443000D03*
X157754000Y-115443000D03*
%TD*%
D24*
%TO.C,J7*%
X142964400Y-138370400D03*
D25*
X144964400Y-138370400D03*
X146964400Y-138370400D03*
X148964400Y-138370400D03*
X150964400Y-138370400D03*
%TD*%
G36*
X140391121Y-101721602D02*
G01*
X140437614Y-101775258D01*
X140449000Y-101827600D01*
X140449000Y-114783600D01*
X140428998Y-114851721D01*
X140375342Y-114898214D01*
X140323000Y-114909600D01*
X129272000Y-114909600D01*
X129203879Y-114889598D01*
X129157386Y-114835942D01*
X129146000Y-114783600D01*
X129146000Y-101827600D01*
X129166002Y-101759479D01*
X129219658Y-101712986D01*
X129272000Y-101701600D01*
X140323000Y-101701600D01*
X140391121Y-101721602D01*
G37*
G36*
X128072121Y-101924802D02*
G01*
X128118614Y-101978458D01*
X128130000Y-102030800D01*
X128130000Y-114783600D01*
X128109998Y-114851721D01*
X128056342Y-114898214D01*
X128004000Y-114909600D01*
X117080000Y-114909600D01*
X117011879Y-114889598D01*
X116965386Y-114835942D01*
X116954000Y-114783600D01*
X116954000Y-102030800D01*
X116974002Y-101962679D01*
X117027658Y-101916186D01*
X117080000Y-101904800D01*
X128004000Y-101904800D01*
X128072121Y-101924802D01*
G37*
G36*
X152456121Y-101848602D02*
G01*
X152502614Y-101902258D01*
X152514000Y-101954600D01*
X152514000Y-114783600D01*
X152493998Y-114851721D01*
X152440342Y-114898214D01*
X152388000Y-114909600D01*
X141464000Y-114909600D01*
X141395879Y-114889598D01*
X141349386Y-114835942D01*
X141338000Y-114783600D01*
X141338000Y-101954600D01*
X141358002Y-101886479D01*
X141411658Y-101839986D01*
X141464000Y-101828600D01*
X152388000Y-101828600D01*
X152456121Y-101848602D01*
G37*
G36*
X158708531Y-128213013D02*
G01*
X158745076Y-128263313D01*
X158750000Y-128294400D01*
X158750000Y-136932400D01*
X158730787Y-136991531D01*
X158680487Y-137028076D01*
X158649400Y-137033000D01*
X119861600Y-137033000D01*
X119802469Y-137013787D01*
X119765924Y-136963487D01*
X119761000Y-136932400D01*
X119761000Y-128497600D01*
X119780213Y-128438469D01*
X119830513Y-128401924D01*
X119861600Y-128397000D01*
X120930400Y-128397000D01*
X120989531Y-128416213D01*
X121026076Y-128466513D01*
X121031000Y-128497600D01*
X121031000Y-130413067D01*
X121035188Y-130425957D01*
X121039377Y-130429000D01*
X124698067Y-130429000D01*
X124710957Y-130424812D01*
X124714000Y-130420623D01*
X124714000Y-128497600D01*
X124733213Y-128438469D01*
X124783513Y-128401924D01*
X124814600Y-128397000D01*
X132868400Y-128397000D01*
X132927531Y-128416213D01*
X132964076Y-128466513D01*
X132969000Y-128497600D01*
X132969000Y-130413067D01*
X132973188Y-130425957D01*
X132977377Y-130429000D01*
X136636067Y-130429000D01*
X136648957Y-130424812D01*
X136652000Y-130420623D01*
X136652000Y-128497600D01*
X136671213Y-128438469D01*
X136721513Y-128401924D01*
X136752600Y-128397000D01*
X145060400Y-128397000D01*
X145119531Y-128416213D01*
X145156076Y-128466513D01*
X145161000Y-128497600D01*
X145161000Y-130413067D01*
X145165188Y-130425957D01*
X145169377Y-130429000D01*
X148828067Y-130429000D01*
X148840957Y-130424812D01*
X148844000Y-130420623D01*
X148844000Y-128497600D01*
X148863213Y-128438469D01*
X148913513Y-128401924D01*
X148944600Y-128397000D01*
X154162067Y-128397000D01*
X154174957Y-128392812D01*
X154178000Y-128388623D01*
X154178000Y-128294400D01*
X154197213Y-128235269D01*
X154247513Y-128198724D01*
X154278600Y-128193800D01*
X158649400Y-128193800D01*
X158708531Y-128213013D01*
G37*
G36*
X140293531Y-122447213D02*
G01*
X140330076Y-122497513D01*
X140335000Y-122528600D01*
X140335000Y-124994400D01*
X140315787Y-125053531D01*
X140265487Y-125090076D01*
X140234400Y-125095000D01*
X129386600Y-125095000D01*
X129327469Y-125075787D01*
X129290924Y-125025487D01*
X129286000Y-124994400D01*
X129286000Y-124698067D01*
X132969000Y-124698067D01*
X132973188Y-124710957D01*
X132977377Y-124714000D01*
X136636067Y-124714000D01*
X136648957Y-124709812D01*
X136652000Y-124705623D01*
X136652000Y-122824933D01*
X136647812Y-122812043D01*
X136643623Y-122809000D01*
X132984933Y-122809000D01*
X132972043Y-122813188D01*
X132969000Y-122817377D01*
X132969000Y-124698067D01*
X129286000Y-124698067D01*
X129286000Y-122528600D01*
X129305213Y-122469469D01*
X129355513Y-122432924D01*
X129386600Y-122428000D01*
X140234400Y-122428000D01*
X140293531Y-122447213D01*
G37*
G36*
X158946121Y-86126002D02*
G01*
X158992614Y-86179658D01*
X159004000Y-86232000D01*
X159004000Y-91167885D01*
X159008475Y-91183124D01*
X159009865Y-91184329D01*
X159017548Y-91186000D01*
X159132000Y-91186000D01*
X159200121Y-91206002D01*
X159246614Y-91259658D01*
X159258000Y-91312000D01*
X159258000Y-96262912D01*
X159257848Y-96269094D01*
X159257081Y-96284709D01*
X159255869Y-96297018D01*
X159254636Y-96305329D01*
X159224854Y-96369777D01*
X159164956Y-96407892D01*
X159093960Y-96407574D01*
X159034407Y-96368923D01*
X159005203Y-96304210D01*
X159004000Y-96286838D01*
X159004000Y-96284115D01*
X158999525Y-96268876D01*
X158998135Y-96267671D01*
X158990452Y-96266000D01*
X117079972Y-96266000D01*
X117011851Y-96245998D01*
X116965358Y-96192342D01*
X116953972Y-96140028D01*
X116951740Y-86232028D01*
X116971727Y-86163903D01*
X117025372Y-86117398D01*
X117077740Y-86106000D01*
X158878000Y-86106000D01*
X158946121Y-86126002D01*
G37*
G36*
X128101531Y-122574213D02*
G01*
X128138076Y-122624513D01*
X128143000Y-122655600D01*
X128143000Y-124994400D01*
X128123787Y-125053531D01*
X128073487Y-125090076D01*
X128042400Y-125095000D01*
X117067600Y-125095000D01*
X117008469Y-125075787D01*
X116971924Y-125025487D01*
X116967000Y-124994400D01*
X116967000Y-124698067D01*
X121031000Y-124698067D01*
X121035188Y-124710957D01*
X121039377Y-124714000D01*
X124698067Y-124714000D01*
X124710957Y-124709812D01*
X124714000Y-124705623D01*
X124714000Y-122824933D01*
X124709812Y-122812043D01*
X124705623Y-122809000D01*
X121046933Y-122809000D01*
X121034043Y-122813188D01*
X121031000Y-122817377D01*
X121031000Y-124698067D01*
X116967000Y-124698067D01*
X116967000Y-122655600D01*
X116986213Y-122596469D01*
X117036513Y-122559924D01*
X117067600Y-122555000D01*
X128042400Y-122555000D01*
X128101531Y-122574213D01*
G37*
G36*
X158708531Y-98952213D02*
G01*
X158745076Y-99002513D01*
X158750000Y-99033600D01*
X158750000Y-133198600D01*
X158730787Y-133257731D01*
X158680487Y-133294276D01*
X158649400Y-133299200D01*
X154180470Y-133299200D01*
X154175534Y-133299079D01*
X154163016Y-133298464D01*
X154153191Y-133297496D01*
X154143247Y-133296021D01*
X154133559Y-133294094D01*
X154123808Y-133291651D01*
X154114367Y-133288787D01*
X154104895Y-133285398D01*
X154095773Y-133281619D01*
X154086675Y-133277316D01*
X154077970Y-133272664D01*
X154069349Y-133267497D01*
X154061142Y-133262013D01*
X154053066Y-133256024D01*
X154045426Y-133249754D01*
X154037973Y-133242998D01*
X154031002Y-133236027D01*
X154024246Y-133228574D01*
X154017976Y-133220934D01*
X154011987Y-133212858D01*
X154006503Y-133204651D01*
X154001336Y-133196030D01*
X153996684Y-133187325D01*
X153992381Y-133178227D01*
X153988602Y-133169105D01*
X153985213Y-133159633D01*
X153982349Y-133150192D01*
X153979906Y-133140441D01*
X153977979Y-133130753D01*
X153976504Y-133120809D01*
X153975536Y-133110984D01*
X153974921Y-133098466D01*
X153974800Y-133093530D01*
X153974800Y-128497600D01*
X153994013Y-128438469D01*
X154044313Y-128401924D01*
X154075400Y-128397000D01*
X154162067Y-128397000D01*
X154174957Y-128392812D01*
X154178000Y-128388623D01*
X154178000Y-99033600D01*
X154197213Y-98974469D01*
X154247513Y-98937924D01*
X154278600Y-98933000D01*
X158649400Y-98933000D01*
X158708531Y-98952213D01*
G37*
G36*
X152485531Y-122396413D02*
G01*
X152522076Y-122446713D01*
X152527000Y-122477800D01*
X152527000Y-124943600D01*
X152507787Y-125002731D01*
X152457487Y-125039276D01*
X152426400Y-125044200D01*
X141578600Y-125044200D01*
X141519469Y-125024987D01*
X141482924Y-124974687D01*
X141478000Y-124943600D01*
X141478000Y-124647267D01*
X145161000Y-124647267D01*
X145165188Y-124660157D01*
X145169377Y-124663200D01*
X148828067Y-124663200D01*
X148840957Y-124659012D01*
X148844000Y-124654823D01*
X148844000Y-122774133D01*
X148839812Y-122761243D01*
X148835623Y-122758200D01*
X145176933Y-122758200D01*
X145164043Y-122762388D01*
X145161000Y-122766577D01*
X145161000Y-124647267D01*
X141478000Y-124647267D01*
X141478000Y-122477800D01*
X141497213Y-122418669D01*
X141547513Y-122382124D01*
X141578600Y-122377200D01*
X152426400Y-122377200D01*
X152485531Y-122396413D01*
G37*
G36*
X158948186Y-91076532D02*
G01*
X158992581Y-91120061D01*
X159004000Y-91166613D01*
X159004000Y-91170067D01*
X159008188Y-91182957D01*
X159012377Y-91186000D01*
X163856400Y-91186000D01*
X163915531Y-91205213D01*
X163952076Y-91255513D01*
X163957000Y-91286600D01*
X163957000Y-124232400D01*
X163937787Y-124291531D01*
X163887487Y-124328076D01*
X163856400Y-124333000D01*
X159104600Y-124333000D01*
X159045469Y-124313787D01*
X159008924Y-124263487D01*
X159004000Y-124232400D01*
X159004000Y-96281933D01*
X158999812Y-96269043D01*
X158995623Y-96266000D01*
X158901400Y-96266000D01*
X158842269Y-96246787D01*
X158805724Y-96196487D01*
X158800800Y-96165400D01*
X158800800Y-91188470D01*
X158800921Y-91183534D01*
X158801536Y-91171016D01*
X158802503Y-91161194D01*
X158803888Y-91151855D01*
X158831568Y-91096182D01*
X158886685Y-91067411D01*
X158948186Y-91076532D01*
G37*
M02*
