%TF.GenerationSoftware,KiCad,Pcbnew,(6.0.1)*%
%TF.CreationDate,2022-02-15T00:41:15-08:00*%
%TF.ProjectId,OpenMC,4f70656e-4d43-42e6-9b69-6361645f7063,rev?*%
%TF.SameCoordinates,Original*%
%TF.FileFunction,Copper,L1,Top*%
%TF.FilePolarity,Positive*%
%FSLAX46Y46*%
G04 Gerber Fmt 4.6, Leading zero omitted, Abs format (unit mm)*
G04 Created by KiCad (PCBNEW (6.0.1)) date 2022-02-15 00:41:15*
%MOMM*%
%LPD*%
G01*
G04 APERTURE LIST*
G04 Aperture macros list*
%AMRoundRect*
0 Rectangle with rounded corners*
0 $1 Rounding radius*
0 $2 $3 $4 $5 $6 $7 $8 $9 X,Y pos of 4 corners*
0 Add a 4 corners polygon primitive as box body*
4,1,4,$2,$3,$4,$5,$6,$7,$8,$9,$2,$3,0*
0 Add four circle primitives for the rounded corners*
1,1,$1+$1,$2,$3*
1,1,$1+$1,$4,$5*
1,1,$1+$1,$6,$7*
1,1,$1+$1,$8,$9*
0 Add four rect primitives between the rounded corners*
20,1,$1+$1,$2,$3,$4,$5,0*
20,1,$1+$1,$4,$5,$6,$7,0*
20,1,$1+$1,$6,$7,$8,$9,0*
20,1,$1+$1,$8,$9,$2,$3,0*%
G04 Aperture macros list end*
%TA.AperFunction,SMDPad,CuDef*%
%ADD10R,0.610000X1.270000*%
%TD*%
%TA.AperFunction,SMDPad,CuDef*%
%ADD11R,0.610000X1.020000*%
%TD*%
%TA.AperFunction,SMDPad,CuDef*%
%ADD12R,3.910000X3.810000*%
%TD*%
%TA.AperFunction,SMDPad,CuDef*%
%ADD13R,3.250000X1.550000*%
%TD*%
%TA.AperFunction,SMDPad,CuDef*%
%ADD14RoundRect,0.225000X0.250000X-0.225000X0.250000X0.225000X-0.250000X0.225000X-0.250000X-0.225000X0*%
%TD*%
%TA.AperFunction,ComponentPad*%
%ADD15C,10.160000*%
%TD*%
%TA.AperFunction,SMDPad,CuDef*%
%ADD16RoundRect,0.200000X0.275000X-0.200000X0.275000X0.200000X-0.275000X0.200000X-0.275000X-0.200000X0*%
%TD*%
%TA.AperFunction,SMDPad,CuDef*%
%ADD17RoundRect,0.225000X-0.250000X0.225000X-0.250000X-0.225000X0.250000X-0.225000X0.250000X0.225000X0*%
%TD*%
%TA.AperFunction,ComponentPad*%
%ADD18R,1.700000X1.700000*%
%TD*%
%TA.AperFunction,ComponentPad*%
%ADD19O,1.700000X1.700000*%
%TD*%
%TA.AperFunction,SMDPad,CuDef*%
%ADD20RoundRect,0.150000X0.587500X0.150000X-0.587500X0.150000X-0.587500X-0.150000X0.587500X-0.150000X0*%
%TD*%
%TA.AperFunction,ComponentPad*%
%ADD21C,2.580000*%
%TD*%
%TA.AperFunction,ComponentPad*%
%ADD22C,3.150000*%
%TD*%
%TA.AperFunction,ComponentPad*%
%ADD23C,1.600000*%
%TD*%
%TA.AperFunction,ComponentPad*%
%ADD24RoundRect,0.250000X-0.350000X-0.625000X0.350000X-0.625000X0.350000X0.625000X-0.350000X0.625000X0*%
%TD*%
%TA.AperFunction,ComponentPad*%
%ADD25O,1.200000X1.750000*%
%TD*%
%TA.AperFunction,ViaPad*%
%ADD26C,0.381000*%
%TD*%
%TA.AperFunction,ViaPad*%
%ADD27C,0.800000*%
%TD*%
%TA.AperFunction,ViaPad*%
%ADD28C,0.762000*%
%TD*%
%TA.AperFunction,ViaPad*%
%ADD29C,1.016000*%
%TD*%
%TA.AperFunction,Conductor*%
%ADD30C,0.381000*%
%TD*%
%TA.AperFunction,Conductor*%
%ADD31C,0.250000*%
%TD*%
%TA.AperFunction,Conductor*%
%ADD32C,0.203200*%
%TD*%
%TA.AperFunction,Conductor*%
%ADD33C,0.635000*%
%TD*%
%TA.AperFunction,Conductor*%
%ADD34C,0.508000*%
%TD*%
%TA.AperFunction,Conductor*%
%ADD35C,0.762000*%
%TD*%
G04 APERTURE END LIST*
D10*
%TO.P,Q2,1,S*%
%TO.N,/Driver FETs/ISA*%
X147967400Y-121542000D03*
%TO.P,Q2,2,S*%
X149237400Y-121542000D03*
%TO.P,Q2,3,S*%
X150507400Y-121542000D03*
%TO.P,Q2,4,G*%
%TO.N,/Driver FETs/AL*%
X151777400Y-121542000D03*
D11*
%TO.P,Q2,5,D*%
%TO.N,/A*%
X147967400Y-116077000D03*
X150507400Y-116077000D03*
X151777400Y-116077000D03*
D12*
X149872400Y-118182000D03*
D11*
X149237400Y-116077000D03*
%TD*%
D10*
%TO.P,Q11,1,S*%
%TO.N,/C*%
X123825000Y-102492000D03*
%TO.P,Q11,2,S*%
X125095000Y-102492000D03*
%TO.P,Q11,3,S*%
X126365000Y-102492000D03*
%TO.P,Q11,4,G*%
%TO.N,/Driver FETs/CH*%
X127635000Y-102492000D03*
D12*
%TO.P,Q11,5,D*%
%TO.N,+BATT*%
X125730000Y-99132000D03*
D11*
X125095000Y-97027000D03*
X126365000Y-97027000D03*
X123825000Y-97027000D03*
X127635000Y-97027000D03*
%TD*%
D13*
%TO.P,R1,1*%
%TO.N,Earth*%
X147015200Y-129392800D03*
%TO.P,R1,2*%
%TO.N,/Driver FETs/ISA*%
X147015200Y-123692800D03*
%TD*%
D14*
%TO.P,C13,1*%
%TO.N,/VDD*%
X126746000Y-143904000D03*
%TO.P,C13,2*%
%TO.N,Earth*%
X126746000Y-142354000D03*
%TD*%
D10*
%TO.P,Q1,1,S*%
%TO.N,/A*%
X142100000Y-102492000D03*
%TO.P,Q1,2,S*%
X143370000Y-102492000D03*
%TO.P,Q1,3,S*%
X144640000Y-102492000D03*
%TO.P,Q1,4,G*%
%TO.N,/Driver FETs/AH*%
X145910000Y-102492000D03*
D12*
%TO.P,Q1,5,D*%
%TO.N,+BATT*%
X144005000Y-99132000D03*
D11*
X142100000Y-97027000D03*
X144640000Y-97027000D03*
X143370000Y-97027000D03*
X145910000Y-97027000D03*
%TD*%
D15*
%TO.P,J1,1,Pin_1*%
%TO.N,/A*%
X146926000Y-109179600D03*
%TD*%
D16*
%TO.P,R13,1*%
%TO.N,/VDD*%
X144957800Y-142023600D03*
%TO.P,R13,2*%
%TO.N,/Controller/HALL_A*%
X144957800Y-140373600D03*
%TD*%
D15*
%TO.P,J5,1,Pin_1*%
%TO.N,Earth*%
X159258000Y-133350000D03*
%TD*%
D16*
%TO.P,R8,1*%
%TO.N,/VDD*%
X148971000Y-142049000D03*
%TO.P,R8,2*%
%TO.N,/Controller/HALL_C*%
X148971000Y-140399000D03*
%TD*%
D10*
%TO.P,Q9,1,S*%
%TO.N,/C*%
X118084600Y-102492000D03*
%TO.P,Q9,2,S*%
X119354600Y-102492000D03*
%TO.P,Q9,3,S*%
X120624600Y-102492000D03*
%TO.P,Q9,4,G*%
%TO.N,/Driver FETs/CH*%
X121894600Y-102492000D03*
D12*
%TO.P,Q9,5,D*%
%TO.N,+BATT*%
X119989600Y-99132000D03*
D11*
X121894600Y-97027000D03*
X118084600Y-97027000D03*
X119354600Y-97027000D03*
X120624600Y-97027000D03*
%TD*%
D10*
%TO.P,Q3,1,S*%
%TO.N,/A*%
X147815000Y-102492000D03*
%TO.P,Q3,2,S*%
X149085000Y-102492000D03*
%TO.P,Q3,3,S*%
X150355000Y-102492000D03*
%TO.P,Q3,4,G*%
%TO.N,/Driver FETs/AH*%
X151625000Y-102492000D03*
D11*
%TO.P,Q3,5,D*%
%TO.N,+BATT*%
X149085000Y-97027000D03*
D12*
X149720000Y-99132000D03*
D11*
X151625000Y-97027000D03*
X150355000Y-97027000D03*
X147815000Y-97027000D03*
%TD*%
D10*
%TO.P,Q8,1,S*%
%TO.N,/Driver FETs/ISB*%
X130035000Y-121542000D03*
%TO.P,Q8,2,S*%
X131305000Y-121542000D03*
%TO.P,Q8,3,S*%
X132575000Y-121542000D03*
%TO.P,Q8,4,G*%
%TO.N,/Driver FETs/BL*%
X133845000Y-121542000D03*
D11*
%TO.P,Q8,5,D*%
%TO.N,/B*%
X131305000Y-116077000D03*
D12*
X131940000Y-118182000D03*
D11*
X133845000Y-116077000D03*
X132575000Y-116077000D03*
X130035000Y-116077000D03*
%TD*%
D17*
%TO.P,C9,1*%
%TO.N,/Controller/VBUS*%
X132207000Y-142354000D03*
%TO.P,C9,2*%
%TO.N,Earth*%
X132207000Y-143904000D03*
%TD*%
D15*
%TO.P,J2,1,Pin_1*%
%TO.N,/B*%
X134734000Y-109194600D03*
%TD*%
D13*
%TO.P,R3,1*%
%TO.N,Earth*%
X122885200Y-129443600D03*
%TO.P,R3,2*%
%TO.N,/Driver FETs/ISC*%
X122885200Y-123743600D03*
%TD*%
D10*
%TO.P,Q6,1,S*%
%TO.N,/Driver FETs/ISB*%
X135724600Y-121542000D03*
%TO.P,Q6,2,S*%
X136994600Y-121542000D03*
%TO.P,Q6,3,S*%
X138264600Y-121542000D03*
%TO.P,Q6,4,G*%
%TO.N,/Driver FETs/BL*%
X139534600Y-121542000D03*
D11*
%TO.P,Q6,5,D*%
%TO.N,/B*%
X135724600Y-116077000D03*
X139534600Y-116077000D03*
X136994600Y-116077000D03*
D12*
X137629600Y-118182000D03*
D11*
X138264600Y-116077000D03*
%TD*%
D13*
%TO.P,R2,1*%
%TO.N,Earth*%
X134772400Y-129443600D03*
%TO.P,R2,2*%
%TO.N,/Driver FETs/ISB*%
X134772400Y-123743600D03*
%TD*%
D10*
%TO.P,Q4,1,S*%
%TO.N,/Driver FETs/ISA*%
X142227000Y-121542000D03*
%TO.P,Q4,2,S*%
X143497000Y-121542000D03*
%TO.P,Q4,3,S*%
X144767000Y-121542000D03*
%TO.P,Q4,4,G*%
%TO.N,/Driver FETs/AL*%
X146037000Y-121542000D03*
D11*
%TO.P,Q4,5,D*%
%TO.N,/A*%
X142227000Y-116077000D03*
X143497000Y-116077000D03*
X144767000Y-116077000D03*
D12*
X144132000Y-118182000D03*
D11*
X146037000Y-116077000D03*
%TD*%
D10*
%TO.P,Q10,1,S*%
%TO.N,/Driver FETs/ISC*%
X123812000Y-121564400D03*
%TO.P,Q10,2,S*%
X125082000Y-121564400D03*
%TO.P,Q10,3,S*%
X126352000Y-121564400D03*
%TO.P,Q10,4,G*%
%TO.N,/Driver FETs/CL*%
X127622000Y-121564400D03*
D12*
%TO.P,Q10,5,D*%
%TO.N,/C*%
X125717000Y-118204400D03*
D11*
X123812000Y-116099400D03*
X125082000Y-116099400D03*
X126352000Y-116099400D03*
X127622000Y-116099400D03*
%TD*%
D10*
%TO.P,Q12,1,S*%
%TO.N,/Driver FETs/ISC*%
X118097000Y-121564400D03*
%TO.P,Q12,2,S*%
X119367000Y-121564400D03*
%TO.P,Q12,3,S*%
X120637000Y-121564400D03*
%TO.P,Q12,4,G*%
%TO.N,/Driver FETs/CL*%
X121907000Y-121564400D03*
D12*
%TO.P,Q12,5,D*%
%TO.N,/C*%
X120002000Y-118204400D03*
D11*
X121907000Y-116099400D03*
X120637000Y-116099400D03*
X118097000Y-116099400D03*
X119367000Y-116099400D03*
%TD*%
D16*
%TO.P,R11,1*%
%TO.N,/VDD*%
X146989800Y-142049000D03*
%TO.P,R11,2*%
%TO.N,/Controller/HALL_B*%
X146989800Y-140399000D03*
%TD*%
D18*
%TO.P,J9,1,Pin_1*%
%TO.N,/Pre-Driver/V_{DRIVE}*%
X117602000Y-132969000D03*
%TD*%
D10*
%TO.P,Q5,1,S*%
%TO.N,/B*%
X130035000Y-102514400D03*
%TO.P,Q5,2,S*%
X131305000Y-102514400D03*
%TO.P,Q5,3,S*%
X132575000Y-102514400D03*
%TO.P,Q5,4,G*%
%TO.N,/Driver FETs/BH*%
X133845000Y-102514400D03*
D11*
%TO.P,Q5,5,D*%
%TO.N,+BATT*%
X130035000Y-97049400D03*
D12*
X131940000Y-99154400D03*
D11*
X132575000Y-97049400D03*
X133845000Y-97049400D03*
X131305000Y-97049400D03*
%TD*%
D10*
%TO.P,Q7,1,S*%
%TO.N,/B*%
X135750000Y-102514400D03*
%TO.P,Q7,2,S*%
X137020000Y-102514400D03*
%TO.P,Q7,3,S*%
X138290000Y-102514400D03*
%TO.P,Q7,4,G*%
%TO.N,/Driver FETs/BH*%
X139560000Y-102514400D03*
D11*
%TO.P,Q7,5,D*%
%TO.N,+BATT*%
X135750000Y-97049400D03*
D12*
X137655000Y-99154400D03*
D11*
X137020000Y-97049400D03*
X138290000Y-97049400D03*
X139560000Y-97049400D03*
%TD*%
D18*
%TO.P,J4,1,Pin_1*%
%TO.N,Earth*%
X148336000Y-145796000D03*
D19*
%TO.P,J4,2,Pin_2*%
%TO.N,/Controller/SCL*%
X145796000Y-145796000D03*
%TO.P,J4,3,Pin_3*%
%TO.N,/Controller/SDA*%
X143256000Y-145796000D03*
%TO.P,J4,4,Pin_4*%
%TO.N,/VDD*%
X140716000Y-145796000D03*
%TD*%
D20*
%TO.P,U4,1,VO*%
%TO.N,/VDD*%
X130429000Y-143891000D03*
%TO.P,U4,2,VI*%
%TO.N,/Controller/VBUS*%
X130429000Y-141991000D03*
%TO.P,U4,3,GND*%
%TO.N,Earth*%
X128554000Y-142941000D03*
%TD*%
D15*
%TO.P,J3,1,Pin_1*%
%TO.N,+BATT*%
X158877000Y-91186000D03*
%TD*%
%TO.P,J6,1,Pin_1*%
%TO.N,/C*%
X122669000Y-109194600D03*
%TD*%
D21*
%TO.P,J8,MH1,MH1*%
%TO.N,Earth*%
X135541000Y-141162000D03*
D22*
%TO.P,J8,MH2,MH2*%
X135541000Y-145162000D03*
D21*
%TO.P,J8,MH3,MH3*%
X124301000Y-141162000D03*
D22*
%TO.P,J8,MH4,MH4*%
X124301000Y-145162000D03*
%TD*%
D23*
%TO.P,C8,1*%
%TO.N,+BATT*%
X160304800Y-101727000D03*
%TO.P,C8,2*%
%TO.N,Earth*%
X157804800Y-101727000D03*
%TD*%
%TO.P,C4,1*%
%TO.N,+BATT*%
X160254000Y-108585000D03*
%TO.P,C4,2*%
%TO.N,Earth*%
X157754000Y-108585000D03*
%TD*%
%TO.P,C6,1*%
%TO.N,+BATT*%
X160254000Y-122301000D03*
%TO.P,C6,2*%
%TO.N,Earth*%
X157754000Y-122301000D03*
%TD*%
%TO.P,C7,1*%
%TO.N,+BATT*%
X160254000Y-115443000D03*
%TO.P,C7,2*%
%TO.N,Earth*%
X157754000Y-115443000D03*
%TD*%
D24*
%TO.P,J7,1,Pin_1*%
%TO.N,Earth*%
X142964400Y-138370400D03*
D25*
%TO.P,J7,2,Pin_2*%
%TO.N,/Controller/HALL_A*%
X144964400Y-138370400D03*
%TO.P,J7,3,Pin_3*%
%TO.N,/Controller/HALL_B*%
X146964400Y-138370400D03*
%TO.P,J7,4,Pin_4*%
%TO.N,/Controller/HALL_C*%
X148964400Y-138370400D03*
%TO.P,J7,5,Pin_5*%
%TO.N,/VDD*%
X150964400Y-138370400D03*
%TD*%
D26*
%TO.N,Earth*%
X131495800Y-133858000D03*
D27*
%TO.N,+BATT*%
X126606000Y-100304600D03*
X126606000Y-98526600D03*
X137655000Y-97637600D03*
X119113000Y-99415600D03*
X132829000Y-99415600D03*
X148831000Y-100304600D03*
X144005000Y-97637600D03*
X118224000Y-100304600D03*
X131051000Y-100304600D03*
X136766000Y-97637600D03*
X125717000Y-99415600D03*
X139433000Y-99415600D03*
X138544000Y-97637600D03*
X127495000Y-99415600D03*
X126606000Y-97637600D03*
X131051000Y-98526600D03*
X132829000Y-100304600D03*
X151498000Y-99415600D03*
X124828000Y-97637600D03*
X147942000Y-98526600D03*
X144005000Y-99415600D03*
X127495000Y-97637600D03*
X119113000Y-97637600D03*
X133718000Y-97637600D03*
X137655000Y-100304600D03*
X148831000Y-97637600D03*
X144005000Y-98526600D03*
X131940000Y-99415600D03*
X118224000Y-98526600D03*
X119113000Y-100304600D03*
X131051000Y-97637600D03*
X133718000Y-100304600D03*
X136766000Y-99415600D03*
X118224000Y-99415600D03*
X127495000Y-100304600D03*
X144894000Y-99415600D03*
X145783000Y-98526600D03*
X137655000Y-99415600D03*
X123939000Y-98526600D03*
X143116000Y-100304600D03*
X143116000Y-97637600D03*
X118224000Y-97637600D03*
X124828000Y-98526600D03*
X149720000Y-98526600D03*
X149720000Y-97637600D03*
X133718000Y-98526600D03*
X150609000Y-97637600D03*
X144894000Y-100304600D03*
X121780000Y-98526600D03*
X143116000Y-98526600D03*
X145783000Y-99415600D03*
X120891000Y-98526600D03*
X120002000Y-98526600D03*
X135877000Y-98526600D03*
X138544000Y-99415600D03*
X150609000Y-100304600D03*
X144894000Y-97637600D03*
X123939000Y-99415600D03*
X142227000Y-99415600D03*
X125717000Y-97637600D03*
X149720000Y-99415600D03*
X139433000Y-97637600D03*
X120002000Y-100304600D03*
X148831000Y-98526600D03*
X125717000Y-100304600D03*
X142227000Y-100304600D03*
X121780000Y-99415600D03*
X123939000Y-100304600D03*
X136766000Y-100304600D03*
X130162000Y-98526600D03*
X149720000Y-100304600D03*
X150609000Y-98526600D03*
X124828000Y-100304600D03*
X143116000Y-99415600D03*
X133718000Y-99415600D03*
X145783000Y-100304600D03*
X130162000Y-97637600D03*
X139433000Y-100304600D03*
X147942000Y-99415600D03*
X131940000Y-97637600D03*
X132829000Y-98526600D03*
X126606000Y-99415600D03*
X136766000Y-98526600D03*
X142227000Y-98526600D03*
X151498000Y-97637600D03*
X144005000Y-100304600D03*
X135877000Y-100304600D03*
X147942000Y-100304600D03*
X150609000Y-99415600D03*
X121780000Y-100304600D03*
X131940000Y-98526600D03*
X120002000Y-99415600D03*
X120891000Y-99415600D03*
X138544000Y-98526600D03*
X142227000Y-97637600D03*
X120002000Y-97637600D03*
X139433000Y-98526600D03*
X147942000Y-97637600D03*
X137655000Y-98526600D03*
X123939000Y-97637600D03*
X131940000Y-100304600D03*
X125717000Y-98526600D03*
X121780000Y-97637600D03*
X135877000Y-99415600D03*
X132829000Y-97637600D03*
X151498000Y-98526600D03*
X120891000Y-97637600D03*
X130162000Y-99415600D03*
X135877000Y-97637600D03*
X124828000Y-99415600D03*
X144894000Y-98526600D03*
X138544000Y-100304600D03*
X130162000Y-100304600D03*
X120891000Y-100304600D03*
X119113000Y-98526600D03*
X151498000Y-100304600D03*
X148831000Y-99415600D03*
X127495000Y-98526600D03*
X131051000Y-99415600D03*
X145783000Y-97637600D03*
D26*
%TO.N,Earth*%
X146710400Y-133908800D03*
X135762999Y-135254999D03*
X146227800Y-130606800D03*
X138048999Y-133730999D03*
X138810999Y-136016999D03*
X137286999Y-135254999D03*
X136524999Y-134492999D03*
X137286999Y-136778999D03*
X135762999Y-136016999D03*
X137286999Y-133730999D03*
X138810999Y-134492999D03*
X138810999Y-133730999D03*
X135762999Y-134492999D03*
X135762999Y-136778999D03*
X137286999Y-136016999D03*
X135762999Y-133730999D03*
X138048999Y-135254999D03*
X138048999Y-136016999D03*
X137286999Y-134492999D03*
X138810999Y-135254999D03*
X138048999Y-134492999D03*
X136524999Y-136778999D03*
X136524999Y-135254999D03*
X136524999Y-136016999D03*
X138048999Y-136778999D03*
X138810999Y-136778999D03*
X139903200Y-130124200D03*
X136524999Y-133730999D03*
D28*
%TO.N,/Driver FETs/AL*%
X152273000Y-120726200D03*
D27*
%TO.N,/Driver FETs/BL*%
X140176800Y-120777000D03*
D28*
%TO.N,/Driver FETs/CL*%
X127984800Y-120650000D03*
%TO.N,/Driver FETs/CH*%
X128701800Y-123113800D03*
D27*
%TO.N,/Driver FETs/BH*%
X140830000Y-122783600D03*
%TO.N,/Driver FETs/AH*%
X153162000Y-122809000D03*
D29*
%TO.N,/C*%
X117348000Y-110871000D03*
X125349000Y-105156000D03*
X125349000Y-114300000D03*
X118491000Y-110871000D03*
D27*
X127495000Y-118592600D03*
X126606000Y-118592600D03*
D29*
X124206000Y-104013000D03*
D27*
X127495000Y-116814600D03*
D29*
X123063000Y-113157000D03*
X126492000Y-104013000D03*
X124206000Y-114300000D03*
D27*
X119113000Y-118592600D03*
D29*
X117348000Y-106299000D03*
D27*
X123939000Y-116814600D03*
D29*
X124206000Y-113157000D03*
X126492000Y-114300000D03*
D27*
X121780000Y-119481600D03*
D29*
X124206000Y-105156000D03*
X126492000Y-109728000D03*
X118491000Y-107442000D03*
D27*
X126606000Y-116814600D03*
D29*
X120777000Y-105156000D03*
X127635000Y-113157000D03*
X121920000Y-113157000D03*
X118491000Y-105156000D03*
D27*
X120002000Y-117703600D03*
X120891000Y-116814600D03*
D29*
X118491000Y-113157000D03*
X127635000Y-112014000D03*
X123063000Y-104013000D03*
X117348000Y-107442000D03*
X126492000Y-106299000D03*
X127635000Y-106299000D03*
D27*
X118224000Y-116814600D03*
D29*
X127635000Y-114300000D03*
D27*
X121780000Y-116814600D03*
D29*
X118491000Y-108585000D03*
X127635000Y-104013000D03*
X126492000Y-110871000D03*
X127635000Y-105156000D03*
D27*
X124828000Y-119481600D03*
X120891000Y-118592600D03*
X119113000Y-119481600D03*
X125717000Y-116814600D03*
D29*
X120777000Y-114300000D03*
X127635000Y-110871000D03*
X118491000Y-114300000D03*
X117348000Y-108585000D03*
D27*
X118224000Y-118592600D03*
D29*
X119634000Y-105156000D03*
D27*
X120891000Y-117703600D03*
X127495000Y-119481600D03*
D29*
X118491000Y-112014000D03*
X126492000Y-105156000D03*
X117348000Y-114300000D03*
D27*
X120002000Y-116814600D03*
X125717000Y-118592600D03*
X119113000Y-117703600D03*
D29*
X126492000Y-113157000D03*
D27*
X125717000Y-119481600D03*
X120002000Y-119481600D03*
D29*
X127635000Y-108585000D03*
X117348000Y-109728000D03*
D27*
X120002000Y-118592600D03*
D29*
X127635000Y-109728000D03*
D27*
X118224000Y-119481600D03*
D29*
X120777000Y-104013000D03*
D27*
X118224000Y-117703600D03*
D29*
X125349000Y-113157000D03*
X119634000Y-113157000D03*
D27*
X126606000Y-117703600D03*
D29*
X121920000Y-105156000D03*
X118491000Y-106299000D03*
X125349000Y-104013000D03*
D27*
X124828000Y-118592600D03*
D29*
X126492000Y-108585000D03*
D27*
X123939000Y-119481600D03*
D29*
X117348000Y-105156000D03*
X120777000Y-113157000D03*
D27*
X125717000Y-117703600D03*
X127495000Y-117703600D03*
D29*
X118491000Y-109728000D03*
X117348000Y-104013000D03*
X121920000Y-114300000D03*
D27*
X124828000Y-117703600D03*
X123939000Y-117703600D03*
D29*
X118491000Y-104013000D03*
D27*
X123939000Y-118592600D03*
X121780000Y-118592600D03*
X119113000Y-116814600D03*
D29*
X121920000Y-104013000D03*
X123063000Y-114300000D03*
D27*
X124828000Y-116814600D03*
D29*
X119634000Y-114300000D03*
X126492000Y-112014000D03*
X123063000Y-105156000D03*
D27*
X126606000Y-119481600D03*
X121780000Y-117703600D03*
D29*
X126492000Y-107442000D03*
X117348000Y-113157000D03*
D27*
X120891000Y-119481600D03*
D29*
X119634000Y-104013000D03*
X117348000Y-112014000D03*
X127635000Y-107442000D03*
D27*
%TO.N,/B*%
X138544000Y-117703600D03*
D29*
X133096000Y-104013000D03*
D27*
X130162000Y-116814600D03*
X130162000Y-119481600D03*
D29*
X135382000Y-105156000D03*
D27*
X133718000Y-118592600D03*
D29*
X134239000Y-113157000D03*
X130810000Y-106299000D03*
D27*
X138544000Y-116814600D03*
D29*
X129667000Y-113157000D03*
X139954000Y-113157000D03*
D27*
X131940000Y-116814600D03*
D29*
X137668000Y-104013000D03*
D27*
X138544000Y-118592600D03*
D29*
X138811000Y-106299000D03*
X129667000Y-108585000D03*
X129667000Y-112014000D03*
D27*
X133718000Y-119481600D03*
X135877000Y-118592600D03*
D29*
X139954000Y-110871000D03*
X133096000Y-113157000D03*
X139954000Y-112014000D03*
X135382000Y-114300000D03*
X129667000Y-107442000D03*
X136525000Y-104013000D03*
D27*
X133718000Y-117703600D03*
D29*
X135382000Y-104013000D03*
X138811000Y-114300000D03*
X139954000Y-104013000D03*
D27*
X137655000Y-117703600D03*
X137655000Y-118592600D03*
D29*
X136525000Y-113157000D03*
X138811000Y-105156000D03*
D27*
X131940000Y-118592600D03*
D29*
X138811000Y-107442000D03*
X129667000Y-104013000D03*
X130810000Y-110871000D03*
D27*
X136766000Y-116814600D03*
D29*
X134239000Y-105156000D03*
D27*
X139433000Y-117703600D03*
D29*
X129667000Y-109728000D03*
X130810000Y-107442000D03*
D27*
X131051000Y-117703600D03*
D29*
X138811000Y-109728000D03*
D27*
X135877000Y-119481600D03*
D29*
X131953000Y-113157000D03*
D27*
X131051000Y-119481600D03*
X131940000Y-117703600D03*
D29*
X138811000Y-104013000D03*
D27*
X136766000Y-118592600D03*
D29*
X130810000Y-104013000D03*
X137668000Y-105156000D03*
X137668000Y-114300000D03*
D27*
X139433000Y-118592600D03*
D29*
X134239000Y-114300000D03*
X133096000Y-105156000D03*
X129667000Y-110871000D03*
X130810000Y-113157000D03*
X133096000Y-114300000D03*
X137668000Y-113157000D03*
X129667000Y-106299000D03*
X138811000Y-112014000D03*
X139954000Y-114300000D03*
D27*
X132829000Y-119481600D03*
X132829000Y-116814600D03*
D29*
X135382000Y-113157000D03*
D27*
X135877000Y-117703600D03*
D29*
X134239000Y-104013000D03*
X130810000Y-112014000D03*
X138811000Y-108585000D03*
X139954000Y-105156000D03*
X130810000Y-108585000D03*
X139954000Y-108585000D03*
D27*
X133718000Y-116814600D03*
D29*
X131953000Y-114300000D03*
D27*
X137655000Y-116814600D03*
D29*
X130810000Y-114300000D03*
X129667000Y-114300000D03*
D27*
X139433000Y-116814600D03*
D29*
X138811000Y-113157000D03*
X139954000Y-106299000D03*
D27*
X135877000Y-116814600D03*
D29*
X130810000Y-105156000D03*
D27*
X132829000Y-117703600D03*
D29*
X131953000Y-105156000D03*
D27*
X131051000Y-116814600D03*
D29*
X136525000Y-105156000D03*
D27*
X139433000Y-119481600D03*
X138544000Y-119481600D03*
X136766000Y-117703600D03*
D29*
X130810000Y-109728000D03*
D27*
X137655000Y-119481600D03*
X136766000Y-119481600D03*
X132829000Y-118592600D03*
D29*
X131953000Y-104013000D03*
D27*
X130162000Y-118592600D03*
D29*
X139954000Y-109728000D03*
D27*
X130162000Y-117703600D03*
D29*
X138811000Y-110871000D03*
X139954000Y-107442000D03*
X136525000Y-114300000D03*
D27*
X131940000Y-119481600D03*
D29*
X129667000Y-105156000D03*
D27*
X131051000Y-118592600D03*
D29*
%TO.N,/A*%
X141986000Y-109220000D03*
D27*
X148958000Y-119481600D03*
D29*
X149606000Y-105410000D03*
X143256000Y-113030000D03*
D27*
X150736000Y-119481600D03*
X151625000Y-116814600D03*
D29*
X150876000Y-107950000D03*
X152146000Y-106680000D03*
X148336000Y-113030000D03*
D27*
X145910000Y-117703600D03*
X148958000Y-116814600D03*
D29*
X152146000Y-110490000D03*
X152146000Y-107950000D03*
X143256000Y-114300000D03*
X150876000Y-110490000D03*
X144526000Y-104140000D03*
D27*
X145021000Y-117703600D03*
D29*
X150876000Y-106680000D03*
X141986000Y-111760000D03*
X150876000Y-104140000D03*
D27*
X151625000Y-118592600D03*
D29*
X147066000Y-105410000D03*
D27*
X142354000Y-118592600D03*
X145021000Y-118592600D03*
D29*
X145796000Y-105410000D03*
D27*
X149847000Y-116814600D03*
X144132000Y-117703600D03*
X150736000Y-117703600D03*
X150736000Y-118592600D03*
X144132000Y-119481600D03*
D29*
X152146000Y-113030000D03*
D27*
X148958000Y-117703600D03*
X148069000Y-116814600D03*
D29*
X152146000Y-114300000D03*
D27*
X145021000Y-116814600D03*
D29*
X144526000Y-114300000D03*
X147066000Y-113030000D03*
D27*
X149847000Y-117703600D03*
X142354000Y-116814600D03*
X148069000Y-119481600D03*
D29*
X141986000Y-114300000D03*
D27*
X142354000Y-119481600D03*
X145910000Y-116814600D03*
D29*
X145796000Y-113030000D03*
X147066000Y-104140000D03*
X143256000Y-111760000D03*
D27*
X148069000Y-117703600D03*
X145910000Y-118592600D03*
X144132000Y-116814600D03*
D29*
X148336000Y-105410000D03*
D27*
X151625000Y-117703600D03*
D29*
X141986000Y-107950000D03*
D27*
X144132000Y-118592600D03*
D29*
X144526000Y-105410000D03*
X149606000Y-114300000D03*
D27*
X149847000Y-118592600D03*
X148069000Y-118592600D03*
D29*
X152146000Y-109220000D03*
X149606000Y-113030000D03*
X141986000Y-105410000D03*
X145796000Y-104140000D03*
X150876000Y-109220000D03*
X141986000Y-110490000D03*
D27*
X143243000Y-119481600D03*
X145021000Y-119481600D03*
X143243000Y-117703600D03*
D29*
X141986000Y-104140000D03*
X150876000Y-105410000D03*
X152146000Y-105410000D03*
X143256000Y-109220000D03*
X150876000Y-111760000D03*
X141986000Y-106680000D03*
D27*
X149847000Y-119481600D03*
D29*
X141986000Y-113030000D03*
D27*
X143243000Y-118592600D03*
D29*
X143256000Y-106680000D03*
X148336000Y-114300000D03*
X150876000Y-113030000D03*
X143256000Y-107950000D03*
X148336000Y-104140000D03*
X152146000Y-104140000D03*
X145796000Y-114300000D03*
D27*
X142354000Y-117703600D03*
D29*
X150876000Y-114300000D03*
D27*
X143243000Y-116814600D03*
D29*
X143256000Y-104140000D03*
D27*
X148958000Y-118592600D03*
X150736000Y-116814600D03*
D29*
X144526000Y-113030000D03*
D27*
X145910000Y-119481600D03*
D29*
X143256000Y-110490000D03*
D27*
X151625000Y-119481600D03*
D29*
X149606000Y-104140000D03*
X152146000Y-111760000D03*
X147066000Y-114300000D03*
X143256000Y-105410000D03*
%TO.N,/VDD*%
X130479800Y-143002000D03*
%TO.N,/Pre-Driver/V_{DRIVE}*%
X129311400Y-127000000D03*
D26*
X141960600Y-126644400D03*
D29*
X141960600Y-126644400D03*
D26*
%TO.N,/Controller/I_{SENSE}A*%
X151866600Y-128117600D03*
X141486231Y-128034345D03*
%TO.N,/Controller/D-*%
X130683000Y-140970000D03*
X129667000Y-140970000D03*
D29*
%TO.N,/Controller/VBUS*%
X133217000Y-141889000D03*
X128524000Y-141859000D03*
D26*
%TO.N,/Controller/I_{SENSE}C*%
X126873000Y-128143000D03*
X140792200Y-127990600D03*
%TO.N,/Driver FETs/ISA*%
X150571200Y-126313700D03*
%TO.N,/Driver FETs/ISB*%
X138023600Y-126288300D03*
%TO.N,/Driver FETs/ISC*%
X125806200Y-126313700D03*
%TD*%
D30*
%TO.N,/Driver FETs/CH*%
X128765789Y-101790989D02*
X128765789Y-102780611D01*
X127933789Y-101466989D02*
X128441789Y-101466989D01*
X128441789Y-101466989D02*
X128765789Y-101790989D01*
X127933789Y-101466989D02*
X128149389Y-101466989D01*
X126574211Y-101466989D02*
X127933789Y-101466989D01*
X126574211Y-101466989D02*
X123983411Y-101466989D01*
X121894600Y-101625400D02*
X121894600Y-102492000D01*
X122053011Y-101466989D02*
X121894600Y-101625400D01*
X123983411Y-101466989D02*
X122053011Y-101466989D01*
X123983411Y-101466989D02*
X122994611Y-101466989D01*
%TO.N,/Driver FETs/BH*%
X133845000Y-101689200D02*
X133845000Y-102514400D01*
X134061200Y-101473000D02*
X133845000Y-101689200D01*
X139496800Y-101473000D02*
X134061200Y-101473000D01*
X139560000Y-101536200D02*
X139496800Y-101473000D01*
X139560000Y-102514400D02*
X139560000Y-101536200D01*
X139496800Y-101473000D02*
X140601400Y-101473000D01*
X140970000Y-101841600D02*
X140970000Y-122643600D01*
X140601400Y-101473000D02*
X140970000Y-101841600D01*
X140970000Y-122643600D02*
X140830000Y-122783600D01*
D31*
%TO.N,/Driver FETs/CH*%
X127635000Y-102593600D02*
X127635000Y-101625400D01*
X127635000Y-101625400D02*
X127728589Y-101531811D01*
D30*
X128765789Y-102780611D02*
X128765789Y-102083389D01*
X128765789Y-102780611D02*
X128765789Y-115303789D01*
D31*
%TO.N,/Driver FETs/AL*%
X151752000Y-121534600D02*
X151752000Y-121894600D01*
D30*
X151752000Y-120751600D02*
X151498000Y-120497600D01*
X152095200Y-120751600D02*
X151752000Y-120751600D01*
D31*
X146037000Y-121894600D02*
X146037000Y-121534600D01*
D30*
X146418000Y-120497600D02*
X146037000Y-120878600D01*
X151498000Y-120497600D02*
X146418000Y-120497600D01*
X152196800Y-120650000D02*
X152095200Y-120751600D01*
X146037000Y-120878600D02*
X146037000Y-121619600D01*
%TO.N,/Driver FETs/BL*%
X140176800Y-120745800D02*
X139928600Y-120497600D01*
D31*
X133845000Y-121894600D02*
X133845000Y-121534600D01*
D30*
X139928600Y-120497600D02*
X134226000Y-120497600D01*
X139534600Y-121542000D02*
X139534600Y-121419200D01*
X134226000Y-120497600D02*
X133845000Y-120878600D01*
X140176800Y-120777000D02*
X140176800Y-120745800D01*
X139534600Y-121419200D02*
X140176800Y-120777000D01*
X133845000Y-120878600D02*
X133845000Y-121619600D01*
%TO.N,/Driver FETs/CL*%
X127635000Y-120999800D02*
X127635000Y-121127378D01*
X127984800Y-120650000D02*
X127635000Y-120999800D01*
X123016000Y-120510600D02*
X122034000Y-120510600D01*
X127394000Y-120510600D02*
X127622000Y-120738600D01*
X127018222Y-120510600D02*
X126632000Y-120510600D01*
X121907000Y-120637600D02*
X121907000Y-121564400D01*
X126632000Y-120510600D02*
X127394000Y-120510600D01*
X122034000Y-120510600D02*
X121907000Y-120637600D01*
X127622000Y-120738600D02*
X127622000Y-121564400D01*
X126632000Y-120510600D02*
X123016000Y-120510600D01*
%TO.N,/Driver FETs/CH*%
X128651000Y-123164600D02*
X128701800Y-123113800D01*
X128778000Y-115316000D02*
X128778000Y-114685506D01*
X128765789Y-115303789D02*
X128778000Y-115316000D01*
X128701800Y-123113800D02*
X128778000Y-123037600D01*
X128778000Y-123037600D02*
X128778000Y-115316000D01*
D31*
%TO.N,/Driver FETs/BH*%
X133845000Y-102554600D02*
X133845000Y-102082600D01*
X139560000Y-101955600D02*
X139560000Y-102554600D01*
D30*
%TO.N,/Driver FETs/AH*%
X151625000Y-102554600D02*
X151625000Y-101574600D01*
X146164000Y-101447600D02*
X151498000Y-101447600D01*
X151625000Y-101574600D02*
X151498000Y-101447600D01*
X145910000Y-102554600D02*
X145910000Y-101701600D01*
D32*
X145910000Y-102554600D02*
X145910000Y-101955600D01*
D30*
X145910000Y-101701600D02*
X146164000Y-101447600D01*
X153149000Y-101955600D02*
X152641000Y-101447600D01*
X153162000Y-122809000D02*
X153162000Y-122275845D01*
X153162000Y-122275845D02*
X153149000Y-122262845D01*
X153149000Y-122262845D02*
X153149000Y-101955600D01*
X152641000Y-101447600D02*
X151498000Y-101447600D01*
D31*
X151625000Y-102082600D02*
X151625000Y-102554600D01*
D32*
%TO.N,/VDD*%
X144957800Y-142023600D02*
X144957800Y-142925800D01*
D33*
X139358389Y-143066789D02*
X145098789Y-143066789D01*
X149162789Y-143066789D02*
X150176211Y-143066789D01*
X134047211Y-143066789D02*
X139358389Y-143066789D01*
D32*
X144957800Y-142925800D02*
X145098789Y-143066789D01*
D33*
X145098789Y-143066789D02*
X146493211Y-143066789D01*
X131267200Y-145110200D02*
X132994400Y-145110200D01*
X132994400Y-145110200D02*
X133445789Y-144658811D01*
D32*
X146989800Y-142049000D02*
X146989800Y-142570200D01*
X148971000Y-142049000D02*
X148971000Y-142875000D01*
D34*
X126759000Y-143891000D02*
X126746000Y-143904000D01*
X130479800Y-143002000D02*
X130479800Y-143840200D01*
D32*
X146989800Y-143055378D02*
X147001211Y-143066789D01*
X148971000Y-142875000D02*
X149162789Y-143066789D01*
D33*
X133445789Y-144658811D02*
X133445789Y-143668211D01*
X140690600Y-143662400D02*
X140690600Y-145491200D01*
X133445789Y-143668211D02*
X134047211Y-143066789D01*
X147001211Y-143066789D02*
X149162789Y-143066789D01*
X150176211Y-143066789D02*
X150964400Y-142278600D01*
X146493211Y-143066789D02*
X147001211Y-143066789D01*
D34*
X130479800Y-143840200D02*
X130429000Y-143891000D01*
D33*
X130479800Y-143002000D02*
X130479800Y-144322800D01*
X130479800Y-144322800D02*
X131267200Y-145110200D01*
D32*
X146989800Y-142049000D02*
X146989800Y-143055378D01*
D34*
X130429000Y-143891000D02*
X126759000Y-143891000D01*
D33*
X140094989Y-143066789D02*
X140690600Y-143662400D01*
X139358389Y-143066789D02*
X140094989Y-143066789D01*
X150964400Y-142278600D02*
X150964400Y-138370400D01*
D32*
%TO.N,/Controller/HALL_C*%
X148964400Y-140392400D02*
X148971000Y-140399000D01*
X148964400Y-138370400D02*
X148964400Y-140392400D01*
%TO.N,/Controller/HALL_B*%
X146964400Y-140373600D02*
X146989800Y-140399000D01*
X146964400Y-138370400D02*
X146964400Y-140373600D01*
%TO.N,/Controller/HALL_A*%
X144964400Y-138370400D02*
X144964400Y-140367000D01*
X144964400Y-140367000D02*
X144957800Y-140373600D01*
D33*
%TO.N,/Pre-Driver/V_{DRIVE}*%
X117602000Y-127381000D02*
X117958589Y-127024411D01*
X117602000Y-132969000D02*
X117602000Y-127381000D01*
D35*
X129311400Y-127000000D02*
X129260600Y-126949200D01*
D33*
X141960600Y-126644400D02*
X141554200Y-127050800D01*
X129286989Y-127024411D02*
X129311400Y-127000000D01*
X129311400Y-127000000D02*
X141605000Y-127000000D01*
X141605000Y-127000000D02*
X141960600Y-126644400D01*
X117958589Y-127024411D02*
X129286989Y-127024411D01*
X129311400Y-127000000D02*
X129387600Y-127076200D01*
X117602000Y-132969000D02*
X117627400Y-132994400D01*
D32*
%TO.N,/Controller/I_{SENSE}A*%
X151866600Y-128117600D02*
X151815800Y-128066800D01*
X151815800Y-128066800D02*
X141518686Y-128066800D01*
X141518686Y-128066800D02*
X141486231Y-128034345D01*
%TO.N,/Controller/D-*%
X130683000Y-140970000D02*
X130429000Y-141224000D01*
X129667000Y-140970000D02*
X129921000Y-141224000D01*
X129921000Y-141224000D02*
X130429000Y-141224000D01*
%TO.N,/Controller/VBUS*%
X132351000Y-141925000D02*
X132237000Y-142039000D01*
X133253000Y-141925000D02*
X132351000Y-141925000D01*
D34*
X132237000Y-142039000D02*
X133067000Y-142039000D01*
X133067000Y-142039000D02*
X133217000Y-141889000D01*
X128524000Y-141859000D02*
X128656000Y-141991000D01*
X130429000Y-141991000D02*
X132189000Y-141991000D01*
X128656000Y-141991000D02*
X130429000Y-141991000D01*
X132189000Y-141991000D02*
X132237000Y-142039000D01*
D32*
%TO.N,/Controller/I_{SENSE}C*%
X140792200Y-127990600D02*
X140639800Y-128143000D01*
X140639800Y-128143000D02*
X126873000Y-128143000D01*
%TO.N,/Driver FETs/ISA*%
X149880000Y-125923000D02*
X147259000Y-125923000D01*
X147015200Y-125679200D02*
X147015200Y-123692800D01*
X147259000Y-125923000D02*
X147015200Y-125679200D01*
X149880000Y-125923000D02*
X150180500Y-125923000D01*
X150180500Y-125923000D02*
X150571200Y-126313700D01*
%TO.N,/Driver FETs/ISB*%
X135067000Y-125923000D02*
X134772400Y-125628400D01*
X137658300Y-125923000D02*
X135067000Y-125923000D01*
X138023600Y-126288300D02*
X137658300Y-125923000D01*
X134772400Y-125628400D02*
X134772400Y-123743600D01*
%TO.N,/Driver FETs/ISC*%
X122885200Y-125552200D02*
X122885200Y-123743600D01*
X123129000Y-125796000D02*
X122885200Y-125552200D01*
X125729500Y-126313700D02*
X125806200Y-126313700D01*
X125288500Y-125796000D02*
X123129000Y-125796000D01*
X125562400Y-126146600D02*
X125729500Y-126313700D01*
X125806200Y-126313700D02*
X125288500Y-125796000D01*
%TD*%
%TA.AperFunction,Conductor*%
%TO.N,+BATT*%
G36*
X162528117Y-84329198D02*
G01*
X162546650Y-84332084D01*
X162546653Y-84332084D01*
X162553730Y-84333186D01*
X162560834Y-84332257D01*
X162560835Y-84332257D01*
X162574717Y-84330442D01*
X162593025Y-84329731D01*
X162766857Y-84338841D01*
X162899897Y-84345814D01*
X162910358Y-84346913D01*
X163128965Y-84381537D01*
X163241315Y-84399331D01*
X163251615Y-84401520D01*
X163575287Y-84488248D01*
X163585290Y-84491498D01*
X163780436Y-84566408D01*
X163898126Y-84611585D01*
X163907745Y-84615868D01*
X164206299Y-84767989D01*
X164215419Y-84773254D01*
X164496448Y-84955756D01*
X164504966Y-84961945D01*
X164765370Y-85172815D01*
X164773196Y-85179861D01*
X165010139Y-85416804D01*
X165017185Y-85424630D01*
X165228055Y-85685034D01*
X165234244Y-85693552D01*
X165416746Y-85974581D01*
X165422011Y-85983701D01*
X165574132Y-86282255D01*
X165578415Y-86291874D01*
X165698500Y-86604704D01*
X165701754Y-86614719D01*
X165788480Y-86938385D01*
X165790669Y-86948685D01*
X165843086Y-87279636D01*
X165844187Y-87290108D01*
X165859902Y-87589965D01*
X165858842Y-87610702D01*
X165856814Y-87623730D01*
X165857743Y-87630833D01*
X165861151Y-87656896D01*
X165862000Y-87669940D01*
X165862000Y-98451400D01*
X165842787Y-98510531D01*
X165792487Y-98547076D01*
X165761400Y-98552000D01*
X152654000Y-98552000D01*
X152654000Y-100952800D01*
X152634787Y-101011931D01*
X152584487Y-101048476D01*
X152553400Y-101053400D01*
X152527000Y-101053400D01*
X152527000Y-84328000D01*
X162512640Y-84328000D01*
X162528117Y-84329198D01*
G37*
%TD.AperFunction*%
%TD*%
%TA.AperFunction,Conductor*%
%TO.N,/Driver FETs/ISC*%
G36*
X121487817Y-120415213D02*
G01*
X121524362Y-120465513D01*
X121524364Y-120513782D01*
X121527421Y-120514266D01*
X121527420Y-120514267D01*
X121523743Y-120537485D01*
X121520062Y-120552815D01*
X121512800Y-120575165D01*
X121512800Y-120690241D01*
X121493587Y-120749372D01*
X121468089Y-120773888D01*
X121455140Y-120782540D01*
X121410119Y-120849920D01*
X121398300Y-120909336D01*
X121398300Y-122219464D01*
X121410119Y-122278880D01*
X121455140Y-122346260D01*
X121522520Y-122391281D01*
X121581936Y-122403100D01*
X122232064Y-122403100D01*
X122291480Y-122391281D01*
X122358860Y-122346260D01*
X122403881Y-122278880D01*
X122415700Y-122219464D01*
X122415700Y-121005400D01*
X122434913Y-120946269D01*
X122485213Y-120909724D01*
X122516300Y-120904800D01*
X127012700Y-120904800D01*
X127071831Y-120924013D01*
X127108376Y-120974313D01*
X127113300Y-121005400D01*
X127113300Y-122219464D01*
X127125119Y-122278880D01*
X127170140Y-122346260D01*
X127237520Y-122391281D01*
X127296936Y-122403100D01*
X127947064Y-122403100D01*
X128006480Y-122391281D01*
X128073860Y-122346260D01*
X128085754Y-122328459D01*
X128134580Y-122289967D01*
X128196706Y-122287526D01*
X128248402Y-122322067D01*
X128270000Y-122384349D01*
X128270000Y-122681909D01*
X128249212Y-122743150D01*
X128191066Y-122818928D01*
X128132150Y-122961163D01*
X128112055Y-123113800D01*
X128132150Y-123266437D01*
X128191066Y-123408672D01*
X128195078Y-123413900D01*
X128249212Y-123484450D01*
X128270000Y-123545691D01*
X128270000Y-125121400D01*
X128250787Y-125180531D01*
X128200487Y-125217076D01*
X128169400Y-125222000D01*
X116940600Y-125222000D01*
X116881469Y-125202787D01*
X116844924Y-125152487D01*
X116840000Y-125121400D01*
X116840000Y-120496600D01*
X116859213Y-120437469D01*
X116909513Y-120400924D01*
X116940600Y-120396000D01*
X121428686Y-120396000D01*
X121487817Y-120415213D01*
G37*
%TD.AperFunction*%
%TD*%
%TA.AperFunction,Conductor*%
%TO.N,+BATT*%
G36*
X152527000Y-101053400D02*
G01*
X146101564Y-101053400D01*
X146079214Y-101060662D01*
X146063883Y-101064343D01*
X146040667Y-101068020D01*
X146033613Y-101071614D01*
X146033614Y-101071614D01*
X146019736Y-101078685D01*
X146005151Y-101084726D01*
X145990339Y-101089539D01*
X145990336Y-101089540D01*
X145982806Y-101091987D01*
X145976401Y-101096640D01*
X145976400Y-101096641D01*
X145963798Y-101105797D01*
X145950342Y-101114043D01*
X145929407Y-101124710D01*
X145864582Y-101189535D01*
X145809184Y-101217761D01*
X145793447Y-101219000D01*
X140946553Y-101219000D01*
X140887422Y-101199787D01*
X140875418Y-101189535D01*
X140835993Y-101150110D01*
X140815058Y-101139443D01*
X140801602Y-101131197D01*
X140789000Y-101122041D01*
X140788999Y-101122040D01*
X140782594Y-101117387D01*
X140775064Y-101114940D01*
X140775061Y-101114939D01*
X140760249Y-101110126D01*
X140745664Y-101104085D01*
X140738727Y-101100550D01*
X140724733Y-101093420D01*
X140701515Y-101089743D01*
X140686185Y-101086062D01*
X140663835Y-101078800D01*
X133998765Y-101078800D01*
X133976415Y-101086062D01*
X133961085Y-101089743D01*
X133937867Y-101093420D01*
X133923873Y-101100550D01*
X133916936Y-101104085D01*
X133902351Y-101110126D01*
X133887539Y-101114939D01*
X133887536Y-101114940D01*
X133880006Y-101117387D01*
X133873601Y-101122040D01*
X133873600Y-101122041D01*
X133860998Y-101131197D01*
X133847542Y-101139443D01*
X133826607Y-101150110D01*
X133787182Y-101189535D01*
X133731784Y-101217761D01*
X133716047Y-101219000D01*
X128792953Y-101219000D01*
X128733822Y-101199787D01*
X128721818Y-101189535D01*
X128676382Y-101144099D01*
X128655447Y-101133432D01*
X128641991Y-101125186D01*
X128629389Y-101116030D01*
X128629388Y-101116029D01*
X128622983Y-101111376D01*
X128615453Y-101108929D01*
X128615450Y-101108928D01*
X128600638Y-101104115D01*
X128586053Y-101098074D01*
X128574491Y-101092183D01*
X128565122Y-101087409D01*
X128541904Y-101083732D01*
X128526574Y-101080051D01*
X128504224Y-101072789D01*
X121990576Y-101072789D01*
X121968226Y-101080051D01*
X121952896Y-101083732D01*
X121929678Y-101087409D01*
X121920309Y-101092183D01*
X121908747Y-101098074D01*
X121894162Y-101104115D01*
X121879350Y-101108928D01*
X121879347Y-101108929D01*
X121871817Y-101111376D01*
X121865412Y-101116029D01*
X121865411Y-101116030D01*
X121852809Y-101125186D01*
X121839353Y-101133432D01*
X121818418Y-101144099D01*
X121772982Y-101189535D01*
X121717584Y-101217761D01*
X121701847Y-101219000D01*
X116178600Y-101219000D01*
X116119469Y-101199787D01*
X116082924Y-101149487D01*
X116078000Y-101118400D01*
X116078000Y-87677360D01*
X116079198Y-87661883D01*
X116082084Y-87643350D01*
X116082084Y-87643347D01*
X116083186Y-87636270D01*
X116082257Y-87629165D01*
X116080442Y-87615283D01*
X116079731Y-87596975D01*
X116095813Y-87290108D01*
X116096914Y-87279636D01*
X116149331Y-86948685D01*
X116151520Y-86938385D01*
X116238246Y-86614719D01*
X116241500Y-86604704D01*
X116361585Y-86291874D01*
X116365868Y-86282255D01*
X116517989Y-85983701D01*
X116523254Y-85974581D01*
X116705756Y-85693552D01*
X116711945Y-85685034D01*
X116922815Y-85424630D01*
X116929861Y-85416804D01*
X117166804Y-85179861D01*
X117174630Y-85172815D01*
X117435034Y-84961945D01*
X117443552Y-84955756D01*
X117724581Y-84773254D01*
X117733701Y-84767989D01*
X118032255Y-84615868D01*
X118041874Y-84611585D01*
X118159564Y-84566408D01*
X118354710Y-84491498D01*
X118364713Y-84488248D01*
X118688385Y-84401520D01*
X118698685Y-84399331D01*
X118811035Y-84381537D01*
X119029642Y-84346913D01*
X119040103Y-84345814D01*
X119339968Y-84330098D01*
X119360702Y-84331158D01*
X119373730Y-84333186D01*
X119406895Y-84328849D01*
X119419940Y-84328000D01*
X152527000Y-84328000D01*
X152527000Y-101053400D01*
G37*
%TD.AperFunction*%
%TD*%
%TA.AperFunction,Conductor*%
%TO.N,/C*%
G36*
X121348176Y-101726813D02*
G01*
X121384721Y-101777113D01*
X121387712Y-101827827D01*
X121385900Y-101836936D01*
X121385900Y-103147064D01*
X121397719Y-103206480D01*
X121442740Y-103273860D01*
X121510120Y-103318881D01*
X121569536Y-103330700D01*
X122219664Y-103330700D01*
X122279080Y-103318881D01*
X122346460Y-103273860D01*
X122391481Y-103206480D01*
X122403300Y-103147064D01*
X122403300Y-101961789D01*
X122422513Y-101902658D01*
X122472813Y-101866113D01*
X122503900Y-101861189D01*
X127025700Y-101861189D01*
X127084831Y-101880402D01*
X127121376Y-101930702D01*
X127126300Y-101961789D01*
X127126300Y-103147064D01*
X127138119Y-103206480D01*
X127183140Y-103273860D01*
X127250520Y-103318881D01*
X127309936Y-103330700D01*
X127960064Y-103330700D01*
X128019480Y-103318881D01*
X128086860Y-103273860D01*
X128088837Y-103270901D01*
X128140663Y-103244495D01*
X128202071Y-103254221D01*
X128246035Y-103298185D01*
X128257000Y-103343856D01*
X128257000Y-119895000D01*
X128237787Y-119954131D01*
X128187487Y-119990676D01*
X128156400Y-119995600D01*
X116927600Y-119995600D01*
X116868469Y-119976387D01*
X116831924Y-119926087D01*
X116827000Y-119895000D01*
X116827000Y-101808200D01*
X116846213Y-101749069D01*
X116896513Y-101712524D01*
X116927600Y-101707600D01*
X121289045Y-101707600D01*
X121348176Y-101726813D01*
G37*
%TD.AperFunction*%
%TD*%
%TA.AperFunction,Conductor*%
%TO.N,/Driver FETs/ISB*%
G36*
X133586378Y-120415213D02*
G01*
X133622923Y-120465513D01*
X133622923Y-120527687D01*
X133598382Y-120567735D01*
X133522110Y-120644007D01*
X133518516Y-120651061D01*
X133511445Y-120664939D01*
X133503200Y-120678394D01*
X133497906Y-120685681D01*
X133460577Y-120715108D01*
X133460520Y-120715119D01*
X133452283Y-120720622D01*
X133452282Y-120720623D01*
X133403695Y-120753088D01*
X133393140Y-120760140D01*
X133348119Y-120827520D01*
X133336300Y-120886936D01*
X133336300Y-122197064D01*
X133348119Y-122256480D01*
X133393140Y-122323860D01*
X133460520Y-122368881D01*
X133519936Y-122380700D01*
X134170064Y-122380700D01*
X134229480Y-122368881D01*
X134296860Y-122323860D01*
X134341881Y-122256480D01*
X134353700Y-122197064D01*
X134353700Y-120992400D01*
X134372913Y-120933269D01*
X134423213Y-120896724D01*
X134454300Y-120891800D01*
X138925300Y-120891800D01*
X138984431Y-120911013D01*
X139020976Y-120961313D01*
X139025900Y-120992400D01*
X139025900Y-122197064D01*
X139037719Y-122256480D01*
X139082740Y-122323860D01*
X139150120Y-122368881D01*
X139209536Y-122380700D01*
X139859664Y-122380700D01*
X139919080Y-122368881D01*
X139986460Y-122323860D01*
X140031481Y-122256480D01*
X140043300Y-122197064D01*
X140043300Y-121509653D01*
X140062513Y-121450522D01*
X140072765Y-121438518D01*
X140096770Y-121414513D01*
X140152168Y-121386287D01*
X140167905Y-121385048D01*
X140170260Y-121385048D01*
X140176800Y-121385909D01*
X140183340Y-121385048D01*
X140327859Y-121366022D01*
X140327861Y-121366021D01*
X140334397Y-121365161D01*
X140336970Y-121364095D01*
X140397452Y-121367265D01*
X140445770Y-121406392D01*
X140462000Y-121461183D01*
X140462000Y-122255419D01*
X140442787Y-122314550D01*
X140422644Y-122335228D01*
X140399436Y-122353036D01*
X140395423Y-122358266D01*
X140395422Y-122358267D01*
X140378949Y-122379735D01*
X140302669Y-122479146D01*
X140241839Y-122626003D01*
X140221091Y-122783600D01*
X140241839Y-122941197D01*
X140302669Y-123088054D01*
X140399436Y-123214164D01*
X140422643Y-123231971D01*
X140457857Y-123283210D01*
X140462000Y-123311781D01*
X140462000Y-125121400D01*
X140442787Y-125180531D01*
X140392487Y-125217076D01*
X140361400Y-125222000D01*
X129259600Y-125222000D01*
X129200469Y-125202787D01*
X129163924Y-125152487D01*
X129159000Y-125121400D01*
X129159000Y-123512589D01*
X129179788Y-123451348D01*
X129208522Y-123413900D01*
X129212534Y-123408672D01*
X129271450Y-123266437D01*
X129291545Y-123113800D01*
X129288844Y-123093282D01*
X129272311Y-122967701D01*
X129272310Y-122967699D01*
X129271450Y-122961163D01*
X129212534Y-122818928D01*
X129192988Y-122793455D01*
X129172200Y-122732214D01*
X129172200Y-120496600D01*
X129191413Y-120437469D01*
X129241713Y-120400924D01*
X129272800Y-120396000D01*
X133527247Y-120396000D01*
X133586378Y-120415213D01*
G37*
%TD.AperFunction*%
%TD*%
%TA.AperFunction,Conductor*%
%TO.N,+BATT*%
G36*
X165862000Y-124359400D02*
G01*
X165842787Y-124418531D01*
X165792487Y-124455076D01*
X165761400Y-124460000D01*
X159117000Y-124460000D01*
X159057869Y-124440787D01*
X159021324Y-124390487D01*
X159016400Y-124359400D01*
X159016400Y-98552000D01*
X165862000Y-98552000D01*
X165862000Y-124359400D01*
G37*
%TD.AperFunction*%
%TD*%
%TA.AperFunction,Conductor*%
%TO.N,Earth*%
G36*
X158771731Y-98774413D02*
G01*
X158808276Y-98824713D01*
X158813200Y-98855800D01*
X158813200Y-124359400D01*
X158815702Y-124391189D01*
X158820626Y-124422276D01*
X158856932Y-124509925D01*
X158893477Y-124560225D01*
X158917445Y-124587659D01*
X158924244Y-124591721D01*
X158990226Y-124631145D01*
X158990231Y-124631147D01*
X158995076Y-124634042D01*
X159000447Y-124635787D01*
X159000451Y-124635789D01*
X159050451Y-124652035D01*
X159050456Y-124652036D01*
X159054207Y-124653255D01*
X159058103Y-124653872D01*
X159113102Y-124662583D01*
X159113106Y-124662583D01*
X159117000Y-124663200D01*
X165761400Y-124663200D01*
X165820531Y-124682413D01*
X165857076Y-124732713D01*
X165862000Y-124763800D01*
X165862000Y-143462640D01*
X165860802Y-143478117D01*
X165858689Y-143491691D01*
X165856814Y-143503730D01*
X165857743Y-143510834D01*
X165857743Y-143510835D01*
X165859558Y-143524717D01*
X165860269Y-143543025D01*
X165844187Y-143849892D01*
X165843087Y-143860358D01*
X165836140Y-143904221D01*
X165790669Y-144191315D01*
X165788480Y-144201615D01*
X165784618Y-144216027D01*
X165703881Y-144517344D01*
X165701754Y-144525281D01*
X165698502Y-144535290D01*
X165632853Y-144706310D01*
X165578415Y-144848126D01*
X165574132Y-144857745D01*
X165422011Y-145156299D01*
X165416746Y-145165419D01*
X165384932Y-145214409D01*
X165272086Y-145388177D01*
X165234244Y-145446448D01*
X165228057Y-145454963D01*
X165093512Y-145621114D01*
X165017185Y-145715370D01*
X165010139Y-145723196D01*
X164773196Y-145960139D01*
X164765370Y-145967185D01*
X164504966Y-146178055D01*
X164496448Y-146184244D01*
X164215419Y-146366746D01*
X164206299Y-146372011D01*
X163907745Y-146524132D01*
X163898126Y-146528415D01*
X163890082Y-146531503D01*
X163585290Y-146648502D01*
X163575287Y-146651752D01*
X163378620Y-146704449D01*
X163251615Y-146738480D01*
X163241315Y-146740669D01*
X163128965Y-146758463D01*
X162910358Y-146793087D01*
X162899897Y-146794186D01*
X162600032Y-146809902D01*
X162579298Y-146808842D01*
X162566270Y-146806814D01*
X162542656Y-146809902D01*
X162533104Y-146811151D01*
X162520060Y-146812000D01*
X146499308Y-146812000D01*
X146440177Y-146792787D01*
X146403632Y-146742487D01*
X146403632Y-146680313D01*
X146437373Y-146632126D01*
X146522291Y-146565781D01*
X146526168Y-146562752D01*
X146550383Y-146534699D01*
X146572747Y-146508789D01*
X146661191Y-146406325D01*
X146763260Y-146226652D01*
X146828486Y-146030575D01*
X146836494Y-145967185D01*
X146854034Y-145828343D01*
X146854034Y-145828340D01*
X146854385Y-145825563D01*
X146854798Y-145796000D01*
X146853349Y-145781217D01*
X146844934Y-145695398D01*
X146834633Y-145590345D01*
X146833211Y-145585635D01*
X146833210Y-145585630D01*
X146776331Y-145397238D01*
X146776329Y-145397234D01*
X146774907Y-145392523D01*
X146677895Y-145210070D01*
X146547292Y-145049935D01*
X146427206Y-144950591D01*
X146391857Y-144921348D01*
X146391856Y-144921347D01*
X146388072Y-144918217D01*
X146206301Y-144819933D01*
X146201601Y-144818478D01*
X146201596Y-144818476D01*
X146013602Y-144760283D01*
X146013600Y-144760283D01*
X146008901Y-144758828D01*
X145803392Y-144737228D01*
X145798491Y-144737674D01*
X145798488Y-144737674D01*
X145602499Y-144755510D01*
X145602496Y-144755510D01*
X145597601Y-144755956D01*
X145592887Y-144757343D01*
X145592884Y-144757344D01*
X145479620Y-144790680D01*
X145399367Y-144814300D01*
X145395007Y-144816579D01*
X145395003Y-144816581D01*
X145246326Y-144894308D01*
X145216241Y-144910036D01*
X145212402Y-144913123D01*
X145212400Y-144913124D01*
X145202169Y-144921350D01*
X145055198Y-145039518D01*
X145052037Y-145043285D01*
X145052036Y-145043286D01*
X145046457Y-145049935D01*
X144922371Y-145197814D01*
X144822821Y-145378895D01*
X144821333Y-145383585D01*
X144821332Y-145383588D01*
X144793813Y-145470340D01*
X144760339Y-145575864D01*
X144759790Y-145580755D01*
X144759790Y-145580757D01*
X144753670Y-145635323D01*
X144737305Y-145781217D01*
X144754596Y-145987133D01*
X144811555Y-146185770D01*
X144906010Y-146369560D01*
X145034364Y-146531503D01*
X145038112Y-146534693D01*
X145038118Y-146534699D01*
X145155725Y-146634789D01*
X145188304Y-146687744D01*
X145183535Y-146749735D01*
X145143238Y-146797083D01*
X145090525Y-146812000D01*
X143959308Y-146812000D01*
X143900177Y-146792787D01*
X143863632Y-146742487D01*
X143863632Y-146680313D01*
X143897373Y-146632126D01*
X143982291Y-146565781D01*
X143986168Y-146562752D01*
X144010383Y-146534699D01*
X144032747Y-146508789D01*
X144121191Y-146406325D01*
X144223260Y-146226652D01*
X144288486Y-146030575D01*
X144296494Y-145967185D01*
X144314034Y-145828343D01*
X144314034Y-145828340D01*
X144314385Y-145825563D01*
X144314798Y-145796000D01*
X144313349Y-145781217D01*
X144304934Y-145695398D01*
X144294633Y-145590345D01*
X144293211Y-145585635D01*
X144293210Y-145585630D01*
X144236331Y-145397238D01*
X144236329Y-145397234D01*
X144234907Y-145392523D01*
X144137895Y-145210070D01*
X144007292Y-145049935D01*
X143887206Y-144950591D01*
X143851857Y-144921348D01*
X143851856Y-144921347D01*
X143848072Y-144918217D01*
X143666301Y-144819933D01*
X143661601Y-144818478D01*
X143661596Y-144818476D01*
X143473602Y-144760283D01*
X143473600Y-144760283D01*
X143468901Y-144758828D01*
X143263392Y-144737228D01*
X143258491Y-144737674D01*
X143258488Y-144737674D01*
X143062499Y-144755510D01*
X143062496Y-144755510D01*
X143057601Y-144755956D01*
X143052887Y-144757343D01*
X143052884Y-144757344D01*
X142939620Y-144790680D01*
X142859367Y-144814300D01*
X142855007Y-144816579D01*
X142855003Y-144816581D01*
X142706326Y-144894308D01*
X142676241Y-144910036D01*
X142672402Y-144913123D01*
X142672400Y-144913124D01*
X142662169Y-144921350D01*
X142515198Y-145039518D01*
X142512037Y-145043285D01*
X142512036Y-145043286D01*
X142506457Y-145049935D01*
X142382371Y-145197814D01*
X142282821Y-145378895D01*
X142281333Y-145383585D01*
X142281332Y-145383588D01*
X142253813Y-145470340D01*
X142220339Y-145575864D01*
X142219790Y-145580755D01*
X142219790Y-145580757D01*
X142213670Y-145635323D01*
X142197305Y-145781217D01*
X142214596Y-145987133D01*
X142271555Y-146185770D01*
X142366010Y-146369560D01*
X142494364Y-146531503D01*
X142498112Y-146534693D01*
X142498118Y-146534699D01*
X142615725Y-146634789D01*
X142648304Y-146687744D01*
X142643535Y-146749735D01*
X142603238Y-146797083D01*
X142550525Y-146812000D01*
X141419308Y-146812000D01*
X141360177Y-146792787D01*
X141323632Y-146742487D01*
X141323632Y-146680313D01*
X141357373Y-146632126D01*
X141442291Y-146565781D01*
X141446168Y-146562752D01*
X141470383Y-146534699D01*
X141492747Y-146508789D01*
X141581191Y-146406325D01*
X141683260Y-146226652D01*
X141748486Y-146030575D01*
X141756494Y-145967185D01*
X141774034Y-145828343D01*
X141774034Y-145828340D01*
X141774385Y-145825563D01*
X141774798Y-145796000D01*
X141773349Y-145781217D01*
X141764934Y-145695398D01*
X141754633Y-145590345D01*
X141753211Y-145585635D01*
X141753210Y-145585630D01*
X141696331Y-145397238D01*
X141696329Y-145397234D01*
X141694907Y-145392523D01*
X141597895Y-145210070D01*
X141467292Y-145049935D01*
X141405485Y-144998804D01*
X141311860Y-144921350D01*
X141311855Y-144921347D01*
X141308072Y-144918217D01*
X141264552Y-144894686D01*
X141221676Y-144849661D01*
X141211800Y-144806193D01*
X141211800Y-143688589D01*
X141231013Y-143629458D01*
X141281313Y-143592913D01*
X141312400Y-143587989D01*
X150162410Y-143587989D01*
X150166623Y-143588077D01*
X150218873Y-143590267D01*
X150225721Y-143590554D01*
X150232392Y-143588989D01*
X150232395Y-143588989D01*
X150266681Y-143580947D01*
X150276000Y-143579220D01*
X150298856Y-143576089D01*
X150317690Y-143573509D01*
X150323981Y-143570787D01*
X150323987Y-143570785D01*
X150332292Y-143567191D01*
X150349268Y-143561577D01*
X150358070Y-143559512D01*
X150358074Y-143559511D01*
X150364748Y-143557945D01*
X150370753Y-143554644D01*
X150370755Y-143554643D01*
X150401611Y-143537680D01*
X150410120Y-143533511D01*
X150430441Y-143524717D01*
X150448745Y-143516796D01*
X150461105Y-143506787D01*
X150475948Y-143496813D01*
X150479920Y-143494629D01*
X150489885Y-143489151D01*
X150497575Y-143482513D01*
X150521493Y-143458595D01*
X150529318Y-143451549D01*
X150554396Y-143431241D01*
X150559721Y-143426929D01*
X150570946Y-143411134D01*
X150581813Y-143398275D01*
X151323186Y-142656902D01*
X151326227Y-142653986D01*
X151353594Y-142628821D01*
X151369767Y-142613949D01*
X151373379Y-142608124D01*
X151373381Y-142608121D01*
X151391939Y-142578190D01*
X151397307Y-142570380D01*
X151418599Y-142542329D01*
X151418602Y-142542323D01*
X151422746Y-142536864D01*
X151425269Y-142530492D01*
X151425271Y-142530488D01*
X151428603Y-142522072D01*
X151436638Y-142506096D01*
X151441402Y-142498412D01*
X151445016Y-142492584D01*
X151447060Y-142485551D01*
X151456754Y-142452182D01*
X151459825Y-142443214D01*
X151472790Y-142410469D01*
X151472791Y-142410464D01*
X151475314Y-142404092D01*
X151476976Y-142388276D01*
X151480420Y-142370722D01*
X151484856Y-142355454D01*
X151485600Y-142345323D01*
X151485600Y-142311495D01*
X151486151Y-142300980D01*
X151489523Y-142268893D01*
X151490240Y-142262075D01*
X151489097Y-142255318D01*
X151489097Y-142255314D01*
X151487009Y-142242972D01*
X151485600Y-142226195D01*
X151485600Y-139302239D01*
X151504813Y-139243108D01*
X151515814Y-139230363D01*
X151587143Y-139160513D01*
X151587144Y-139160511D01*
X151591163Y-139156576D01*
X151599911Y-139143003D01*
X151685792Y-139009740D01*
X151688838Y-139005014D01*
X151750507Y-138835579D01*
X151751212Y-138830000D01*
X151767704Y-138699456D01*
X151767704Y-138699449D01*
X151768100Y-138696318D01*
X151768100Y-138050067D01*
X151753086Y-137916215D01*
X151693789Y-137745936D01*
X151598240Y-137593025D01*
X151594197Y-137588953D01*
X151475150Y-137469073D01*
X151471188Y-137465083D01*
X151318948Y-137368469D01*
X151149087Y-137307984D01*
X151143499Y-137307318D01*
X151143496Y-137307317D01*
X151059567Y-137297310D01*
X150970046Y-137286635D01*
X150964451Y-137287223D01*
X150964448Y-137287223D01*
X150796316Y-137304894D01*
X150796313Y-137304895D01*
X150790725Y-137305482D01*
X150785407Y-137307292D01*
X150785404Y-137307293D01*
X150625361Y-137361776D01*
X150625359Y-137361777D01*
X150620036Y-137363589D01*
X150586603Y-137384157D01*
X150471248Y-137455124D01*
X150471244Y-137455127D01*
X150466462Y-137458069D01*
X150462450Y-137461998D01*
X150462446Y-137462001D01*
X150341657Y-137580287D01*
X150337637Y-137584224D01*
X150334591Y-137588951D01*
X150334589Y-137588953D01*
X150284252Y-137667062D01*
X150239962Y-137735786D01*
X150178293Y-137905221D01*
X150177588Y-137910798D01*
X150177588Y-137910800D01*
X150176198Y-137921807D01*
X150160700Y-138044482D01*
X150160700Y-138690733D01*
X150175714Y-138824585D01*
X150235011Y-138994864D01*
X150330560Y-139147775D01*
X150412574Y-139230363D01*
X150413983Y-139231782D01*
X150442016Y-139287277D01*
X150443200Y-139302668D01*
X150443200Y-142021042D01*
X150423987Y-142080173D01*
X150413735Y-142092177D01*
X149989788Y-142516124D01*
X149934390Y-142544350D01*
X149918653Y-142545589D01*
X149712127Y-142545589D01*
X149652996Y-142526376D01*
X149616451Y-142476076D01*
X149616451Y-142413902D01*
X149622487Y-142399327D01*
X149634727Y-142375305D01*
X149649700Y-142280770D01*
X149649700Y-141817230D01*
X149634727Y-141722695D01*
X149576671Y-141608753D01*
X149486247Y-141518329D01*
X149372305Y-141460273D01*
X149364486Y-141459035D01*
X149364484Y-141459034D01*
X149320741Y-141452106D01*
X149277770Y-141445300D01*
X148664230Y-141445300D01*
X148621259Y-141452106D01*
X148577516Y-141459034D01*
X148577514Y-141459035D01*
X148569695Y-141460273D01*
X148455753Y-141518329D01*
X148365329Y-141608753D01*
X148307273Y-141722695D01*
X148292300Y-141817230D01*
X148292300Y-142280770D01*
X148307273Y-142375305D01*
X148319509Y-142399320D01*
X148329234Y-142460727D01*
X148301007Y-142516124D01*
X148245610Y-142544351D01*
X148229873Y-142545589D01*
X147730927Y-142545589D01*
X147671796Y-142526376D01*
X147635251Y-142476076D01*
X147635251Y-142413902D01*
X147641287Y-142399327D01*
X147653527Y-142375305D01*
X147668500Y-142280770D01*
X147668500Y-141817230D01*
X147653527Y-141722695D01*
X147595471Y-141608753D01*
X147505047Y-141518329D01*
X147391105Y-141460273D01*
X147383286Y-141459035D01*
X147383284Y-141459034D01*
X147339541Y-141452106D01*
X147296570Y-141445300D01*
X146683030Y-141445300D01*
X146640059Y-141452106D01*
X146596316Y-141459034D01*
X146596314Y-141459035D01*
X146588495Y-141460273D01*
X146474553Y-141518329D01*
X146384129Y-141608753D01*
X146326073Y-141722695D01*
X146311100Y-141817230D01*
X146311100Y-142280770D01*
X146326073Y-142375305D01*
X146338309Y-142399320D01*
X146348034Y-142460727D01*
X146319807Y-142516124D01*
X146264410Y-142544351D01*
X146248673Y-142545589D01*
X145685985Y-142545589D01*
X145626854Y-142526376D01*
X145590309Y-142476076D01*
X145590309Y-142413902D01*
X145596350Y-142399318D01*
X145617932Y-142356960D01*
X145621527Y-142349905D01*
X145636500Y-142255370D01*
X145636500Y-141791830D01*
X145626789Y-141730516D01*
X145622766Y-141705116D01*
X145622765Y-141705114D01*
X145621527Y-141697295D01*
X145563471Y-141583353D01*
X145473047Y-141492929D01*
X145359105Y-141434873D01*
X145351286Y-141433635D01*
X145351284Y-141433634D01*
X145307541Y-141426706D01*
X145264570Y-141419900D01*
X144651030Y-141419900D01*
X144608059Y-141426706D01*
X144564316Y-141433634D01*
X144564314Y-141433635D01*
X144556495Y-141434873D01*
X144442553Y-141492929D01*
X144352129Y-141583353D01*
X144294073Y-141697295D01*
X144292835Y-141705114D01*
X144292834Y-141705116D01*
X144288811Y-141730516D01*
X144279100Y-141791830D01*
X144279100Y-142255370D01*
X144294073Y-142349905D01*
X144297668Y-142356960D01*
X144319250Y-142399318D01*
X144328976Y-142460727D01*
X144300750Y-142516124D01*
X144245352Y-142544350D01*
X144229615Y-142545589D01*
X140127884Y-142545589D01*
X140117369Y-142545038D01*
X140078464Y-142540949D01*
X140071707Y-142542092D01*
X140071703Y-142542092D01*
X140059361Y-142544180D01*
X140042584Y-142545589D01*
X134061012Y-142545589D01*
X134056799Y-142545501D01*
X134004549Y-142543311D01*
X133997701Y-142543024D01*
X133991030Y-142544589D01*
X133991027Y-142544589D01*
X133956741Y-142552631D01*
X133947422Y-142554358D01*
X133938487Y-142555582D01*
X133905732Y-142560069D01*
X133899441Y-142562791D01*
X133899435Y-142562793D01*
X133891130Y-142566387D01*
X133874154Y-142572001D01*
X133865352Y-142574066D01*
X133865348Y-142574067D01*
X133858674Y-142575633D01*
X133852669Y-142578934D01*
X133852667Y-142578935D01*
X133821811Y-142595898D01*
X133813301Y-142600067D01*
X133774677Y-142616782D01*
X133769348Y-142621097D01*
X133769347Y-142621098D01*
X133762317Y-142626791D01*
X133747477Y-142636763D01*
X133737640Y-142642171D01*
X133732354Y-142643180D01*
X133727383Y-142649729D01*
X133727230Y-142649871D01*
X133725847Y-142651065D01*
X133701929Y-142674983D01*
X133694104Y-142682029D01*
X133663701Y-142706649D01*
X133659732Y-142712234D01*
X133659731Y-142712235D01*
X133652476Y-142722444D01*
X133641609Y-142735303D01*
X133087003Y-143289909D01*
X133083963Y-143292824D01*
X133040422Y-143332862D01*
X133036810Y-143338687D01*
X133036808Y-143338690D01*
X133018250Y-143368621D01*
X133012882Y-143376431D01*
X132991590Y-143404482D01*
X132991587Y-143404488D01*
X132987443Y-143409947D01*
X132984920Y-143416319D01*
X132984918Y-143416323D01*
X132981586Y-143424739D01*
X132973551Y-143440714D01*
X132965173Y-143454227D01*
X132963260Y-143460812D01*
X132963259Y-143460814D01*
X132953435Y-143494629D01*
X132950364Y-143503597D01*
X132937399Y-143536342D01*
X132937398Y-143536347D01*
X132934875Y-143542719D01*
X132934159Y-143549534D01*
X132934158Y-143549537D01*
X132933213Y-143558533D01*
X132929770Y-143576085D01*
X132925333Y-143591357D01*
X132924589Y-143601488D01*
X132924589Y-143635316D01*
X132924038Y-143645830D01*
X132919949Y-143684736D01*
X132921092Y-143691493D01*
X132921092Y-143691497D01*
X132923180Y-143703839D01*
X132924589Y-143720616D01*
X132924589Y-144401253D01*
X132905376Y-144460384D01*
X132895124Y-144472388D01*
X132807977Y-144559535D01*
X132752579Y-144587761D01*
X132736842Y-144589000D01*
X131524759Y-144589000D01*
X131465628Y-144569787D01*
X131453624Y-144559535D01*
X131297023Y-144402934D01*
X131268797Y-144347538D01*
X131278523Y-144286129D01*
X131296958Y-144260731D01*
X131308434Y-144249235D01*
X131330482Y-144204131D01*
X131356717Y-144150460D01*
X131360146Y-144143445D01*
X131370200Y-144074527D01*
X131370199Y-143707474D01*
X131359967Y-143637955D01*
X131329592Y-143576089D01*
X131311736Y-143539720D01*
X131311735Y-143539719D01*
X131308071Y-143532256D01*
X131299147Y-143523347D01*
X131252329Y-143476612D01*
X131224735Y-143449066D01*
X131217269Y-143445417D01*
X131217267Y-143445415D01*
X131188269Y-143431241D01*
X131177106Y-143425784D01*
X131132420Y-143382557D01*
X131121677Y-143321318D01*
X131127945Y-143297887D01*
X131172298Y-143187554D01*
X131196570Y-143017014D01*
X131196647Y-143009609D01*
X131196693Y-143005294D01*
X131196693Y-143005287D01*
X131196727Y-143002000D01*
X131176032Y-142830989D01*
X131157471Y-142781867D01*
X131117288Y-142675527D01*
X131117287Y-142675525D01*
X131115143Y-142669851D01*
X131086942Y-142628818D01*
X131069284Y-142569207D01*
X131090038Y-142510599D01*
X131125513Y-142481537D01*
X131171421Y-142458997D01*
X131215758Y-142448700D01*
X131427701Y-142448700D01*
X131486832Y-142467913D01*
X131523377Y-142518213D01*
X131528301Y-142549300D01*
X131528301Y-142630224D01*
X131531137Y-142660238D01*
X131573850Y-142781867D01*
X131578317Y-142787914D01*
X131578317Y-142787915D01*
X131645972Y-142879511D01*
X131650440Y-142885560D01*
X131754133Y-142962150D01*
X131820537Y-142985470D01*
X131869978Y-143002832D01*
X131869979Y-143002832D01*
X131875762Y-143004863D01*
X131881861Y-143005439D01*
X131881863Y-143005440D01*
X131903412Y-143007477D01*
X131903420Y-143007477D01*
X131905775Y-143007700D01*
X131908153Y-143007700D01*
X132208144Y-143007699D01*
X132508224Y-143007699D01*
X132538238Y-143004863D01*
X132659867Y-142962150D01*
X132763560Y-142885560D01*
X132768028Y-142879511D01*
X132835683Y-142787915D01*
X132835683Y-142787914D01*
X132840150Y-142781867D01*
X132879487Y-142669851D01*
X132880832Y-142666022D01*
X132880832Y-142666021D01*
X132882863Y-142660238D01*
X132883440Y-142654138D01*
X132884755Y-142648143D01*
X132887124Y-142648663D01*
X132907765Y-142600966D01*
X132961281Y-142569317D01*
X133008753Y-142570187D01*
X133074012Y-142587307D01*
X133113835Y-142597755D01*
X133113836Y-142597755D01*
X133119702Y-142599294D01*
X133203278Y-142600607D01*
X133285876Y-142601905D01*
X133285878Y-142601905D01*
X133291939Y-142602000D01*
X133297850Y-142600646D01*
X133297852Y-142600646D01*
X133453940Y-142564897D01*
X133453943Y-142564896D01*
X133459850Y-142563543D01*
X133613699Y-142486165D01*
X133617710Y-142485551D01*
X133623839Y-142477520D01*
X133740116Y-142378210D01*
X133744728Y-142374271D01*
X133845248Y-142234382D01*
X133863284Y-142189517D01*
X133877373Y-142154468D01*
X133909498Y-142074554D01*
X133933770Y-141904014D01*
X133933927Y-141889000D01*
X133913232Y-141717989D01*
X133905413Y-141697295D01*
X133854488Y-141562527D01*
X133854487Y-141562526D01*
X133852343Y-141556851D01*
X133754775Y-141414888D01*
X133626160Y-141300296D01*
X133473924Y-141219691D01*
X133306855Y-141177726D01*
X133300798Y-141177694D01*
X133300796Y-141177694D01*
X133216694Y-141177254D01*
X133134598Y-141176824D01*
X133128701Y-141178240D01*
X133128699Y-141178240D01*
X133018932Y-141204593D01*
X132967099Y-141217037D01*
X132961713Y-141219817D01*
X132961710Y-141219818D01*
X132820138Y-141292890D01*
X132814027Y-141296044D01*
X132809462Y-141300026D01*
X132809461Y-141300027D01*
X132690539Y-141403769D01*
X132684219Y-141409282D01*
X132680731Y-141414245D01*
X132680730Y-141414246D01*
X132593372Y-141538545D01*
X132543652Y-141575876D01*
X132511066Y-141581300D01*
X132425597Y-141581300D01*
X132393128Y-141573774D01*
X132392636Y-141575331D01*
X132392635Y-141575330D01*
X132335329Y-141557206D01*
X132332446Y-141556244D01*
X132275733Y-141536328D01*
X132269583Y-141536086D01*
X132266883Y-141535560D01*
X132261409Y-141533829D01*
X132254688Y-141533300D01*
X132200623Y-141533300D01*
X132196674Y-141533222D01*
X132145726Y-141531220D01*
X132145723Y-141531220D01*
X132138207Y-141530925D01*
X132131318Y-141532752D01*
X132121347Y-141533300D01*
X131215753Y-141533300D01*
X131171574Y-141523080D01*
X131125960Y-141500783D01*
X131118945Y-141497354D01*
X131087619Y-141492784D01*
X131053636Y-141487826D01*
X131053629Y-141487826D01*
X131050027Y-141487300D01*
X130955071Y-141487300D01*
X130895940Y-141468087D01*
X130859395Y-141417787D01*
X130859395Y-141355613D01*
X130895940Y-141305313D01*
X130909400Y-141297065D01*
X130910538Y-141296485D01*
X130910539Y-141296484D01*
X130917593Y-141292890D01*
X131005890Y-141204593D01*
X131012037Y-141192530D01*
X131058984Y-141100390D01*
X131062580Y-141093333D01*
X131082114Y-140970000D01*
X131062580Y-140846667D01*
X131005890Y-140735407D01*
X130917593Y-140647110D01*
X130910541Y-140643517D01*
X130910540Y-140643516D01*
X130858722Y-140617113D01*
X130806333Y-140590420D01*
X130683000Y-140570886D01*
X130559667Y-140590420D01*
X130507278Y-140617113D01*
X130455460Y-140643516D01*
X130455459Y-140643517D01*
X130448407Y-140647110D01*
X130360110Y-140735407D01*
X130303420Y-140846667D01*
X130302775Y-140850740D01*
X130267362Y-140899485D01*
X130208228Y-140918700D01*
X130141772Y-140918700D01*
X130082641Y-140899487D01*
X130047225Y-140850740D01*
X130046580Y-140846667D01*
X129989890Y-140735407D01*
X129901593Y-140647110D01*
X129894541Y-140643517D01*
X129894540Y-140643516D01*
X129842722Y-140617113D01*
X129790333Y-140590420D01*
X129667000Y-140570886D01*
X129543667Y-140590420D01*
X129491278Y-140617113D01*
X129439460Y-140643516D01*
X129439459Y-140643517D01*
X129432407Y-140647110D01*
X129344110Y-140735407D01*
X129287420Y-140846667D01*
X129267886Y-140970000D01*
X129287420Y-141093333D01*
X129291016Y-141100390D01*
X129337964Y-141192530D01*
X129344110Y-141204593D01*
X129432407Y-141292890D01*
X129439461Y-141296484D01*
X129439462Y-141296485D01*
X129530880Y-141343065D01*
X129574844Y-141387029D01*
X129584570Y-141448437D01*
X129556344Y-141503835D01*
X129500946Y-141532061D01*
X129485209Y-141533300D01*
X129216703Y-141533300D01*
X129157572Y-141514087D01*
X129133796Y-141489680D01*
X129131630Y-141486528D01*
X129061775Y-141384888D01*
X128933160Y-141270296D01*
X128834793Y-141218213D01*
X128786286Y-141192530D01*
X128780924Y-141189691D01*
X128613855Y-141147726D01*
X128607798Y-141147694D01*
X128607796Y-141147694D01*
X128523694Y-141147254D01*
X128441598Y-141146824D01*
X128435701Y-141148240D01*
X128435699Y-141148240D01*
X128316639Y-141176824D01*
X128274099Y-141187037D01*
X128268713Y-141189817D01*
X128268710Y-141189818D01*
X128210587Y-141219818D01*
X128121027Y-141266044D01*
X128116462Y-141270026D01*
X128116461Y-141270027D01*
X128009917Y-141362971D01*
X127991219Y-141379282D01*
X127949623Y-141438468D01*
X127895658Y-141515252D01*
X127895656Y-141515256D01*
X127892170Y-141520216D01*
X127889967Y-141525865D01*
X127889966Y-141525868D01*
X127870469Y-141575876D01*
X127829597Y-141680708D01*
X127807112Y-141851492D01*
X127807777Y-141857516D01*
X127807777Y-141857520D01*
X127813271Y-141907280D01*
X127826015Y-142022711D01*
X127885213Y-142184478D01*
X127888599Y-142189516D01*
X127888599Y-142189517D01*
X127967023Y-142306223D01*
X127981290Y-142327455D01*
X128108698Y-142443387D01*
X128260082Y-142525582D01*
X128265952Y-142527122D01*
X128420835Y-142567755D01*
X128420836Y-142567755D01*
X128426702Y-142569294D01*
X128510278Y-142570607D01*
X128592876Y-142571905D01*
X128592878Y-142571905D01*
X128598939Y-142572000D01*
X128604850Y-142570646D01*
X128604852Y-142570646D01*
X128760940Y-142534897D01*
X128760943Y-142534896D01*
X128766850Y-142533543D01*
X128914215Y-142459426D01*
X128959414Y-142448700D01*
X129642247Y-142448700D01*
X129686425Y-142458920D01*
X129739055Y-142484646D01*
X129770594Y-142489247D01*
X129789862Y-142492058D01*
X129845601Y-142519605D01*
X129874502Y-142574654D01*
X129865526Y-142636177D01*
X129857650Y-142649443D01*
X129847970Y-142663216D01*
X129845767Y-142668865D01*
X129845766Y-142668868D01*
X129804476Y-142774773D01*
X129785397Y-142823708D01*
X129762912Y-142994492D01*
X129763577Y-143000516D01*
X129763577Y-143000520D01*
X129764370Y-143007699D01*
X129781815Y-143165711D01*
X129814552Y-143255168D01*
X129817648Y-143263629D01*
X129819926Y-143325761D01*
X129785249Y-143377367D01*
X129753027Y-143394270D01*
X129746190Y-143396395D01*
X129738455Y-143397533D01*
X129704739Y-143414087D01*
X129686579Y-143423003D01*
X129642242Y-143433300D01*
X127398274Y-143433300D01*
X127339143Y-143414087D01*
X127317355Y-143392470D01*
X127307028Y-143378489D01*
X127302560Y-143372440D01*
X127256867Y-143338690D01*
X127204915Y-143300317D01*
X127204914Y-143300317D01*
X127198867Y-143295850D01*
X127107115Y-143263629D01*
X127083022Y-143255168D01*
X127083021Y-143255168D01*
X127077238Y-143253137D01*
X127071139Y-143252561D01*
X127071137Y-143252560D01*
X127049588Y-143250523D01*
X127049580Y-143250523D01*
X127047225Y-143250300D01*
X127044847Y-143250300D01*
X126744856Y-143250301D01*
X126444776Y-143250301D01*
X126414762Y-143253137D01*
X126293133Y-143295850D01*
X126287086Y-143300317D01*
X126287085Y-143300317D01*
X126235133Y-143338690D01*
X126189440Y-143372440D01*
X126184972Y-143378489D01*
X126117336Y-143470060D01*
X126112850Y-143476133D01*
X126104069Y-143501137D01*
X126074163Y-143586299D01*
X126070137Y-143597762D01*
X126069561Y-143603861D01*
X126069560Y-143603863D01*
X126068276Y-143617454D01*
X126067300Y-143627775D01*
X126067301Y-144180224D01*
X126070137Y-144210238D01*
X126112850Y-144331867D01*
X126189440Y-144435560D01*
X126195489Y-144440028D01*
X126236849Y-144470577D01*
X126293133Y-144512150D01*
X126359043Y-144535296D01*
X126408978Y-144552832D01*
X126408979Y-144552832D01*
X126414762Y-144554863D01*
X126420861Y-144555439D01*
X126420863Y-144555440D01*
X126442412Y-144557477D01*
X126442420Y-144557477D01*
X126444775Y-144557700D01*
X126447153Y-144557700D01*
X126747144Y-144557699D01*
X127047224Y-144557699D01*
X127077238Y-144554863D01*
X127198867Y-144512150D01*
X127255152Y-144470577D01*
X127296511Y-144440028D01*
X127302560Y-144435560D01*
X127336558Y-144389531D01*
X127387144Y-144353382D01*
X127417478Y-144348700D01*
X129642247Y-144348700D01*
X129686425Y-144358920D01*
X129739055Y-144384646D01*
X129765721Y-144388536D01*
X129804364Y-144394174D01*
X129804371Y-144394174D01*
X129807973Y-144394700D01*
X129878260Y-144394700D01*
X129937391Y-144413913D01*
X129972553Y-144464508D01*
X129973080Y-144464280D01*
X129974210Y-144466892D01*
X129974212Y-144466895D01*
X129975804Y-144470575D01*
X129975805Y-144470577D01*
X129979398Y-144478881D01*
X129985012Y-144495857D01*
X129987077Y-144504659D01*
X129987078Y-144504663D01*
X129988644Y-144511337D01*
X129991945Y-144517342D01*
X129991946Y-144517344D01*
X130008909Y-144548200D01*
X130013078Y-144556709D01*
X130029793Y-144595334D01*
X130034108Y-144600663D01*
X130034109Y-144600664D01*
X130039802Y-144607694D01*
X130049776Y-144622537D01*
X130057438Y-144636474D01*
X130064076Y-144644164D01*
X130087994Y-144668082D01*
X130095040Y-144675907D01*
X130119660Y-144706310D01*
X130125245Y-144710279D01*
X130125246Y-144710280D01*
X130135455Y-144717535D01*
X130148314Y-144728402D01*
X130888898Y-145468986D01*
X130891813Y-145472026D01*
X130931851Y-145515567D01*
X130937676Y-145519179D01*
X130937679Y-145519181D01*
X130967610Y-145537739D01*
X130975420Y-145543107D01*
X131003471Y-145564399D01*
X131003477Y-145564402D01*
X131008936Y-145568546D01*
X131015308Y-145571069D01*
X131015312Y-145571071D01*
X131023728Y-145574403D01*
X131039703Y-145582438D01*
X131053216Y-145590816D01*
X131059801Y-145592729D01*
X131059803Y-145592730D01*
X131093618Y-145602554D01*
X131102586Y-145605625D01*
X131135331Y-145618590D01*
X131135336Y-145618591D01*
X131141708Y-145621114D01*
X131148523Y-145621830D01*
X131148526Y-145621831D01*
X131154642Y-145622473D01*
X131157524Y-145622776D01*
X131175074Y-145626219D01*
X131190346Y-145630656D01*
X131195599Y-145631042D01*
X131195600Y-145631042D01*
X131196672Y-145631121D01*
X131200477Y-145631400D01*
X131234305Y-145631400D01*
X131244819Y-145631951D01*
X131283725Y-145636040D01*
X131290482Y-145634897D01*
X131290486Y-145634897D01*
X131302828Y-145632809D01*
X131319605Y-145631400D01*
X132980599Y-145631400D01*
X132984812Y-145631488D01*
X133037062Y-145633678D01*
X133043910Y-145633965D01*
X133050581Y-145632400D01*
X133050584Y-145632400D01*
X133084870Y-145624358D01*
X133094189Y-145622631D01*
X133113190Y-145620028D01*
X133135879Y-145616920D01*
X133142170Y-145614198D01*
X133142176Y-145614196D01*
X133150481Y-145610602D01*
X133167457Y-145604988D01*
X133176259Y-145602923D01*
X133176263Y-145602922D01*
X133182937Y-145601356D01*
X133188942Y-145598055D01*
X133188944Y-145598054D01*
X133219800Y-145581091D01*
X133228309Y-145576922D01*
X133234130Y-145574403D01*
X133266934Y-145560207D01*
X133279294Y-145550198D01*
X133294137Y-145540224D01*
X133298657Y-145537739D01*
X133308074Y-145532562D01*
X133315764Y-145525924D01*
X133339682Y-145502006D01*
X133347507Y-145494960D01*
X133372585Y-145474652D01*
X133377910Y-145470340D01*
X133389135Y-145454545D01*
X133400002Y-145441686D01*
X133804575Y-145037113D01*
X133807616Y-145034197D01*
X133846106Y-144998804D01*
X133846107Y-144998803D01*
X133851156Y-144994160D01*
X133873333Y-144958393D01*
X133878696Y-144950591D01*
X133899985Y-144922543D01*
X133904135Y-144917076D01*
X133909992Y-144902283D01*
X133918025Y-144886311D01*
X133922791Y-144878625D01*
X133922793Y-144878621D01*
X133926405Y-144872795D01*
X133929093Y-144863544D01*
X133938143Y-144832394D01*
X133941212Y-144823429D01*
X133954178Y-144790680D01*
X133954179Y-144790678D01*
X133956702Y-144784304D01*
X133958365Y-144768485D01*
X133961808Y-144750940D01*
X133964774Y-144740730D01*
X133964775Y-144740726D01*
X133966245Y-144735665D01*
X133966989Y-144725534D01*
X133966989Y-144691706D01*
X133967540Y-144681190D01*
X133970912Y-144649104D01*
X133971629Y-144642286D01*
X133970486Y-144635529D01*
X133970486Y-144635525D01*
X133968398Y-144623183D01*
X133966989Y-144606406D01*
X133966989Y-143925769D01*
X133986202Y-143866638D01*
X133996454Y-143854634D01*
X134233634Y-143617454D01*
X134289032Y-143589228D01*
X134304769Y-143587989D01*
X139837431Y-143587989D01*
X139896562Y-143607202D01*
X139908566Y-143617454D01*
X140139935Y-143848823D01*
X140168161Y-143904221D01*
X140169400Y-143919958D01*
X140169400Y-144835177D01*
X140150187Y-144894308D01*
X140131837Y-144913577D01*
X139975198Y-145039518D01*
X139972037Y-145043285D01*
X139972036Y-145043286D01*
X139966457Y-145049935D01*
X139842371Y-145197814D01*
X139742821Y-145378895D01*
X139741333Y-145383585D01*
X139741332Y-145383588D01*
X139713813Y-145470340D01*
X139680339Y-145575864D01*
X139679790Y-145580755D01*
X139679790Y-145580757D01*
X139673670Y-145635323D01*
X139657305Y-145781217D01*
X139674596Y-145987133D01*
X139731555Y-146185770D01*
X139826010Y-146369560D01*
X139954364Y-146531503D01*
X139958112Y-146534693D01*
X139958118Y-146534699D01*
X140075725Y-146634789D01*
X140108304Y-146687744D01*
X140103535Y-146749735D01*
X140063238Y-146797083D01*
X140010525Y-146812000D01*
X119427360Y-146812000D01*
X119411883Y-146810802D01*
X119393350Y-146807916D01*
X119393347Y-146807916D01*
X119386270Y-146806814D01*
X119379166Y-146807743D01*
X119379165Y-146807743D01*
X119365283Y-146809558D01*
X119346975Y-146810269D01*
X119173143Y-146801159D01*
X119040103Y-146794186D01*
X119029642Y-146793087D01*
X118811035Y-146758463D01*
X118698685Y-146740669D01*
X118688385Y-146738480D01*
X118561380Y-146704449D01*
X118364713Y-146651752D01*
X118354710Y-146648502D01*
X118049918Y-146531503D01*
X118041874Y-146528415D01*
X118032255Y-146524132D01*
X117733701Y-146372011D01*
X117724581Y-146366746D01*
X117443552Y-146184244D01*
X117435034Y-146178055D01*
X117174630Y-145967185D01*
X117166804Y-145960139D01*
X116929861Y-145723196D01*
X116922815Y-145715370D01*
X116846488Y-145621114D01*
X116711943Y-145454963D01*
X116705756Y-145446448D01*
X116667915Y-145388177D01*
X116555068Y-145214409D01*
X116523254Y-145165419D01*
X116517989Y-145156299D01*
X116365868Y-144857745D01*
X116361585Y-144848126D01*
X116307147Y-144706310D01*
X116241498Y-144535290D01*
X116238246Y-144525281D01*
X116236120Y-144517344D01*
X116155382Y-144216027D01*
X116151520Y-144201615D01*
X116149331Y-144191315D01*
X116103860Y-143904221D01*
X116096913Y-143860358D01*
X116095813Y-143849892D01*
X116089038Y-143720616D01*
X116080098Y-143550032D01*
X116081158Y-143529298D01*
X116083186Y-143516270D01*
X116078849Y-143483104D01*
X116078000Y-143470060D01*
X116078000Y-138690733D01*
X144160700Y-138690733D01*
X144175714Y-138824585D01*
X144235011Y-138994864D01*
X144330560Y-139147775D01*
X144334525Y-139151768D01*
X144334526Y-139151769D01*
X144339300Y-139156576D01*
X144457612Y-139275717D01*
X144462357Y-139278728D01*
X144462358Y-139278729D01*
X144609852Y-139372331D01*
X144608763Y-139374046D01*
X144647329Y-139411296D01*
X144659100Y-139458516D01*
X144659100Y-139682702D01*
X144639887Y-139741833D01*
X144589587Y-139778378D01*
X144574238Y-139782063D01*
X144571923Y-139782429D01*
X144564316Y-139783634D01*
X144564314Y-139783635D01*
X144556495Y-139784873D01*
X144442553Y-139842929D01*
X144352129Y-139933353D01*
X144294073Y-140047295D01*
X144279100Y-140141830D01*
X144279100Y-140605370D01*
X144279720Y-140609283D01*
X144286598Y-140652707D01*
X144294073Y-140699905D01*
X144352129Y-140813847D01*
X144442553Y-140904271D01*
X144556495Y-140962327D01*
X144564314Y-140963565D01*
X144564316Y-140963566D01*
X144604940Y-140970000D01*
X144651030Y-140977300D01*
X145264570Y-140977300D01*
X145310660Y-140970000D01*
X145351284Y-140963566D01*
X145351286Y-140963565D01*
X145359105Y-140962327D01*
X145473047Y-140904271D01*
X145563471Y-140813847D01*
X145621527Y-140699905D01*
X145629003Y-140652707D01*
X145635880Y-140609283D01*
X145636500Y-140605370D01*
X145636500Y-140141830D01*
X145621527Y-140047295D01*
X145563471Y-139933353D01*
X145473047Y-139842929D01*
X145381165Y-139796113D01*
X145366159Y-139788467D01*
X145366158Y-139788467D01*
X145359105Y-139784873D01*
X145351289Y-139783635D01*
X145343752Y-139781186D01*
X145344461Y-139779005D01*
X145299171Y-139755933D01*
X145270940Y-139700537D01*
X145269700Y-139684792D01*
X145269700Y-139457467D01*
X145288913Y-139398336D01*
X145317587Y-139371783D01*
X145457552Y-139285676D01*
X145457556Y-139285673D01*
X145462338Y-139282731D01*
X145466350Y-139278802D01*
X145466354Y-139278799D01*
X145587143Y-139160513D01*
X145587144Y-139160511D01*
X145591163Y-139156576D01*
X145599911Y-139143003D01*
X145685792Y-139009740D01*
X145688838Y-139005014D01*
X145750507Y-138835579D01*
X145751212Y-138830000D01*
X145767704Y-138699456D01*
X145767704Y-138699449D01*
X145768100Y-138696318D01*
X145768100Y-138690733D01*
X146160700Y-138690733D01*
X146175714Y-138824585D01*
X146235011Y-138994864D01*
X146330560Y-139147775D01*
X146334525Y-139151768D01*
X146334526Y-139151769D01*
X146339300Y-139156576D01*
X146457612Y-139275717D01*
X146462357Y-139278728D01*
X146462358Y-139278729D01*
X146609852Y-139372331D01*
X146608763Y-139374046D01*
X146647329Y-139411296D01*
X146659100Y-139458516D01*
X146659100Y-139715544D01*
X146639887Y-139774675D01*
X146591560Y-139809788D01*
X146588495Y-139810273D01*
X146474553Y-139868329D01*
X146384129Y-139958753D01*
X146326073Y-140072695D01*
X146311100Y-140167230D01*
X146311100Y-140630770D01*
X146326073Y-140725305D01*
X146384129Y-140839247D01*
X146474553Y-140929671D01*
X146588495Y-140987727D01*
X146596314Y-140988965D01*
X146596316Y-140988966D01*
X146640059Y-140995894D01*
X146683030Y-141002700D01*
X147296570Y-141002700D01*
X147339541Y-140995894D01*
X147383284Y-140988966D01*
X147383286Y-140988965D01*
X147391105Y-140987727D01*
X147505047Y-140929671D01*
X147595471Y-140839247D01*
X147653527Y-140725305D01*
X147668500Y-140630770D01*
X147668500Y-140167230D01*
X147653527Y-140072695D01*
X147595471Y-139958753D01*
X147505047Y-139868329D01*
X147391105Y-139810273D01*
X147383286Y-139809035D01*
X147383284Y-139809034D01*
X147354562Y-139804485D01*
X147299164Y-139776258D01*
X147270938Y-139720860D01*
X147269700Y-139705124D01*
X147269700Y-139457467D01*
X147288913Y-139398336D01*
X147317587Y-139371783D01*
X147457552Y-139285676D01*
X147457556Y-139285673D01*
X147462338Y-139282731D01*
X147466350Y-139278802D01*
X147466354Y-139278799D01*
X147587143Y-139160513D01*
X147587144Y-139160511D01*
X147591163Y-139156576D01*
X147599911Y-139143003D01*
X147685792Y-139009740D01*
X147688838Y-139005014D01*
X147750507Y-138835579D01*
X147751212Y-138830000D01*
X147767704Y-138699456D01*
X147767704Y-138699449D01*
X147768100Y-138696318D01*
X147768100Y-138690733D01*
X148160700Y-138690733D01*
X148175714Y-138824585D01*
X148235011Y-138994864D01*
X148330560Y-139147775D01*
X148334525Y-139151768D01*
X148334526Y-139151769D01*
X148339300Y-139156576D01*
X148457612Y-139275717D01*
X148462357Y-139278728D01*
X148462358Y-139278729D01*
X148609852Y-139372331D01*
X148608763Y-139374046D01*
X148647329Y-139411296D01*
X148659100Y-139458516D01*
X148659100Y-139710192D01*
X148639887Y-139769323D01*
X148589587Y-139805868D01*
X148580669Y-139808009D01*
X148577511Y-139809035D01*
X148569695Y-139810273D01*
X148455753Y-139868329D01*
X148365329Y-139958753D01*
X148307273Y-140072695D01*
X148292300Y-140167230D01*
X148292300Y-140630770D01*
X148307273Y-140725305D01*
X148365329Y-140839247D01*
X148455753Y-140929671D01*
X148569695Y-140987727D01*
X148577514Y-140988965D01*
X148577516Y-140988966D01*
X148621259Y-140995894D01*
X148664230Y-141002700D01*
X149277770Y-141002700D01*
X149320741Y-140995894D01*
X149364484Y-140988966D01*
X149364486Y-140988965D01*
X149372305Y-140987727D01*
X149486247Y-140929671D01*
X149576671Y-140839247D01*
X149634727Y-140725305D01*
X149649700Y-140630770D01*
X149649700Y-140167230D01*
X149634727Y-140072695D01*
X149576671Y-139958753D01*
X149486247Y-139868329D01*
X149372305Y-139810273D01*
X149364486Y-139809035D01*
X149364484Y-139809034D01*
X149356877Y-139807829D01*
X149354563Y-139807463D01*
X149299165Y-139779237D01*
X149270939Y-139723840D01*
X149269700Y-139708102D01*
X149269700Y-139457467D01*
X149288913Y-139398336D01*
X149317587Y-139371783D01*
X149457552Y-139285676D01*
X149457556Y-139285673D01*
X149462338Y-139282731D01*
X149466350Y-139278802D01*
X149466354Y-139278799D01*
X149587143Y-139160513D01*
X149587144Y-139160511D01*
X149591163Y-139156576D01*
X149599911Y-139143003D01*
X149685792Y-139009740D01*
X149688838Y-139005014D01*
X149750507Y-138835579D01*
X149751212Y-138830000D01*
X149767704Y-138699456D01*
X149767704Y-138699449D01*
X149768100Y-138696318D01*
X149768100Y-138050067D01*
X149753086Y-137916215D01*
X149693789Y-137745936D01*
X149598240Y-137593025D01*
X149594197Y-137588953D01*
X149475150Y-137469073D01*
X149471188Y-137465083D01*
X149318948Y-137368469D01*
X149149087Y-137307984D01*
X149143499Y-137307318D01*
X149143496Y-137307317D01*
X149059567Y-137297310D01*
X148970046Y-137286635D01*
X148964451Y-137287223D01*
X148964448Y-137287223D01*
X148796316Y-137304894D01*
X148796313Y-137304895D01*
X148790725Y-137305482D01*
X148785407Y-137307292D01*
X148785404Y-137307293D01*
X148625361Y-137361776D01*
X148625359Y-137361777D01*
X148620036Y-137363589D01*
X148586603Y-137384157D01*
X148471248Y-137455124D01*
X148471244Y-137455127D01*
X148466462Y-137458069D01*
X148462450Y-137461998D01*
X148462446Y-137462001D01*
X148341657Y-137580287D01*
X148337637Y-137584224D01*
X148334591Y-137588951D01*
X148334589Y-137588953D01*
X148284252Y-137667062D01*
X148239962Y-137735786D01*
X148178293Y-137905221D01*
X148177588Y-137910798D01*
X148177588Y-137910800D01*
X148176198Y-137921807D01*
X148160700Y-138044482D01*
X148160700Y-138690733D01*
X147768100Y-138690733D01*
X147768100Y-138050067D01*
X147753086Y-137916215D01*
X147693789Y-137745936D01*
X147598240Y-137593025D01*
X147594197Y-137588953D01*
X147475150Y-137469073D01*
X147471188Y-137465083D01*
X147318948Y-137368469D01*
X147149087Y-137307984D01*
X147143499Y-137307318D01*
X147143496Y-137307317D01*
X147059567Y-137297310D01*
X146970046Y-137286635D01*
X146964451Y-137287223D01*
X146964448Y-137287223D01*
X146796316Y-137304894D01*
X146796313Y-137304895D01*
X146790725Y-137305482D01*
X146785407Y-137307292D01*
X146785404Y-137307293D01*
X146625361Y-137361776D01*
X146625359Y-137361777D01*
X146620036Y-137363589D01*
X146586603Y-137384157D01*
X146471248Y-137455124D01*
X146471244Y-137455127D01*
X146466462Y-137458069D01*
X146462450Y-137461998D01*
X146462446Y-137462001D01*
X146341657Y-137580287D01*
X146337637Y-137584224D01*
X146334591Y-137588951D01*
X146334589Y-137588953D01*
X146284252Y-137667062D01*
X146239962Y-137735786D01*
X146178293Y-137905221D01*
X146177588Y-137910798D01*
X146177588Y-137910800D01*
X146176198Y-137921807D01*
X146160700Y-138044482D01*
X146160700Y-138690733D01*
X145768100Y-138690733D01*
X145768100Y-138050067D01*
X145753086Y-137916215D01*
X145693789Y-137745936D01*
X145598240Y-137593025D01*
X145594197Y-137588953D01*
X145475150Y-137469073D01*
X145471188Y-137465083D01*
X145318948Y-137368469D01*
X145149087Y-137307984D01*
X145143499Y-137307318D01*
X145143496Y-137307317D01*
X145059567Y-137297310D01*
X144970046Y-137286635D01*
X144964451Y-137287223D01*
X144964448Y-137287223D01*
X144796316Y-137304894D01*
X144796313Y-137304895D01*
X144790725Y-137305482D01*
X144785407Y-137307292D01*
X144785404Y-137307293D01*
X144625361Y-137361776D01*
X144625359Y-137361777D01*
X144620036Y-137363589D01*
X144586603Y-137384157D01*
X144471248Y-137455124D01*
X144471244Y-137455127D01*
X144466462Y-137458069D01*
X144462450Y-137461998D01*
X144462446Y-137462001D01*
X144341657Y-137580287D01*
X144337637Y-137584224D01*
X144334591Y-137588951D01*
X144334589Y-137588953D01*
X144284252Y-137667062D01*
X144239962Y-137735786D01*
X144178293Y-137905221D01*
X144177588Y-137910798D01*
X144177588Y-137910800D01*
X144176198Y-137921807D01*
X144160700Y-138044482D01*
X144160700Y-138690733D01*
X116078000Y-138690733D01*
X116078000Y-101522800D01*
X116097213Y-101463669D01*
X116147513Y-101427124D01*
X116178600Y-101422200D01*
X116644698Y-101422200D01*
X116703829Y-101441413D01*
X116740374Y-101491713D01*
X116740374Y-101553887D01*
X116710887Y-101598557D01*
X116699341Y-101608645D01*
X116695279Y-101615444D01*
X116655855Y-101681426D01*
X116655853Y-101681431D01*
X116652958Y-101686276D01*
X116651213Y-101691647D01*
X116651211Y-101691651D01*
X116651098Y-101692000D01*
X116633745Y-101745407D01*
X116623800Y-101808200D01*
X116623800Y-119895000D01*
X116626302Y-119926789D01*
X116631226Y-119957876D01*
X116667532Y-120045525D01*
X116704077Y-120095825D01*
X116728045Y-120123259D01*
X116732876Y-120126146D01*
X116765336Y-120177808D01*
X116761153Y-120239842D01*
X116733975Y-120278144D01*
X116712341Y-120297045D01*
X116699557Y-120318441D01*
X116668855Y-120369826D01*
X116668853Y-120369831D01*
X116665958Y-120374676D01*
X116664213Y-120380047D01*
X116664211Y-120380051D01*
X116647965Y-120430051D01*
X116646745Y-120433807D01*
X116636800Y-120496600D01*
X116636800Y-125121400D01*
X116639302Y-125153189D01*
X116644226Y-125184276D01*
X116680532Y-125271925D01*
X116717077Y-125322225D01*
X116741045Y-125349659D01*
X116747844Y-125353721D01*
X116813826Y-125393145D01*
X116813831Y-125393147D01*
X116818676Y-125396042D01*
X116824047Y-125397787D01*
X116824051Y-125397789D01*
X116874051Y-125414035D01*
X116874056Y-125414036D01*
X116877807Y-125415255D01*
X116881703Y-125415872D01*
X116936702Y-125424583D01*
X116936706Y-125424583D01*
X116940600Y-125425200D01*
X122477986Y-125425200D01*
X122537117Y-125444413D01*
X122573662Y-125494713D01*
X122578515Y-125522024D01*
X122579387Y-125545254D01*
X122579829Y-125557037D01*
X122579900Y-125560810D01*
X122579900Y-125580593D01*
X122580738Y-125585092D01*
X122581081Y-125590380D01*
X122582211Y-125620482D01*
X122585876Y-125629013D01*
X122585877Y-125629017D01*
X122586826Y-125631225D01*
X122593295Y-125652517D01*
X122593735Y-125654882D01*
X122593736Y-125654885D01*
X122595436Y-125664011D01*
X122600307Y-125671913D01*
X122600308Y-125671916D01*
X122609636Y-125687049D01*
X122616425Y-125700118D01*
X122627106Y-125724979D01*
X122631185Y-125729944D01*
X122635617Y-125734376D01*
X122650115Y-125752717D01*
X122655115Y-125760828D01*
X122666560Y-125769531D01*
X122678714Y-125778773D01*
X122688957Y-125787716D01*
X122874682Y-125973441D01*
X122877426Y-125976620D01*
X122879655Y-125981180D01*
X122886466Y-125987498D01*
X122916482Y-126015342D01*
X122919201Y-126017960D01*
X122933197Y-126031956D01*
X122936970Y-126034544D01*
X122940947Y-126038036D01*
X122952404Y-126048664D01*
X122963037Y-126058528D01*
X122973897Y-126062861D01*
X122993522Y-126073339D01*
X123003168Y-126079956D01*
X123012208Y-126082101D01*
X123012207Y-126082101D01*
X123029491Y-126086203D01*
X123043541Y-126090646D01*
X123068673Y-126100673D01*
X123075068Y-126101300D01*
X123081336Y-126101300D01*
X123104557Y-126104017D01*
X123113827Y-126106217D01*
X123143204Y-126102219D01*
X123156770Y-126101300D01*
X125120371Y-126101300D01*
X125179502Y-126120513D01*
X125191506Y-126130765D01*
X125236345Y-126175604D01*
X125258256Y-126215378D01*
X125259411Y-126214882D01*
X125304306Y-126319379D01*
X125308385Y-126324344D01*
X125315517Y-126331476D01*
X125343743Y-126386874D01*
X125334017Y-126448282D01*
X125290053Y-126492246D01*
X125244382Y-126503211D01*
X117972390Y-126503211D01*
X117968177Y-126503123D01*
X117915927Y-126500933D01*
X117909079Y-126500646D01*
X117902408Y-126502211D01*
X117902405Y-126502211D01*
X117868119Y-126510253D01*
X117858800Y-126511980D01*
X117839799Y-126514583D01*
X117817110Y-126517691D01*
X117810819Y-126520413D01*
X117810813Y-126520415D01*
X117802508Y-126524009D01*
X117785532Y-126529623D01*
X117776730Y-126531688D01*
X117776726Y-126531689D01*
X117770052Y-126533255D01*
X117764047Y-126536556D01*
X117764045Y-126536557D01*
X117733189Y-126553520D01*
X117724679Y-126557689D01*
X117686055Y-126574404D01*
X117680726Y-126578719D01*
X117680725Y-126578720D01*
X117673695Y-126584413D01*
X117658852Y-126594387D01*
X117644915Y-126602049D01*
X117637225Y-126608687D01*
X117613307Y-126632605D01*
X117605482Y-126639651D01*
X117575079Y-126664271D01*
X117571110Y-126669856D01*
X117571109Y-126669857D01*
X117563854Y-126680066D01*
X117552987Y-126692925D01*
X117243214Y-127002698D01*
X117240174Y-127005613D01*
X117196633Y-127045651D01*
X117193021Y-127051476D01*
X117193019Y-127051479D01*
X117174461Y-127081410D01*
X117169093Y-127089220D01*
X117147801Y-127117271D01*
X117147798Y-127117277D01*
X117143654Y-127122736D01*
X117141131Y-127129108D01*
X117141129Y-127129112D01*
X117137797Y-127137528D01*
X117129762Y-127153503D01*
X117121384Y-127167016D01*
X117119471Y-127173601D01*
X117119470Y-127173603D01*
X117109646Y-127207418D01*
X117106575Y-127216386D01*
X117093610Y-127249131D01*
X117093609Y-127249136D01*
X117091086Y-127255508D01*
X117090370Y-127262323D01*
X117090369Y-127262326D01*
X117089424Y-127271322D01*
X117085981Y-127288874D01*
X117081544Y-127304146D01*
X117080800Y-127314277D01*
X117080800Y-127348105D01*
X117080249Y-127358619D01*
X117076160Y-127397525D01*
X117077303Y-127404282D01*
X117077303Y-127404286D01*
X117079391Y-127416628D01*
X117080800Y-127433405D01*
X117080800Y-131814700D01*
X117061587Y-131873831D01*
X117011287Y-131910376D01*
X116980200Y-131915300D01*
X116731936Y-131915300D01*
X116672520Y-131927119D01*
X116605140Y-131972140D01*
X116560119Y-132039520D01*
X116548300Y-132098936D01*
X116548300Y-133839064D01*
X116560119Y-133898480D01*
X116605140Y-133965860D01*
X116672520Y-134010881D01*
X116731936Y-134022700D01*
X118472064Y-134022700D01*
X118531480Y-134010881D01*
X118598860Y-133965860D01*
X118643881Y-133898480D01*
X118655700Y-133839064D01*
X118655700Y-132098936D01*
X118643881Y-132039520D01*
X118598860Y-131972140D01*
X118531480Y-131927119D01*
X118472064Y-131915300D01*
X118223800Y-131915300D01*
X118164669Y-131896087D01*
X118128124Y-131845787D01*
X118123200Y-131814700D01*
X118123200Y-127646211D01*
X118142413Y-127587080D01*
X118192713Y-127550535D01*
X118223800Y-127545611D01*
X126846618Y-127545611D01*
X126869039Y-127552896D01*
X126899382Y-127545611D01*
X128814565Y-127545611D01*
X128873696Y-127564824D01*
X128882268Y-127571802D01*
X128896098Y-127584387D01*
X128901425Y-127587279D01*
X128901426Y-127587280D01*
X129014531Y-127648691D01*
X129057329Y-127693791D01*
X129065444Y-127755433D01*
X129035777Y-127810073D01*
X128979660Y-127836839D01*
X128966529Y-127837700D01*
X127162384Y-127837700D01*
X127107685Y-127819928D01*
X127107593Y-127820110D01*
X127106447Y-127819526D01*
X126996333Y-127763420D01*
X126883645Y-127745572D01*
X126874098Y-127740708D01*
X126862355Y-127745572D01*
X126749667Y-127763420D01*
X126711685Y-127782773D01*
X126645460Y-127816516D01*
X126645459Y-127816517D01*
X126638407Y-127820110D01*
X126550110Y-127908407D01*
X126493420Y-128019667D01*
X126473886Y-128143000D01*
X126493420Y-128266333D01*
X126497016Y-128273390D01*
X126544501Y-128366584D01*
X126550110Y-128377593D01*
X126638407Y-128465890D01*
X126645459Y-128469483D01*
X126645460Y-128469484D01*
X126692759Y-128493584D01*
X126749667Y-128522580D01*
X126873000Y-128542114D01*
X126996333Y-128522580D01*
X127107593Y-128465890D01*
X127107685Y-128466072D01*
X127162384Y-128448300D01*
X140585436Y-128448300D01*
X140589627Y-128448608D01*
X140594428Y-128450256D01*
X140603707Y-128449908D01*
X140603710Y-128449908D01*
X140644636Y-128448371D01*
X140648410Y-128448300D01*
X140668193Y-128448300D01*
X140672692Y-128447462D01*
X140677980Y-128447119D01*
X140680332Y-128447031D01*
X140708082Y-128445989D01*
X140716613Y-128442324D01*
X140716617Y-128442323D01*
X140718825Y-128441374D01*
X140740117Y-128434905D01*
X140742482Y-128434465D01*
X140742485Y-128434464D01*
X140751611Y-128432764D01*
X140759513Y-128427893D01*
X140759516Y-128427892D01*
X140774649Y-128418564D01*
X140787718Y-128411775D01*
X140812579Y-128401094D01*
X140817544Y-128397015D01*
X140817830Y-128396729D01*
X140824136Y-128392891D01*
X140825411Y-128394985D01*
X140861607Y-128378721D01*
X140868729Y-128377593D01*
X140915533Y-128370180D01*
X140967922Y-128343487D01*
X141019740Y-128317084D01*
X141019741Y-128317083D01*
X141026793Y-128313490D01*
X141046208Y-128294075D01*
X141101606Y-128265849D01*
X141163014Y-128275575D01*
X141188478Y-128294075D01*
X141251638Y-128357235D01*
X141258690Y-128360828D01*
X141258691Y-128360829D01*
X141304677Y-128384260D01*
X141362898Y-128413925D01*
X141486231Y-128433459D01*
X141609564Y-128413925D01*
X141670130Y-128383065D01*
X141715802Y-128372100D01*
X151521947Y-128372100D01*
X151581078Y-128391313D01*
X151593082Y-128401565D01*
X151632007Y-128440490D01*
X151639059Y-128444083D01*
X151639060Y-128444084D01*
X151688911Y-128469484D01*
X151743267Y-128497180D01*
X151866600Y-128516714D01*
X151989933Y-128497180D01*
X152044289Y-128469484D01*
X152094140Y-128444084D01*
X152094141Y-128444083D01*
X152101193Y-128440490D01*
X152189490Y-128352193D01*
X152246180Y-128240933D01*
X152265714Y-128117600D01*
X152246180Y-127994267D01*
X152189490Y-127883007D01*
X152101193Y-127794710D01*
X152094141Y-127791117D01*
X152094140Y-127791116D01*
X152014495Y-127750535D01*
X151989933Y-127738020D01*
X151866600Y-127718486D01*
X151743267Y-127738020D01*
X151718950Y-127750410D01*
X151718705Y-127750535D01*
X151673033Y-127761500D01*
X141812539Y-127761500D01*
X141753408Y-127742287D01*
X141741404Y-127732035D01*
X141720824Y-127711455D01*
X141720877Y-127711402D01*
X141686828Y-127664536D01*
X141686829Y-127602362D01*
X141723375Y-127552063D01*
X141741424Y-127542264D01*
X141742737Y-127541956D01*
X141779929Y-127521510D01*
X141863254Y-127475702D01*
X141863255Y-127475701D01*
X141867874Y-127473162D01*
X141875564Y-127466524D01*
X141950282Y-127391806D01*
X141958109Y-127384759D01*
X141964348Y-127379707D01*
X142022393Y-127357427D01*
X142029235Y-127357301D01*
X142029273Y-127357302D01*
X142029475Y-127357305D01*
X142029477Y-127357305D01*
X142035539Y-127357400D01*
X142041450Y-127356046D01*
X142041452Y-127356046D01*
X142197540Y-127320297D01*
X142197543Y-127320296D01*
X142203450Y-127318943D01*
X142357341Y-127241544D01*
X142361953Y-127237605D01*
X142361956Y-127237603D01*
X142483716Y-127133610D01*
X142488328Y-127129671D01*
X142588848Y-126989782D01*
X142653098Y-126829954D01*
X142677370Y-126659414D01*
X142677527Y-126644400D01*
X142656832Y-126473389D01*
X142645760Y-126444086D01*
X142598088Y-126317927D01*
X142598087Y-126317926D01*
X142595943Y-126312251D01*
X142498375Y-126170288D01*
X142423995Y-126104018D01*
X142374289Y-126059731D01*
X142374288Y-126059730D01*
X142369760Y-126055696D01*
X142217524Y-125975091D01*
X142050455Y-125933126D01*
X142044398Y-125933094D01*
X142044396Y-125933094D01*
X141960294Y-125932654D01*
X141878198Y-125932224D01*
X141872301Y-125933640D01*
X141872299Y-125933640D01*
X141716655Y-125971007D01*
X141710699Y-125972437D01*
X141705313Y-125975217D01*
X141705310Y-125975218D01*
X141589287Y-126035103D01*
X141557627Y-126051444D01*
X141553062Y-126055426D01*
X141553061Y-126055427D01*
X141434383Y-126158956D01*
X141427819Y-126164682D01*
X141383549Y-126227673D01*
X141332258Y-126300652D01*
X141332256Y-126300656D01*
X141328770Y-126305616D01*
X141326567Y-126311265D01*
X141326566Y-126311268D01*
X141286223Y-126414743D01*
X141246843Y-126462856D01*
X141192495Y-126478800D01*
X138510329Y-126478800D01*
X138451198Y-126459587D01*
X138414653Y-126409287D01*
X138410967Y-126362466D01*
X138422714Y-126288300D01*
X138403180Y-126164967D01*
X138375986Y-126111595D01*
X138350084Y-126060760D01*
X138350083Y-126060759D01*
X138346490Y-126053707D01*
X138258193Y-125965410D01*
X138251141Y-125961817D01*
X138251140Y-125961816D01*
X138153989Y-125912315D01*
X138153988Y-125912315D01*
X138146933Y-125908720D01*
X138139110Y-125907481D01*
X138139107Y-125907480D01*
X138094673Y-125900442D01*
X138039275Y-125872216D01*
X137985959Y-125818899D01*
X137912615Y-125745555D01*
X137909873Y-125742379D01*
X137907645Y-125737820D01*
X137870831Y-125703670D01*
X137868113Y-125701053D01*
X137854103Y-125687043D01*
X137850328Y-125684453D01*
X137846333Y-125680945D01*
X137831074Y-125666790D01*
X137824263Y-125660472D01*
X137815637Y-125657030D01*
X137815633Y-125657028D01*
X137813402Y-125656138D01*
X137793774Y-125645658D01*
X137793360Y-125645374D01*
X137784132Y-125639044D01*
X137775094Y-125636899D01*
X137757810Y-125632797D01*
X137743765Y-125628355D01*
X137720914Y-125619239D01*
X137673111Y-125579484D01*
X137657805Y-125519223D01*
X137680843Y-125461474D01*
X137733425Y-125428296D01*
X137758190Y-125425200D01*
X140361400Y-125425200D01*
X140393189Y-125422698D01*
X140396165Y-125422227D01*
X140418414Y-125418703D01*
X140418418Y-125418702D01*
X140424276Y-125417774D01*
X140430358Y-125415255D01*
X140472523Y-125397789D01*
X140511925Y-125381468D01*
X140562225Y-125344923D01*
X140589659Y-125320955D01*
X140616086Y-125276724D01*
X140633145Y-125248174D01*
X140633147Y-125248169D01*
X140636042Y-125243324D01*
X140637787Y-125237953D01*
X140637789Y-125237949D01*
X140654035Y-125187949D01*
X140654036Y-125187944D01*
X140655255Y-125184193D01*
X140656730Y-125174881D01*
X140664583Y-125125298D01*
X140664583Y-125125294D01*
X140665200Y-125121400D01*
X140665200Y-123485525D01*
X140684413Y-123426394D01*
X140734713Y-123389849D01*
X140778930Y-123385786D01*
X140823459Y-123391648D01*
X140823460Y-123391648D01*
X140830000Y-123392509D01*
X140836540Y-123391648D01*
X140981059Y-123372622D01*
X140981061Y-123372621D01*
X140987597Y-123371761D01*
X141008702Y-123363019D01*
X141070685Y-123358141D01*
X141123697Y-123390626D01*
X141147490Y-123448068D01*
X141147800Y-123455961D01*
X141147800Y-125121400D01*
X141150302Y-125153189D01*
X141155226Y-125184276D01*
X141191532Y-125271925D01*
X141228077Y-125322225D01*
X141252045Y-125349659D01*
X141258844Y-125353721D01*
X141324826Y-125393145D01*
X141324831Y-125393147D01*
X141329676Y-125396042D01*
X141335047Y-125397787D01*
X141335051Y-125397789D01*
X141385051Y-125414035D01*
X141385056Y-125414036D01*
X141388807Y-125415255D01*
X141392703Y-125415872D01*
X141447702Y-125424583D01*
X141447706Y-125424583D01*
X141451600Y-125425200D01*
X146609300Y-125425200D01*
X146668431Y-125444413D01*
X146704976Y-125494713D01*
X146709900Y-125525800D01*
X146709900Y-125624836D01*
X146709592Y-125629027D01*
X146707944Y-125633828D01*
X146708292Y-125643107D01*
X146708292Y-125643110D01*
X146709829Y-125684036D01*
X146709900Y-125687810D01*
X146709900Y-125707593D01*
X146710738Y-125712092D01*
X146711081Y-125717380D01*
X146712211Y-125747482D01*
X146715876Y-125756013D01*
X146715877Y-125756017D01*
X146716826Y-125758225D01*
X146723295Y-125779517D01*
X146723735Y-125781882D01*
X146723736Y-125781885D01*
X146725436Y-125791011D01*
X146730307Y-125798913D01*
X146730308Y-125798916D01*
X146739636Y-125814049D01*
X146746425Y-125827118D01*
X146757106Y-125851979D01*
X146761185Y-125856944D01*
X146765617Y-125861376D01*
X146780115Y-125879717D01*
X146785115Y-125887828D01*
X146792510Y-125893451D01*
X146808714Y-125905773D01*
X146818957Y-125914716D01*
X147004682Y-126100441D01*
X147007426Y-126103620D01*
X147009655Y-126108180D01*
X147016466Y-126114498D01*
X147046482Y-126142342D01*
X147049201Y-126144960D01*
X147063197Y-126158956D01*
X147066970Y-126161544D01*
X147070942Y-126165032D01*
X147093037Y-126185528D01*
X147103897Y-126189861D01*
X147123522Y-126200339D01*
X147133168Y-126206956D01*
X147142208Y-126209101D01*
X147142207Y-126209101D01*
X147159491Y-126213203D01*
X147173541Y-126217646D01*
X147198673Y-126227673D01*
X147205068Y-126228300D01*
X147211336Y-126228300D01*
X147234557Y-126231017D01*
X147243827Y-126233217D01*
X147273204Y-126229219D01*
X147286770Y-126228300D01*
X150012371Y-126228300D01*
X150071502Y-126247513D01*
X150083506Y-126257765D01*
X150155117Y-126329376D01*
X150183343Y-126384773D01*
X150186072Y-126402006D01*
X150190381Y-126429208D01*
X150191620Y-126437033D01*
X150213213Y-126479411D01*
X150240648Y-126533255D01*
X150248310Y-126548293D01*
X150336607Y-126636590D01*
X150343659Y-126640183D01*
X150343660Y-126640184D01*
X150381401Y-126659414D01*
X150447867Y-126693280D01*
X150571200Y-126712814D01*
X150694533Y-126693280D01*
X150760999Y-126659414D01*
X150798740Y-126640184D01*
X150798741Y-126640183D01*
X150805793Y-126636590D01*
X150894090Y-126548293D01*
X150901753Y-126533255D01*
X150932256Y-126473389D01*
X150950780Y-126437033D01*
X150970314Y-126313700D01*
X150950780Y-126190367D01*
X150920411Y-126130765D01*
X150897684Y-126086160D01*
X150897683Y-126086159D01*
X150894090Y-126079107D01*
X150805793Y-125990810D01*
X150798741Y-125987217D01*
X150798740Y-125987216D01*
X150701589Y-125937715D01*
X150701588Y-125937715D01*
X150694533Y-125934120D01*
X150686710Y-125932881D01*
X150686707Y-125932880D01*
X150642273Y-125925842D01*
X150586875Y-125897616D01*
X150518383Y-125829123D01*
X150434815Y-125745555D01*
X150432073Y-125742379D01*
X150429845Y-125737820D01*
X150393031Y-125703670D01*
X150390313Y-125701053D01*
X150376303Y-125687043D01*
X150372528Y-125684453D01*
X150368533Y-125680945D01*
X150353274Y-125666790D01*
X150346463Y-125660472D01*
X150337837Y-125657030D01*
X150337833Y-125657028D01*
X150335602Y-125656138D01*
X150315974Y-125645658D01*
X150315560Y-125645374D01*
X150306332Y-125639044D01*
X150297294Y-125636899D01*
X150280010Y-125632797D01*
X150265965Y-125628355D01*
X150243114Y-125619239D01*
X150195311Y-125579484D01*
X150180005Y-125519223D01*
X150203043Y-125461474D01*
X150255625Y-125428296D01*
X150280390Y-125425200D01*
X152553400Y-125425200D01*
X152585189Y-125422698D01*
X152588165Y-125422227D01*
X152610414Y-125418703D01*
X152610418Y-125418702D01*
X152616276Y-125417774D01*
X152622358Y-125415255D01*
X152664523Y-125397789D01*
X152703925Y-125381468D01*
X152754225Y-125344923D01*
X152781659Y-125320955D01*
X152808086Y-125276724D01*
X152825145Y-125248174D01*
X152825147Y-125248169D01*
X152828042Y-125243324D01*
X152829787Y-125237953D01*
X152829789Y-125237949D01*
X152846035Y-125187949D01*
X152846036Y-125187944D01*
X152847255Y-125184193D01*
X152848730Y-125174881D01*
X152856583Y-125125298D01*
X152856583Y-125125294D01*
X152857200Y-125121400D01*
X152857200Y-123486746D01*
X152876413Y-123427615D01*
X152926713Y-123391070D01*
X152988887Y-123391070D01*
X152996296Y-123393803D01*
X153004403Y-123397161D01*
X153010939Y-123398021D01*
X153010941Y-123398022D01*
X153155460Y-123417048D01*
X153162000Y-123417909D01*
X153168540Y-123417048D01*
X153313059Y-123398022D01*
X153313061Y-123398021D01*
X153319597Y-123397161D01*
X153466455Y-123336331D01*
X153592564Y-123239564D01*
X153689331Y-123113454D01*
X153750161Y-122966597D01*
X153770909Y-122809000D01*
X153750161Y-122651403D01*
X153689331Y-122504546D01*
X153592564Y-122378436D01*
X153587329Y-122374419D01*
X153585667Y-122372757D01*
X153557439Y-122317360D01*
X153556200Y-122301620D01*
X153556200Y-122213410D01*
X153548940Y-122191067D01*
X153545256Y-122175719D01*
X153544438Y-122170553D01*
X153543200Y-122154820D01*
X153543200Y-101893164D01*
X153535938Y-101870814D01*
X153532257Y-101855483D01*
X153528580Y-101832267D01*
X153517915Y-101811336D01*
X153511874Y-101796751D01*
X153507061Y-101781939D01*
X153507060Y-101781936D01*
X153504613Y-101774406D01*
X153490803Y-101755398D01*
X153482555Y-101741939D01*
X153482409Y-101741651D01*
X153471890Y-101721007D01*
X152875593Y-101124710D01*
X152876895Y-101123408D01*
X152846165Y-101081106D01*
X152846166Y-101023444D01*
X152845112Y-101023191D01*
X152846034Y-101019349D01*
X152847255Y-101015593D01*
X152857200Y-100952800D01*
X152857200Y-98855800D01*
X152876413Y-98796669D01*
X152926713Y-98760124D01*
X152957800Y-98755200D01*
X158712600Y-98755200D01*
X158771731Y-98774413D01*
G37*
%TD.AperFunction*%
%TD*%
%TA.AperFunction,NonConductor*%
G36*
X145504907Y-101441413D02*
G01*
X145541452Y-101491713D01*
X145541452Y-101553887D01*
X145535413Y-101568467D01*
X145530420Y-101578267D01*
X145529453Y-101584372D01*
X145493426Y-101633959D01*
X145434295Y-101653173D01*
X145403207Y-101648249D01*
X145367249Y-101636565D01*
X145367244Y-101636564D01*
X145363493Y-101635345D01*
X145354181Y-101633870D01*
X145304598Y-101626017D01*
X145304594Y-101626017D01*
X145300700Y-101625400D01*
X141464800Y-101625400D01*
X141433011Y-101627902D01*
X141431053Y-101628212D01*
X141431054Y-101628212D01*
X141407786Y-101631897D01*
X141407782Y-101631898D01*
X141401924Y-101632826D01*
X141396445Y-101635096D01*
X141393646Y-101635885D01*
X141331520Y-101633442D01*
X141294488Y-101605409D01*
X141292890Y-101607007D01*
X141279818Y-101593935D01*
X141251592Y-101538537D01*
X141261318Y-101477129D01*
X141305282Y-101433165D01*
X141350953Y-101422200D01*
X145445776Y-101422200D01*
X145504907Y-101441413D01*
G37*
%TD.AperFunction*%
%TA.AperFunction,NonConductor*%
G36*
X128315435Y-101898118D02*
G01*
X128342124Y-101924807D01*
X128370350Y-101980205D01*
X128371589Y-101995942D01*
X128371589Y-102960065D01*
X128352376Y-103019196D01*
X128302076Y-103055741D01*
X128244231Y-103057041D01*
X128239097Y-103055624D01*
X128233858Y-103053523D01*
X128228278Y-103052639D01*
X128222837Y-103051138D01*
X128223168Y-103049937D01*
X128173160Y-103024453D01*
X128144938Y-102969054D01*
X128143700Y-102953323D01*
X128143700Y-101969253D01*
X128162913Y-101910122D01*
X128213213Y-101873577D01*
X128275387Y-101873577D01*
X128315435Y-101898118D01*
G37*
%TD.AperFunction*%
%TA.AperFunction,NonConductor*%
G36*
X128359697Y-121202826D02*
G01*
X128383490Y-121260267D01*
X128383800Y-121268161D01*
X128383800Y-121999826D01*
X128364587Y-122058957D01*
X128314287Y-122095502D01*
X128264683Y-122098707D01*
X128237357Y-122093590D01*
X128212782Y-122088988D01*
X128158199Y-122059220D01*
X128131536Y-122003052D01*
X128130700Y-121990107D01*
X128130700Y-121289659D01*
X128149913Y-121230528D01*
X128192802Y-121196717D01*
X128244703Y-121175219D01*
X128306684Y-121170340D01*
X128359697Y-121202826D01*
G37*
%TD.AperFunction*%
%TA.AperFunction,NonConductor*%
G36*
X128903202Y-123696408D02*
G01*
X128946000Y-123741507D01*
X128955800Y-123784817D01*
X128955800Y-125121400D01*
X128958302Y-125153189D01*
X128963226Y-125184276D01*
X128999532Y-125271925D01*
X129036077Y-125322225D01*
X129060045Y-125349659D01*
X129066844Y-125353721D01*
X129132826Y-125393145D01*
X129132831Y-125393147D01*
X129137676Y-125396042D01*
X129143047Y-125397787D01*
X129143051Y-125397789D01*
X129193051Y-125414035D01*
X129193056Y-125414036D01*
X129196807Y-125415255D01*
X129200703Y-125415872D01*
X129255702Y-125424583D01*
X129255706Y-125424583D01*
X129259600Y-125425200D01*
X134366500Y-125425200D01*
X134425631Y-125444413D01*
X134462176Y-125494713D01*
X134467100Y-125525800D01*
X134467100Y-125574036D01*
X134466792Y-125578227D01*
X134465144Y-125583028D01*
X134465492Y-125592307D01*
X134465492Y-125592310D01*
X134467029Y-125633236D01*
X134467100Y-125637010D01*
X134467100Y-125656793D01*
X134467938Y-125661292D01*
X134468281Y-125666580D01*
X134469411Y-125696682D01*
X134473076Y-125705213D01*
X134473077Y-125705217D01*
X134474026Y-125707425D01*
X134480495Y-125728717D01*
X134480935Y-125731082D01*
X134480936Y-125731085D01*
X134482636Y-125740211D01*
X134487507Y-125748113D01*
X134487508Y-125748116D01*
X134496836Y-125763249D01*
X134503625Y-125776318D01*
X134514306Y-125801179D01*
X134518385Y-125806144D01*
X134522817Y-125810576D01*
X134537315Y-125828917D01*
X134542315Y-125837028D01*
X134561977Y-125851979D01*
X134565914Y-125854973D01*
X134576157Y-125863916D01*
X134812682Y-126100441D01*
X134815426Y-126103620D01*
X134817655Y-126108180D01*
X134824466Y-126114498D01*
X134854482Y-126142342D01*
X134857201Y-126144960D01*
X134871197Y-126158956D01*
X134874970Y-126161544D01*
X134878942Y-126165032D01*
X134901037Y-126185528D01*
X134911897Y-126189861D01*
X134931522Y-126200339D01*
X134941168Y-126206956D01*
X134950208Y-126209101D01*
X134950207Y-126209101D01*
X134967491Y-126213203D01*
X134981541Y-126217646D01*
X135006673Y-126227673D01*
X135013068Y-126228300D01*
X135019336Y-126228300D01*
X135042557Y-126231017D01*
X135051827Y-126233217D01*
X135081204Y-126229219D01*
X135094770Y-126228300D01*
X137490171Y-126228300D01*
X137549302Y-126247513D01*
X137561306Y-126257765D01*
X137607517Y-126303976D01*
X137635744Y-126359379D01*
X137636234Y-126362473D01*
X137626503Y-126423879D01*
X137582535Y-126467839D01*
X137536871Y-126478800D01*
X129834640Y-126478800D01*
X129775509Y-126459587D01*
X129767718Y-126453312D01*
X129725089Y-126415331D01*
X129725088Y-126415330D01*
X129720560Y-126411296D01*
X129568324Y-126330691D01*
X129401255Y-126288726D01*
X129395198Y-126288694D01*
X129395196Y-126288694D01*
X129311094Y-126288254D01*
X129228998Y-126287824D01*
X129223101Y-126289240D01*
X129223099Y-126289240D01*
X129103610Y-126317927D01*
X129061499Y-126328037D01*
X129056113Y-126330817D01*
X129056110Y-126330818D01*
X128951574Y-126384774D01*
X128908427Y-126407044D01*
X128903862Y-126411026D01*
X128903861Y-126411027D01*
X128883020Y-126429208D01*
X128840721Y-126466108D01*
X128826607Y-126478420D01*
X128769418Y-126502813D01*
X128760475Y-126503211D01*
X126293085Y-126503211D01*
X126233954Y-126483998D01*
X126197409Y-126433698D01*
X126193724Y-126386874D01*
X126205314Y-126313700D01*
X126185780Y-126190367D01*
X126155411Y-126130765D01*
X126132684Y-126086160D01*
X126132683Y-126086159D01*
X126129090Y-126079107D01*
X126040793Y-125990810D01*
X126033741Y-125987217D01*
X126033740Y-125987216D01*
X125936589Y-125937715D01*
X125936588Y-125937715D01*
X125929533Y-125934120D01*
X125921710Y-125932881D01*
X125921707Y-125932880D01*
X125877273Y-125925842D01*
X125821875Y-125897616D01*
X125690711Y-125766451D01*
X125542815Y-125618555D01*
X125540073Y-125615379D01*
X125537845Y-125610820D01*
X125525698Y-125599552D01*
X125495414Y-125545254D01*
X125502829Y-125483524D01*
X125545113Y-125437941D01*
X125594115Y-125425200D01*
X128169400Y-125425200D01*
X128201189Y-125422698D01*
X128204165Y-125422227D01*
X128226414Y-125418703D01*
X128226418Y-125418702D01*
X128232276Y-125417774D01*
X128238358Y-125415255D01*
X128280523Y-125397789D01*
X128319925Y-125381468D01*
X128370225Y-125344923D01*
X128397659Y-125320955D01*
X128424086Y-125276724D01*
X128441145Y-125248174D01*
X128441147Y-125248169D01*
X128444042Y-125243324D01*
X128445787Y-125237953D01*
X128445789Y-125237949D01*
X128462035Y-125187949D01*
X128462036Y-125187944D01*
X128463255Y-125184193D01*
X128464730Y-125174881D01*
X128472583Y-125125298D01*
X128472583Y-125125294D01*
X128473200Y-125121400D01*
X128473200Y-123788161D01*
X128492413Y-123729030D01*
X128542713Y-123692485D01*
X128586930Y-123688422D01*
X128701800Y-123703545D01*
X128842070Y-123685078D01*
X128903202Y-123696408D01*
G37*
%TD.AperFunction*%
%TA.AperFunction,NonConductor*%
G36*
X141265136Y-127540413D02*
G01*
X141301681Y-127590713D01*
X141301681Y-127652887D01*
X141265136Y-127703187D01*
X141265062Y-127703233D01*
X141258692Y-127707861D01*
X141251638Y-127711455D01*
X141232223Y-127730870D01*
X141176825Y-127759096D01*
X141115417Y-127749370D01*
X141089953Y-127730870D01*
X141052018Y-127692935D01*
X141023792Y-127637537D01*
X141033518Y-127576129D01*
X141077482Y-127532165D01*
X141123153Y-127521200D01*
X141206005Y-127521200D01*
X141265136Y-127540413D01*
G37*
%TD.AperFunction*%
%TA.AperFunction,NonConductor*%
G36*
X140520378Y-127540413D02*
G01*
X140556923Y-127590713D01*
X140556923Y-127652887D01*
X140532382Y-127692935D01*
X140469310Y-127756007D01*
X140463701Y-127767016D01*
X140455672Y-127782773D01*
X140411707Y-127826736D01*
X140366037Y-127837700D01*
X129653763Y-127837700D01*
X129594632Y-127818487D01*
X129558087Y-127768187D01*
X129558087Y-127706013D01*
X129594632Y-127655713D01*
X129608562Y-127647227D01*
X129632413Y-127635231D01*
X129708141Y-127597144D01*
X129712753Y-127593205D01*
X129712756Y-127593203D01*
X129768839Y-127545303D01*
X129826280Y-127521510D01*
X129834173Y-127521200D01*
X140461247Y-127521200D01*
X140520378Y-127540413D01*
G37*
%TD.AperFunction*%
%TA.AperFunction,Conductor*%
%TO.N,/A*%
G36*
X145359831Y-101847813D02*
G01*
X145396376Y-101898113D01*
X145401300Y-101929200D01*
X145401300Y-103147064D01*
X145413119Y-103206480D01*
X145458140Y-103273860D01*
X145525520Y-103318881D01*
X145584936Y-103330700D01*
X146235064Y-103330700D01*
X146294480Y-103318881D01*
X146361860Y-103273860D01*
X146406881Y-103206480D01*
X146418700Y-103147064D01*
X146418700Y-101942400D01*
X146437913Y-101883269D01*
X146488213Y-101846724D01*
X146519300Y-101841800D01*
X151015700Y-101841800D01*
X151074831Y-101861013D01*
X151111376Y-101911313D01*
X151116300Y-101942400D01*
X151116300Y-103147064D01*
X151128119Y-103206480D01*
X151173140Y-103273860D01*
X151240520Y-103318881D01*
X151299936Y-103330700D01*
X151950064Y-103330700D01*
X152009480Y-103318881D01*
X152076860Y-103273860D01*
X152121881Y-103206480D01*
X152133700Y-103147064D01*
X152133700Y-101942400D01*
X152152913Y-101883269D01*
X152203213Y-101846724D01*
X152234300Y-101841800D01*
X152436047Y-101841800D01*
X152495178Y-101861013D01*
X152507182Y-101871265D01*
X152611535Y-101975618D01*
X152639761Y-102031016D01*
X152641000Y-102046753D01*
X152641000Y-119889000D01*
X152621787Y-119948131D01*
X152571487Y-119984676D01*
X152540400Y-119989600D01*
X141464800Y-119989600D01*
X141405669Y-119970387D01*
X141369124Y-119920087D01*
X141364200Y-119889000D01*
X141364200Y-101929200D01*
X141383413Y-101870069D01*
X141433713Y-101833524D01*
X141464800Y-101828600D01*
X145300700Y-101828600D01*
X145359831Y-101847813D01*
G37*
%TD.AperFunction*%
%TD*%
%TA.AperFunction,Conductor*%
%TO.N,/B*%
G36*
X133303366Y-101725135D02*
G01*
X133339911Y-101775434D01*
X133342902Y-101826147D01*
X133336300Y-101859336D01*
X133336300Y-103169464D01*
X133348119Y-103228880D01*
X133393140Y-103296260D01*
X133460520Y-103341281D01*
X133519936Y-103353100D01*
X134170064Y-103353100D01*
X134229480Y-103341281D01*
X134296860Y-103296260D01*
X134341881Y-103228880D01*
X134353700Y-103169464D01*
X134353700Y-101967800D01*
X134372913Y-101908669D01*
X134423213Y-101872124D01*
X134454300Y-101867200D01*
X138950700Y-101867200D01*
X139009831Y-101886413D01*
X139046376Y-101936713D01*
X139051300Y-101967800D01*
X139051300Y-103169464D01*
X139063119Y-103228880D01*
X139108140Y-103296260D01*
X139175520Y-103341281D01*
X139234936Y-103353100D01*
X139885064Y-103353100D01*
X139944480Y-103341281D01*
X140011860Y-103296260D01*
X140056881Y-103228880D01*
X140068700Y-103169464D01*
X140068700Y-101967800D01*
X140087913Y-101908669D01*
X140138213Y-101872124D01*
X140169300Y-101867200D01*
X140361810Y-101867200D01*
X140420941Y-101886413D01*
X140457486Y-101936713D01*
X140462410Y-101967800D01*
X140462365Y-103352135D01*
X140461832Y-119891392D01*
X140442617Y-119950523D01*
X140392316Y-119987066D01*
X140361046Y-119991989D01*
X134196560Y-119980574D01*
X129272613Y-119971457D01*
X129213518Y-119952134D01*
X129177066Y-119901767D01*
X129172200Y-119870857D01*
X129172200Y-114654480D01*
X129161228Y-114585205D01*
X129159989Y-114569469D01*
X129159989Y-101806546D01*
X129179202Y-101747415D01*
X129229502Y-101710870D01*
X129260586Y-101705946D01*
X131478032Y-101705933D01*
X133244234Y-101705922D01*
X133303366Y-101725135D01*
G37*
%TD.AperFunction*%
%TD*%
%TA.AperFunction,Conductor*%
%TO.N,/Driver FETs/ISA*%
G36*
X145778378Y-120415213D02*
G01*
X145814923Y-120465513D01*
X145814923Y-120527687D01*
X145790382Y-120567735D01*
X145714110Y-120644007D01*
X145710516Y-120651061D01*
X145703445Y-120664939D01*
X145695200Y-120678394D01*
X145689906Y-120685681D01*
X145652577Y-120715108D01*
X145652520Y-120715119D01*
X145644283Y-120720622D01*
X145644282Y-120720623D01*
X145595695Y-120753088D01*
X145585140Y-120760140D01*
X145540119Y-120827520D01*
X145528300Y-120886936D01*
X145528300Y-122197064D01*
X145540119Y-122256480D01*
X145585140Y-122323860D01*
X145652520Y-122368881D01*
X145711936Y-122380700D01*
X146362064Y-122380700D01*
X146421480Y-122368881D01*
X146488860Y-122323860D01*
X146533881Y-122256480D01*
X146545700Y-122197064D01*
X146545700Y-120992400D01*
X146564913Y-120933269D01*
X146615213Y-120896724D01*
X146646300Y-120891800D01*
X151168100Y-120891800D01*
X151227231Y-120911013D01*
X151263776Y-120961313D01*
X151268700Y-120992400D01*
X151268700Y-122197064D01*
X151280519Y-122256480D01*
X151325540Y-122323860D01*
X151392920Y-122368881D01*
X151452336Y-122380700D01*
X152102464Y-122380700D01*
X152161880Y-122368881D01*
X152229260Y-122323860D01*
X152274281Y-122256480D01*
X152286100Y-122197064D01*
X152286100Y-121402444D01*
X152305313Y-121343313D01*
X152355613Y-121306768D01*
X152373569Y-121302705D01*
X152419099Y-121296711D01*
X152419101Y-121296710D01*
X152425637Y-121295850D01*
X152514903Y-121258875D01*
X152576884Y-121253997D01*
X152629897Y-121286482D01*
X152653690Y-121343924D01*
X152654000Y-121351817D01*
X152654000Y-122445829D01*
X152640523Y-122496128D01*
X152638684Y-122499314D01*
X152634669Y-122504546D01*
X152573839Y-122651403D01*
X152553091Y-122809000D01*
X152573839Y-122966597D01*
X152634669Y-123113454D01*
X152638684Y-123118686D01*
X152640523Y-123121872D01*
X152654000Y-123172171D01*
X152654000Y-125121400D01*
X152634787Y-125180531D01*
X152584487Y-125217076D01*
X152553400Y-125222000D01*
X141451600Y-125222000D01*
X141392469Y-125202787D01*
X141355924Y-125152487D01*
X141351000Y-125121400D01*
X141351000Y-123123348D01*
X141358658Y-123084850D01*
X141418161Y-122941197D01*
X141438909Y-122783600D01*
X141418161Y-122626003D01*
X141371858Y-122514217D01*
X141364200Y-122475719D01*
X141364200Y-120496600D01*
X141383413Y-120437469D01*
X141433713Y-120400924D01*
X141464800Y-120396000D01*
X145719247Y-120396000D01*
X145778378Y-120415213D01*
G37*
%TD.AperFunction*%
%TD*%
M02*
