%TF.GenerationSoftware,KiCad,Pcbnew,(6.0.1)*%
%TF.CreationDate,2022-02-15T00:41:15-08:00*%
%TF.ProjectId,OpenMC,4f70656e-4d43-42e6-9b69-6361645f7063,rev?*%
%TF.SameCoordinates,Original*%
%TF.FileFunction,Paste,Top*%
%TF.FilePolarity,Positive*%
%FSLAX46Y46*%
G04 Gerber Fmt 4.6, Leading zero omitted, Abs format (unit mm)*
G04 Created by KiCad (PCBNEW (6.0.1)) date 2022-02-15 00:41:15*
%MOMM*%
%LPD*%
G01*
G04 APERTURE LIST*
G04 Aperture macros list*
%AMRoundRect*
0 Rectangle with rounded corners*
0 $1 Rounding radius*
0 $2 $3 $4 $5 $6 $7 $8 $9 X,Y pos of 4 corners*
0 Add a 4 corners polygon primitive as box body*
4,1,4,$2,$3,$4,$5,$6,$7,$8,$9,$2,$3,0*
0 Add four circle primitives for the rounded corners*
1,1,$1+$1,$2,$3*
1,1,$1+$1,$4,$5*
1,1,$1+$1,$6,$7*
1,1,$1+$1,$8,$9*
0 Add four rect primitives between the rounded corners*
20,1,$1+$1,$2,$3,$4,$5,0*
20,1,$1+$1,$4,$5,$6,$7,0*
20,1,$1+$1,$6,$7,$8,$9,0*
20,1,$1+$1,$8,$9,$2,$3,0*%
G04 Aperture macros list end*
%ADD10R,0.610000X1.270000*%
%ADD11R,0.610000X1.020000*%
%ADD12R,3.910000X3.810000*%
%ADD13R,3.250000X1.550000*%
%ADD14RoundRect,0.225000X0.250000X-0.225000X0.250000X0.225000X-0.250000X0.225000X-0.250000X-0.225000X0*%
%ADD15RoundRect,0.200000X0.275000X-0.200000X0.275000X0.200000X-0.275000X0.200000X-0.275000X-0.200000X0*%
%ADD16RoundRect,0.225000X-0.250000X0.225000X-0.250000X-0.225000X0.250000X-0.225000X0.250000X0.225000X0*%
%ADD17RoundRect,0.150000X0.587500X0.150000X-0.587500X0.150000X-0.587500X-0.150000X0.587500X-0.150000X0*%
G04 APERTURE END LIST*
D10*
%TO.C,Q2*%
X147967400Y-121542000D03*
X149237400Y-121542000D03*
X150507400Y-121542000D03*
X151777400Y-121542000D03*
D11*
X147967400Y-116077000D03*
X150507400Y-116077000D03*
X151777400Y-116077000D03*
D12*
X149872400Y-118182000D03*
D11*
X149237400Y-116077000D03*
%TD*%
D10*
%TO.C,Q11*%
X123825000Y-102492000D03*
X125095000Y-102492000D03*
X126365000Y-102492000D03*
X127635000Y-102492000D03*
D12*
X125730000Y-99132000D03*
D11*
X125095000Y-97027000D03*
X126365000Y-97027000D03*
X123825000Y-97027000D03*
X127635000Y-97027000D03*
%TD*%
D13*
%TO.C,R1*%
X147015200Y-129392800D03*
X147015200Y-123692800D03*
%TD*%
D14*
%TO.C,C13*%
X126746000Y-143904000D03*
X126746000Y-142354000D03*
%TD*%
D10*
%TO.C,Q1*%
X142100000Y-102492000D03*
X143370000Y-102492000D03*
X144640000Y-102492000D03*
X145910000Y-102492000D03*
D12*
X144005000Y-99132000D03*
D11*
X142100000Y-97027000D03*
X144640000Y-97027000D03*
X143370000Y-97027000D03*
X145910000Y-97027000D03*
%TD*%
D15*
%TO.C,R13*%
X144957800Y-142023600D03*
X144957800Y-140373600D03*
%TD*%
%TO.C,R8*%
X148971000Y-142049000D03*
X148971000Y-140399000D03*
%TD*%
D10*
%TO.C,Q9*%
X118084600Y-102492000D03*
X119354600Y-102492000D03*
X120624600Y-102492000D03*
X121894600Y-102492000D03*
D12*
X119989600Y-99132000D03*
D11*
X121894600Y-97027000D03*
X118084600Y-97027000D03*
X119354600Y-97027000D03*
X120624600Y-97027000D03*
%TD*%
D10*
%TO.C,Q3*%
X147815000Y-102492000D03*
X149085000Y-102492000D03*
X150355000Y-102492000D03*
X151625000Y-102492000D03*
D11*
X149085000Y-97027000D03*
D12*
X149720000Y-99132000D03*
D11*
X151625000Y-97027000D03*
X150355000Y-97027000D03*
X147815000Y-97027000D03*
%TD*%
D10*
%TO.C,Q8*%
X130035000Y-121542000D03*
X131305000Y-121542000D03*
X132575000Y-121542000D03*
X133845000Y-121542000D03*
D11*
X131305000Y-116077000D03*
D12*
X131940000Y-118182000D03*
D11*
X133845000Y-116077000D03*
X132575000Y-116077000D03*
X130035000Y-116077000D03*
%TD*%
D16*
%TO.C,C9*%
X132207000Y-142354000D03*
X132207000Y-143904000D03*
%TD*%
D13*
%TO.C,R3*%
X122885200Y-129443600D03*
X122885200Y-123743600D03*
%TD*%
D10*
%TO.C,Q6*%
X135724600Y-121542000D03*
X136994600Y-121542000D03*
X138264600Y-121542000D03*
X139534600Y-121542000D03*
D11*
X135724600Y-116077000D03*
X139534600Y-116077000D03*
X136994600Y-116077000D03*
D12*
X137629600Y-118182000D03*
D11*
X138264600Y-116077000D03*
%TD*%
D13*
%TO.C,R2*%
X134772400Y-129443600D03*
X134772400Y-123743600D03*
%TD*%
D10*
%TO.C,Q4*%
X142227000Y-121542000D03*
X143497000Y-121542000D03*
X144767000Y-121542000D03*
X146037000Y-121542000D03*
D11*
X142227000Y-116077000D03*
X143497000Y-116077000D03*
X144767000Y-116077000D03*
D12*
X144132000Y-118182000D03*
D11*
X146037000Y-116077000D03*
%TD*%
D10*
%TO.C,Q10*%
X123812000Y-121564400D03*
X125082000Y-121564400D03*
X126352000Y-121564400D03*
X127622000Y-121564400D03*
D12*
X125717000Y-118204400D03*
D11*
X123812000Y-116099400D03*
X125082000Y-116099400D03*
X126352000Y-116099400D03*
X127622000Y-116099400D03*
%TD*%
D10*
%TO.C,Q12*%
X118097000Y-121564400D03*
X119367000Y-121564400D03*
X120637000Y-121564400D03*
X121907000Y-121564400D03*
D12*
X120002000Y-118204400D03*
D11*
X121907000Y-116099400D03*
X120637000Y-116099400D03*
X118097000Y-116099400D03*
X119367000Y-116099400D03*
%TD*%
D15*
%TO.C,R11*%
X146989800Y-142049000D03*
X146989800Y-140399000D03*
%TD*%
D10*
%TO.C,Q5*%
X130035000Y-102514400D03*
X131305000Y-102514400D03*
X132575000Y-102514400D03*
X133845000Y-102514400D03*
D11*
X130035000Y-97049400D03*
D12*
X131940000Y-99154400D03*
D11*
X132575000Y-97049400D03*
X133845000Y-97049400D03*
X131305000Y-97049400D03*
%TD*%
D10*
%TO.C,Q7*%
X135750000Y-102514400D03*
X137020000Y-102514400D03*
X138290000Y-102514400D03*
X139560000Y-102514400D03*
D11*
X135750000Y-97049400D03*
D12*
X137655000Y-99154400D03*
D11*
X137020000Y-97049400D03*
X138290000Y-97049400D03*
X139560000Y-97049400D03*
%TD*%
D17*
%TO.C,U4*%
X130429000Y-143891000D03*
X130429000Y-141991000D03*
X128554000Y-142941000D03*
%TD*%
M02*
